<svg width="35" height="39" viewBox="0 0 35 39" fill="none" xmlns="http://www.w3.org/2000/svg">
<path d="M0.568359 37.6899C0.568359 26.9199 0.568359 16.14 0.568359 5.37C0.568359 5.35 0.588318 5.31993 0.588318 5.29993C0.698318 4.63993 1.26834 4.15002 1.92834 4.15002C3.17834 4.15002 4.42835 4.15002 5.68835 4.15002C5.77835 4.15002 5.78833 4.18001 5.78833 4.26001C5.78833 4.92001 5.78833 5.56998 5.78833 6.22998C5.78833 6.84998 5.90835 7.45001 6.18835 8.01001C6.95835 9.52001 8.19832 10.31 9.89832 10.36C10.6583 10.38 11.3583 10.1799 12.0083 9.78992C12.8183 9.30992 13.3884 8.63001 13.7484 7.76001C13.9584 7.24001 14.0383 6.71002 14.0383 6.15002C14.0383 5.53002 14.0383 4.89991 14.0383 4.27991V4.15991H21.0283V4.27991C21.0283 4.90991 21.0283 5.53993 21.0283 6.17993C21.0283 6.99993 21.2183 7.75994 21.6683 8.43994C22.3983 9.56994 23.4383 10.21 24.7783 10.35C25.4383 10.42 26.0883 10.3199 26.7083 10.0699C27.7883 9.61995 28.5484 8.85001 28.9984 7.76001C29.2084 7.25001 29.2883 6.71993 29.2883 6.17993C29.2883 5.54993 29.2883 4.91991 29.2883 4.27991C29.2883 4.18991 29.3083 4.15991 29.4083 4.15991C30.6483 4.15991 31.8783 4.15991 33.1183 4.15991C33.2583 4.15991 33.4083 4.18998 33.5483 4.22998C34.1283 4.41998 34.4883 4.94997 34.4883 5.58997C34.4883 16.23 34.4883 26.86 34.4883 37.5C34.4883 37.52 34.4883 37.5299 34.4883 37.5499C34.4883 38.1599 34.1083 38.68 33.5283 38.87C33.4183 38.91 33.2883 38.92 33.1783 38.95H1.88831C1.88831 38.95 1.83836 38.9399 1.81836 38.9299C1.26836 38.8499 0.878335 38.5599 0.668335 38.0399C0.628335 37.9299 0.608308 37.82 0.578308 37.71L0.568359 37.6899ZM31.2683 35.71V13.9H31.1483C22.0683 13.9 12.9983 13.9 3.91833 13.9C3.83167 13.9 3.78833 13.9432 3.78833 14.0299C3.78833 21.2099 3.78833 28.3899 3.78833 35.5699C3.78833 35.7199 3.76833 35.71 3.91833 35.71C12.9883 35.71 22.0683 35.71 31.1383 35.71H31.2583H31.2683Z" fill="#F0801B"/>
<path d="M0.568359 37.6899C0.598359 37.7999 0.618325 37.92 0.658325 38.02C0.868325 38.54 1.25835 38.8299 1.80835 38.9099C1.82835 38.9099 1.85836 38.9199 1.87836 38.9299H0.568359C0.568359 38.5199 0.568359 38.0999 0.568359 37.6899Z" fill="#F0801B"/>
<path d="M8.31836 4.15007C8.31836 3.45007 8.31836 2.73996 8.31836 2.03996C8.31836 1.23996 8.99834 0.530021 9.79834 0.480021C10.6983 0.420021 11.5383 1.12005 11.5283 2.13005C11.5283 3.49005 11.5283 4.85 11.5283 6.21C11.5283 7 11.0283 7.61997 10.2783 7.79997C9.39832 8.00997 8.49833 7.41006 8.34833 6.52006C8.32833 6.42006 8.32831 6.33002 8.32831 6.23002C8.32831 5.54002 8.32831 4.84995 8.32831 4.15995L8.31836 4.15007Z" fill="#F0801B"/>
<path d="M23.5584 4.15006C23.5584 3.47006 23.5584 2.79002 23.5584 2.11002C23.5584 1.62002 23.7384 1.20003 24.1084 0.870028C24.7384 0.300028 25.7684 0.350013 26.3384 0.980013C26.6284 1.30001 26.7684 1.67001 26.7684 2.10001C26.7684 3.46001 26.7684 4.81996 26.7684 6.17996C26.7684 6.96996 26.2484 7.61994 25.4784 7.77994C24.5684 7.97994 23.6184 7.28001 23.5684 6.35001C23.5384 5.89001 23.5684 5.43 23.5584 4.97C23.5584 4.69 23.5584 4.41004 23.5584 4.13004V4.15006Z" fill="#F0801B"/>
<path d="M12.5979 16.2799H16.1979V16.38C16.1979 17.55 16.1979 18.73 16.1979 19.9C16.1979 19.99 16.1779 20.02 16.0879 20.02C14.9579 20.02 13.8279 20.02 12.6979 20.02C12.6179 20.02 12.5879 19.9999 12.5879 19.9199C12.5879 18.7399 12.5879 17.56 12.5879 16.38C12.5879 16.35 12.5879 16.3199 12.5879 16.2799H12.5979Z" fill="#F0801B"/>
<path d="M18.8887 20.01V16.27H22.4887V16.36C22.4887 17.54 22.4887 18.72 22.4887 19.9C22.4887 19.98 22.4687 20 22.3787 20C21.2487 20 20.1087 20 18.9787 20C18.9487 20 18.9187 20 18.8887 20V20.01Z" fill="#F0801B"/>
<path d="M28.7679 16.2799C28.7679 16.2799 28.7679 16.35 28.7679 16.38C28.7679 17.56 28.7679 18.7299 28.7679 19.9099C28.7679 19.9899 28.758 20.02 28.668 20.02C27.528 20.02 26.3979 20.02 25.2579 20.02C25.2279 20.02 25.208 20.02 25.168 20.02V16.2899H28.7579L28.7679 16.2799Z" fill="#F0801B"/>
<path d="M16.1979 24.7799C16.1979 25.3699 16.1979 25.9499 16.1979 26.5399C16.1979 26.6299 16.1779 26.65 16.0879 26.65C14.9579 26.65 13.8279 26.65 12.6979 26.65C12.6079 26.65 12.5879 26.6199 12.5879 26.5399C12.5879 25.3699 12.5879 24.19 12.5879 23.02C12.5879 22.93 12.6079 22.9099 12.6979 22.9099C13.8279 22.9099 14.9579 22.9099 16.0879 22.9099C16.1779 22.9099 16.1979 22.93 16.1979 23.02C16.1979 23.61 16.1979 24.1999 16.1979 24.7899V24.7799Z" fill="#F0801B"/>
<path d="M9.88855 20.01H6.30859V16.2799H9.88855V20.01Z" fill="#F0801B"/>
<path d="M18.8887 22.9099H19.0087C20.1287 22.9099 21.2487 22.9099 22.3687 22.9099C22.4487 22.9099 22.4887 22.9499 22.4887 23.0299C22.4887 24.1999 22.4887 25.3599 22.4887 26.5299C22.4887 26.6299 22.4587 26.65 22.3687 26.65C21.2487 26.65 20.1187 26.65 18.9987 26.65C18.9087 26.65 18.8887 26.6299 18.8887 26.5399C18.8887 25.3699 18.8887 24.19 18.8887 23.02C18.8887 22.99 18.8887 22.9599 18.8887 22.9099Z" fill="#F0801B"/>
<path d="M25.1787 22.9099H25.2987C26.4187 22.9099 27.5287 22.9099 28.6487 22.9099C28.7353 22.9099 28.7787 22.9533 28.7787 23.0399C28.7787 24.1999 28.7787 25.3699 28.7787 26.5299C28.7787 26.6099 28.7387 26.65 28.6587 26.65C27.5387 26.65 26.4187 26.65 25.2987 26.65C25.2087 26.65 25.1787 26.6299 25.1787 26.5299C25.1787 25.3599 25.1787 24.19 25.1787 23.02C25.1787 22.99 25.1787 22.9599 25.1787 22.9099Z" fill="#F0801B"/>
<path d="M12.5981 29.5499H16.1882C16.1882 29.5499 16.1882 29.62 16.1882 29.65C16.1882 30.82 16.1882 31.9999 16.1882 33.1699C16.1882 33.2499 16.1681 33.2799 16.0781 33.2799C14.9481 33.2799 13.8182 33.2799 12.6782 33.2799C12.6082 33.2799 12.5781 33.2599 12.5781 33.1799C12.5781 31.9999 12.5781 30.81 12.5781 29.63C12.5781 29.6 12.5781 29.5799 12.5781 29.5399L12.5981 29.5499Z" fill="#F0801B"/>
<path d="M18.8887 29.5499C18.8887 29.5499 18.9587 29.5499 18.9887 29.5499C20.1187 29.5499 21.2487 29.5499 22.3787 29.5499C22.4587 29.5499 22.4887 29.5699 22.4887 29.6599C22.4887 30.8299 22.4887 32.0099 22.4887 33.1799C22.4887 33.2699 22.4687 33.2999 22.3787 33.2999C21.2487 33.2999 20.1287 33.2999 18.9987 33.2999C18.9287 33.2999 18.8887 33.3 18.8887 33.2C18.8887 32.02 18.8887 30.83 18.8887 29.65C18.8887 29.62 18.8887 29.5999 18.8887 29.5599V29.5499Z" fill="#F0801B"/>
<path d="M25.178 29.5499H28.7679C28.7679 29.5499 28.7679 29.61 28.7679 29.64C28.7679 30.82 28.7679 32.0099 28.7679 33.1899C28.7679 33.2699 28.748 33.2899 28.668 33.2899C27.528 33.2899 26.3979 33.2899 25.2579 33.2899C25.2279 33.2899 25.208 33.2899 25.168 33.2899V29.5599L25.178 29.5499Z" fill="#F0801B"/>
<path d="M9.8988 24.7799C9.8988 25.3699 9.8988 25.9499 9.8988 26.5399C9.8988 26.6299 9.87882 26.6599 9.78882 26.6599C8.65882 26.6599 7.53881 26.6599 6.40881 26.6599C6.32881 26.6599 6.29883 26.6399 6.29883 26.5599C6.29883 25.3799 6.29883 24.2 6.29883 23.02C6.29883 22.94 6.3288 22.9199 6.3988 22.9199C7.5288 22.9199 8.65882 22.9199 9.78882 22.9199C9.87882 22.9199 9.8988 22.9499 9.8988 23.0299C9.8988 23.6199 9.8988 24.1999 9.8988 24.7899V24.7799Z" fill="#F0801B"/>
<path d="M6.30859 29.5399C6.30859 29.5399 6.38858 29.5399 6.41858 29.5399C7.53858 29.5399 8.65856 29.5399 9.77856 29.5399C9.87856 29.5399 9.89856 29.5699 9.89856 29.6599C9.89856 30.8299 9.89856 31.9999 9.89856 33.1599C9.89856 33.2499 9.87856 33.2799 9.77856 33.2799C8.65856 33.2799 7.53858 33.2799 6.41858 33.2799C6.38858 33.2799 6.34859 33.2799 6.30859 33.2799V29.5399Z" fill="#F0801B"/>
</svg>
