<svg width="189" height="83" viewBox="0 0 189 83" fill="none" xmlns="http://www.w3.org/2000/svg">
<path d="M25.9805 40.447C32.6605 35.2638 37.9905 28.4294 41.2905 20.4044C41.4405 20.5545 41.7405 20.8547 42.0405 21.1549L42.1205 21.235C42.8705 22.0655 43.6205 23.0361 44.3005 23.9367C49.1805 30.9911 50.0005 40.3069 46.6305 48.1918C45.6505 50.5233 44.3005 52.5445 42.6505 54.4257C43.1805 50.143 41.7505 46.3206 37.8505 44.1392C36.6505 43.4588 35.4505 43.0087 34.1705 42.5584C31.2405 41.808 29.5205 41.3577 27.4205 40.8274C27.0405 40.7473 26.5905 40.6772 26.2205 40.5271C26.0705 40.4471 25.9905 40.447 25.9905 40.447H25.9805Z" fill="url(#paint0_radial_251_8060)"/>
<path d="M4.29004 82.2632C5.04004 73.7078 8.71999 65.5927 13.74 58.6884C18.39 52.3044 24.54 47.051 31.6 43.5989C32.35 43.2186 33.93 42.4683 34 42.4683C35.28 42.9185 36.5501 43.449 37.6801 44.0493C41.6601 46.2307 43.01 50.0531 42.48 54.3358C39.1 58.2382 34.53 61.1701 29.95 63.5716C23.42 67.0237 16.59 69.275 10.97 74.158C8.71997 76.3394 5.79004 79.4114 4.29004 82.2632Z" fill="url(#paint1_radial_251_8060)"/>
<path d="M23.1201 42.5484C16.4401 47.7317 11.1102 54.566 7.81016 62.591C7.66016 62.4409 7.36016 62.1407 7.06016 61.8405L6.98009 61.7604C6.23009 60.9299 5.48015 59.9593 4.80015 59.0588C-0.0798464 52.0044 -0.899924 42.6885 2.47008 34.8036C3.45008 32.5522 4.80006 30.4507 6.45006 28.6496C5.92006 32.9323 7.3501 36.7547 11.2501 38.9361C12.4501 39.6165 13.6502 40.0669 14.9302 40.5171C17.8602 41.2676 19.5802 41.7179 21.6802 42.2482C22.0602 42.3282 22.5101 42.3983 22.8801 42.5484H23.1101H23.1201Z" fill="url(#paint2_radial_251_8060)"/>
<path d="M44.7304 0.722168C43.9804 9.27752 40.3005 17.3927 35.2805 24.297C30.6305 30.751 24.4804 35.9342 17.3504 39.4664C16.6004 39.8466 15.0204 40.597 14.9504 40.597C13.6704 40.1467 12.4004 39.6165 11.2704 39.0162C7.29044 36.8348 5.94039 33.0124 6.47039 28.7297C9.85039 24.8272 14.4204 21.8954 19.0004 19.4939C25.5304 16.0418 32.3604 13.7903 37.9804 8.90722C40.3104 6.65581 43.2304 3.57395 44.7304 0.722168Z" fill="url(#paint3_radial_251_8060)"/>
<path d="M81.9501 67.5441C81.9501 67.314 82.0301 67.0937 82.1001 66.8635C82.1701 66.6334 82.2501 66.4835 82.4001 66.3334C82.5501 66.1833 82.7001 66.0331 82.8501 65.9531C83.0001 65.803 83.2301 65.7229 83.3801 65.6528C82.9301 65.2025 82.7001 64.6723 82.7001 64.222C82.7001 63.9918 82.7801 63.7718 82.8501 63.5416C82.9201 63.3115 83.0801 63.1614 83.2301 63.0113C83.3801 62.8612 83.5301 62.7811 83.7601 62.711C83.9901 62.631 84.2101 62.561 84.4401 62.561C84.6701 62.561 84.8901 62.5609 85.1201 62.711C85.3501 62.7911 85.5001 62.8612 85.6501 63.0113C85.8001 63.1614 85.8801 63.3114 85.9501 63.4615C86.0201 63.6116 86.0302 63.8418 86.0302 63.9919C86.0302 64.222 86.0301 64.4422 85.9501 64.5923C85.8701 64.7424 85.8001 64.8925 85.6501 65.0426C85.5001 65.1927 85.4201 65.3426 85.2001 65.4227C85.0501 65.5728 84.9002 65.6529 84.6702 65.7229L86.1702 67.304C86.4002 66.9238 86.5501 66.4734 86.6201 65.9531L87.3701 66.0332C87.3701 66.2633 87.2901 66.5633 87.1401 66.8635C87.0601 67.1637 86.9101 67.4641 86.6901 67.7642C86.9201 67.9944 87.1402 68.2145 87.2902 68.4446C87.4402 68.6747 87.5901 68.8948 87.7401 69.125H86.7601C86.6801 68.9749 86.6101 68.8949 86.4601 68.7448C86.3801 68.5947 86.2301 68.4445 86.0801 68.3645C85.8501 68.5946 85.5502 68.8149 85.1802 68.9649C84.8002 69.115 84.4301 69.1951 83.9801 69.1951C83.6001 69.1951 83.2302 69.1151 82.9302 69.0451C82.6302 68.895 82.4801 68.7449 82.2501 68.5948C82.1001 68.4447 81.9501 68.2145 81.8701 67.9944C81.9501 67.9944 81.9501 67.7643 81.9501 67.5441ZM82.7802 67.5441C82.7802 67.6942 82.7801 67.7742 82.8601 67.9243C82.9401 68.0743 83.0101 68.1545 83.0901 68.3046C83.1701 68.3847 83.3201 68.5346 83.4701 68.6046C83.6201 68.6747 83.8501 68.6847 84.0701 68.6847C84.3701 68.6847 84.6701 68.6048 84.9001 68.5347C85.1301 68.3847 85.4301 68.2346 85.5801 68.0845L83.7802 66.2032C83.6302 66.2833 83.5501 66.3533 83.4001 66.4333C83.2501 66.5134 83.1701 66.5835 83.1001 66.7336C83.0201 66.8136 82.9501 66.9636 82.8701 67.1137C82.8701 67.1937 82.7902 67.344 82.7902 67.5642L82.7802 67.5441ZM85.1001 64.092C85.1001 63.8619 85.0201 63.7118 84.8701 63.5617C84.7201 63.4116 84.5701 63.3315 84.2701 63.3315C83.9701 63.3315 83.8202 63.4116 83.6702 63.5617C83.5202 63.7118 83.4401 63.9418 83.4401 64.1619C83.4401 64.5421 83.6701 64.9924 84.1201 65.3626C84.2701 65.2825 84.4201 65.2125 84.5001 65.1325C84.6501 65.0524 84.7302 64.9826 84.8002 64.8325C84.8802 64.7524 84.9502 64.6022 85.0302 64.4521C85.0302 64.3721 85.1101 64.2221 85.1101 64.072L85.1001 64.092Z" fill="#2D2D2B"/>
<path d="M93.8798 66.5735C93.9598 66.7236 94.1098 66.8735 94.2598 67.1037C94.4098 67.3338 94.5597 67.5541 94.7097 67.7843C94.8597 68.0144 95.0098 68.3146 95.1598 68.5347C95.3098 68.8349 95.4598 69.0651 95.5398 69.2852H94.5598C94.4098 69.0551 94.3298 68.8349 94.1798 68.5347C94.0298 68.3046 93.8797 68.0843 93.7297 67.8541C93.5797 67.624 93.4298 67.404 93.2798 67.2539C93.1298 67.0238 92.9798 66.8736 92.8998 66.7235H91.6198V69.2752H90.7197V62.8212C90.9497 62.7411 91.2498 62.741 91.5498 62.671H92.4497C93.3497 62.671 94.0298 62.8211 94.5498 63.2013C95.0698 63.5816 95.2998 64.0319 95.2998 64.7824C95.2998 65.2327 95.1498 65.6128 94.9198 65.913C94.6898 66.2132 94.3198 66.4435 93.8698 66.5936L93.8798 66.5735ZM92.5298 63.4915H91.6298V65.9731H92.3098C92.6098 65.9731 92.9098 65.973 93.1398 65.8929C93.3698 65.8929 93.5897 65.813 93.7397 65.743C93.8897 65.6629 94.0398 65.5127 94.1198 65.3626C94.1998 65.2125 94.2698 64.9825 94.2698 64.7624C94.2698 64.5422 94.1898 64.312 94.1198 64.1619C94.0398 64.0118 93.8897 63.8618 93.7397 63.7818C93.5897 63.7017 93.3598 63.6317 93.1398 63.5516C92.9898 63.5516 92.7598 63.4715 92.5398 63.4715L92.5298 63.4915Z" fill="#2D2D2B"/>
<path d="M96.2803 66.8736C96.2803 66.4233 96.3603 66.0431 96.5103 65.743C96.6603 65.4428 96.8103 65.1425 97.0403 64.9124C97.2703 64.6822 97.4903 64.5322 97.7903 64.4621C98.0903 64.3921 98.3202 64.3121 98.6202 64.3121C99.3002 64.3121 99.7502 64.5421 100.12 64.9124C100.49 65.2826 100.65 65.9631 100.65 66.7937V67.0939H97.2703C97.3503 67.6242 97.4202 67.9944 97.7202 68.2245C97.9502 68.5247 98.4003 68.6046 98.9203 68.6046C99.2203 68.6046 99.5203 68.6048 99.6703 68.5247C99.9003 68.4447 100.05 68.4445 100.12 68.3745L100.27 69.125C100.19 69.205 99.9702 69.2752 99.7402 69.2752C99.5102 69.2752 99.1402 69.3551 98.8402 69.3551C98.3902 69.3551 98.0102 69.2751 97.7102 69.125C97.4102 68.9749 97.1102 68.825 96.9602 68.5948C96.7302 68.3647 96.5803 68.0644 96.5103 67.7642C96.3603 67.5341 96.2803 67.2338 96.2803 66.8635V66.8736ZM99.6603 66.3434C99.6603 65.9632 99.5802 65.5927 99.3602 65.3626C99.1302 65.1325 98.9103 64.9825 98.5303 64.9825C98.3003 64.9825 98.1502 65.0624 98.0002 65.1325C97.8502 65.2025 97.7002 65.2826 97.6202 65.4327C97.5402 65.5828 97.3903 65.7328 97.3903 65.8829C97.3103 66.033 97.3102 66.1832 97.2402 66.4133H99.6403V66.3334L99.6603 66.3434Z" fill="#2D2D2B"/>
<path d="M101.84 64.5423C102.07 64.4622 102.291 64.4621 102.671 64.392C102.971 64.312 103.421 64.3121 103.801 64.3121C104.181 64.3121 104.481 64.3921 104.781 64.4621C105.011 64.5422 105.23 64.7623 105.38 64.9124C105.53 65.1425 105.611 65.3628 105.681 65.593C105.761 65.8932 105.76 66.1932 105.76 66.4934V69.2752H104.86V66.7236C104.86 66.4234 104.861 66.1932 104.781 65.9731C104.701 65.7529 104.701 65.5928 104.551 65.4427C104.471 65.2926 104.321 65.2125 104.171 65.1425C104.021 65.0724 103.79 65.0626 103.57 65.0626H102.59V69.1951H101.69V64.5423H101.84Z" fill="#2D2D2B"/>
<path d="M106.94 66.8736C106.94 66.4233 107.021 66.0431 107.171 65.743C107.321 65.4428 107.47 65.1425 107.7 64.9124C107.93 64.6822 108.15 64.5322 108.45 64.4621C108.75 64.3921 108.981 64.3121 109.281 64.3121C109.961 64.3121 110.411 64.5421 110.781 64.9124C111.151 65.2826 111.311 65.9631 111.311 66.7937V67.0939H107.931C108.011 67.6242 108.08 67.9944 108.38 68.2245C108.61 68.5247 109.06 68.6046 109.58 68.6046C109.88 68.6046 110.18 68.6048 110.33 68.5247C110.56 68.4447 110.711 68.4445 110.781 68.3745L110.931 69.125C110.851 69.205 110.631 69.2752 110.401 69.2752C110.101 69.3553 109.8 69.3551 109.5 69.3551C109.05 69.3551 108.67 69.2751 108.37 69.125C108.07 68.9749 107.77 68.825 107.62 68.5948C107.39 68.3647 107.241 68.0644 107.171 67.7642C107.021 67.5341 106.94 67.2338 106.94 66.8635V66.8736ZM110.311 66.3434C110.311 65.9632 110.23 65.5927 110.01 65.3626C109.78 65.1325 109.561 64.9825 109.181 64.9825C108.951 64.9825 108.801 65.0624 108.651 65.1325C108.501 65.2025 108.351 65.2826 108.271 65.4327C108.191 65.5828 108.041 65.7328 108.041 65.8829C107.961 66.033 107.961 66.1832 107.891 66.4133H110.291V66.3334L110.311 66.3434Z" fill="#2D2D2B"/>
<path d="M116.47 69.2752C116.32 68.8249 116.09 68.2945 115.94 67.6941C115.71 67.0938 115.561 66.4933 115.411 65.893C115.261 66.4933 115.03 67.0938 114.88 67.6941C114.65 68.2945 114.5 68.8249 114.35 69.2752H113.6C113.3 68.5948 113.001 67.9244 112.771 67.0939C112.541 66.2634 112.241 65.3626 112.021 64.392H113C113.08 64.6922 113.15 64.9924 113.23 65.3726C113.31 65.7529 113.381 66.0531 113.531 66.4233C113.611 66.8036 113.76 67.1037 113.83 67.4039C113.91 67.7041 114.06 68.0044 114.13 68.2345C114.21 67.9343 114.361 67.6342 114.431 67.3341C114.511 67.0339 114.66 66.6534 114.73 66.3532C114.81 66.053 114.881 65.6728 115.031 65.3726C115.111 65.0724 115.18 64.7723 115.26 64.4722H116.01C116.09 64.7723 116.16 65.0724 116.24 65.3726C116.32 65.6728 116.391 66.053 116.541 66.3532C116.621 66.6534 116.77 67.0339 116.84 67.3341C116.92 67.6342 117.071 68.0144 117.141 68.2345C117.221 68.0044 117.37 67.7041 117.44 67.4039C117.52 67.1037 117.67 66.7235 117.74 66.4233C117.82 66.0431 117.971 65.7429 118.041 65.3726C118.121 64.9924 118.191 64.6922 118.271 64.392H119.171C118.941 65.3726 118.641 66.2734 118.421 67.0939C118.191 67.9244 117.89 68.6748 117.59 69.2752H116.46H116.47Z" fill="#2D2D2B"/>
<path d="M121.34 64.3221C121.72 64.3221 122.02 64.4021 122.24 64.4721C122.46 64.5422 122.69 64.7022 122.84 64.8523C122.99 65.0024 123.07 65.2326 123.14 65.4527C123.22 65.6829 123.22 65.903 123.22 66.2032V69.2852C123.14 69.2852 123.07 69.285 122.92 69.3651C122.77 69.3651 122.62 69.4452 122.47 69.4452C122.32 69.4452 122.09 69.4453 121.94 69.5254H121.34C121.04 69.5254 120.81 69.5253 120.59 69.4452C120.37 69.3652 120.14 69.2951 119.99 69.145C119.84 68.9949 119.69 68.8448 119.61 68.6948C119.53 68.4646 119.46 68.2445 119.46 67.9443C119.46 67.6441 119.54 67.414 119.61 67.2639C119.69 67.0338 119.84 66.8837 120.06 66.8137C120.29 66.6636 120.44 66.5835 120.74 66.5135C120.97 66.4334 121.27 66.4333 121.57 66.4333H122.17C122.25 66.4333 122.32 66.4334 122.4 66.5135H122.55V66.2833C122.55 66.1332 122.55 65.9832 122.47 65.8331C122.47 65.683 122.39 65.5328 122.32 65.4527C122.24 65.3727 122.09 65.2225 122.02 65.1525C121.87 65.0724 121.72 65.0726 121.49 65.0726C121.19 65.0726 120.96 65.0724 120.74 65.1525C120.52 65.2325 120.36 65.2327 120.29 65.3027L120.21 64.5523C120.36 64.4722 120.51 64.4721 120.81 64.402C120.73 64.322 121.04 64.3221 121.34 64.3221ZM121.42 68.6747H121.95C122.1 68.6747 122.25 68.6749 122.33 68.5948V67.1638C122.25 67.1638 122.18 67.0839 122.03 67.0839H121.05C120.9 67.0839 120.75 67.1638 120.67 67.2339C120.52 67.3139 120.44 67.384 120.37 67.464C120.29 67.5441 120.22 67.6943 120.22 67.8444C120.22 68.1446 120.3 68.3746 120.52 68.5247C120.82 68.6048 121.12 68.6747 121.42 68.6747Z" fill="#2D2D2B"/>
<path d="M125.55 64.6221C125.63 64.5421 125.85 64.4721 126 64.392C126.23 64.312 126.45 64.242 126.75 64.242C127.13 64.242 127.43 64.322 127.65 64.4721C127.95 64.6222 128.18 64.7724 128.33 65.0025C128.56 65.2326 128.63 65.5329 128.78 65.8331C128.86 66.1333 128.93 66.5133 128.93 66.8836C128.93 67.2538 128.85 67.6341 128.78 67.9343C128.63 68.2345 128.48 68.5347 128.25 68.7649C128.02 68.995 127.8 69.1451 127.5 69.2952C127.2 69.4453 126.82 69.4452 126.45 69.4452C126.08 69.4452 125.7 69.4451 125.4 69.3651C125.1 69.285 124.8 69.2151 124.65 69.2151V62.2307L125.55 62.0807V64.6322V64.6221ZM125.55 68.5247C125.63 68.5247 125.78 68.6046 125.93 68.6046H126.53C126.98 68.6046 127.36 68.4546 127.66 68.1544C127.96 67.8542 128.11 67.4041 128.11 66.8037C128.11 66.5735 128.11 66.3532 128.03 66.1231C127.95 65.8929 127.88 65.743 127.8 65.5228C127.65 65.3728 127.57 65.2225 127.35 65.1425C127.2 65.0624 126.97 64.9925 126.67 64.9925C126.44 64.9925 126.22 65.0724 125.99 65.1425C125.76 65.2225 125.61 65.2926 125.54 65.3726V68.5247H125.55Z" fill="#2D2D2B"/>
<path d="M131.7 69.4252C131.17 69.4252 130.8 69.2752 130.57 69.0451C130.34 68.8149 130.19 68.5147 130.19 67.9944V62.1406L131.09 61.9906V67.8444C131.09 67.9945 131.091 68.1444 131.171 68.2245C131.171 68.3045 131.25 68.3746 131.32 68.4546C131.4 68.5347 131.471 68.5346 131.551 68.6046C131.631 68.6046 131.781 68.6847 131.931 68.6847L131.7 69.4352V69.4252Z" fill="#2D2D2B"/>
<path d="M132.521 66.8736C132.521 66.4233 132.6 66.0431 132.75 65.743C132.9 65.4428 133.051 65.1425 133.281 64.9124C133.511 64.6822 133.731 64.5322 134.031 64.4621C134.331 64.3921 134.56 64.3121 134.86 64.3121C135.54 64.3121 135.99 64.5421 136.36 64.9124C136.73 65.2826 136.891 65.9631 136.891 66.7937V67.0939H133.51C133.59 67.6242 133.66 67.9944 133.96 68.2245C134.19 68.5247 134.641 68.6046 135.161 68.6046C135.461 68.6046 135.761 68.6048 135.911 68.5247C136.141 68.4447 136.29 68.4445 136.36 68.3745L136.51 69.125C136.43 69.205 136.21 69.2752 135.98 69.2752C135.75 69.2752 135.38 69.3551 135.08 69.3551C134.63 69.3551 134.25 69.2751 133.95 69.125C133.65 68.9749 133.35 68.825 133.2 68.5948C132.97 68.3647 132.82 68.0644 132.75 67.7642C132.6 67.5341 132.521 67.2338 132.521 66.8635V66.8736ZM135.901 66.3434C135.901 65.9632 135.82 65.5927 135.6 65.3626C135.37 65.1325 135.151 64.9825 134.771 64.9825C134.541 64.9825 134.39 65.0624 134.24 65.1325C134.09 65.2025 133.94 65.2826 133.86 65.4327C133.78 65.5828 133.63 65.7328 133.63 65.8829C133.55 66.033 133.55 66.1832 133.48 66.4133H135.88V66.3334L135.901 66.3434Z" fill="#2D2D2B"/>
<path d="M140.25 69.2752V62.7411H144.23V63.4916H141.15V65.4427H143.85V66.1932H141.15V68.4446H144.45V69.1951H140.25V69.2752Z" fill="#2D2D2B"/>
<path d="M145.58 64.5423C145.81 64.4622 146.03 64.4621 146.41 64.392C146.71 64.312 147.16 64.3121 147.54 64.3121C147.92 64.3121 148.22 64.3921 148.52 64.4621C148.75 64.5422 148.97 64.7623 149.12 64.9124C149.27 65.1425 149.35 65.3628 149.42 65.593C149.5 65.8932 149.5 66.1932 149.5 66.4934V69.2752H148.6V66.7236C148.6 66.4234 148.6 66.1932 148.52 65.9731C148.44 65.7529 148.44 65.5928 148.29 65.4427C148.21 65.2926 148.06 65.2125 147.91 65.1425C147.76 65.0724 147.53 65.0626 147.31 65.0626H146.33V69.1951H145.43V64.5423H145.58Z" fill="#2D2D2B"/>
<path d="M150.68 66.8736C150.68 66.4233 150.76 66.0431 150.91 65.743C151.06 65.4428 151.21 65.1425 151.44 64.9124C151.67 64.6822 151.89 64.5322 152.19 64.4621C152.49 64.3921 152.72 64.3121 153.02 64.3121C153.7 64.3121 154.15 64.5421 154.52 64.9124C154.89 65.2826 155.05 65.9631 155.05 66.7937V67.0939H151.67C151.75 67.6242 151.82 67.9944 152.12 68.2245C152.35 68.5247 152.8 68.6046 153.32 68.6046C153.62 68.6046 153.92 68.6048 154.07 68.5247C154.3 68.4447 154.45 68.4445 154.52 68.3745L154.67 69.125C154.59 69.205 154.37 69.2752 154.14 69.2752C153.91 69.2752 153.54 69.3551 153.24 69.3551C152.79 69.3551 152.41 69.2751 152.11 69.125C151.81 68.9749 151.51 68.825 151.36 68.5948C151.13 68.3647 150.98 68.0644 150.91 67.7642C150.76 67.5341 150.68 67.2338 150.68 66.8635V66.8736ZM154.06 66.3434C154.06 65.9632 153.98 65.5927 153.76 65.3626C153.53 65.1325 153.31 64.9825 152.93 64.9825C152.7 64.9825 152.55 65.0624 152.4 65.1325C152.25 65.2025 152.1 65.2826 152.02 65.4327C151.94 65.5828 151.79 65.7328 151.79 65.8829C151.71 66.033 151.71 66.1832 151.64 66.4133H154.04V66.3334L154.06 66.3434Z" fill="#2D2D2B"/>
<path d="M158.04 64.3221H158.27C158.35 64.3221 158.5 64.322 158.57 64.402C158.65 64.402 158.72 64.4021 158.8 64.4822C158.88 64.4822 158.95 64.4822 158.95 64.5623L158.8 65.3128C158.72 65.3128 158.65 65.2326 158.42 65.2326C158.27 65.2326 158.04 65.1525 157.82 65.1525C157.67 65.1525 157.52 65.1526 157.37 65.2326C157.22 65.2326 157.07 65.3128 157.07 65.3128V69.4452H156.17V64.7924C156.4 64.7124 156.62 64.6423 156.92 64.5623C157.3 64.3321 157.67 64.3322 158.05 64.3322L158.04 64.3221Z" fill="#2D2D2B"/>
<path d="M162.91 68.825C162.83 68.905 162.68 68.9751 162.46 69.0551C162.23 69.1352 162.01 69.2051 161.71 69.2051C161.41 69.2051 161.11 69.1251 160.88 69.0551C160.65 68.9851 160.43 68.8248 160.2 68.6046C159.97 68.3745 159.82 68.1543 159.75 67.8542C159.6 67.554 159.6 67.1739 159.6 66.8037C159.6 66.4335 159.68 66.1233 159.75 65.8231C159.83 65.5229 159.98 65.2928 160.2 65.0726C160.42 64.8525 160.65 64.6924 160.95 64.5423C161.25 64.3922 161.55 64.392 161.93 64.392C162.31 64.392 162.68 64.3921 162.98 64.4722C163.28 64.5522 163.51 64.6222 163.73 64.6222V68.975C163.73 69.7254 163.5 70.2557 163.13 70.6259C162.76 70.9961 162.15 71.1563 161.33 71.1563C161.03 71.1563 160.73 71.1564 160.43 71.0764C160.13 70.9963 159.9 70.9962 159.75 70.9261L159.9 70.1757C160.05 70.2557 160.28 70.3259 160.58 70.3259C160.81 70.406 161.11 70.4058 161.41 70.4058C161.94 70.4058 162.31 70.3257 162.54 70.1056C162.77 69.8854 162.92 69.5753 162.92 69.125V68.825H162.91ZM162.91 65.1425C162.83 65.1425 162.68 65.0626 162.53 65.0626H161.93C161.48 65.0626 161.1 65.2127 160.88 65.5128C160.65 65.813 160.5 66.2633 160.5 66.7136C160.5 67.0137 160.5 67.2439 160.58 67.464C160.66 67.6842 160.73 67.8443 160.88 67.9944C161.03 68.1445 161.18 68.2246 161.33 68.2946C161.48 68.3747 161.63 68.3745 161.86 68.3745C162.09 68.3745 162.31 68.3747 162.54 68.2946C162.77 68.2146 162.92 68.1445 162.99 68.0645V65.1325H162.91V65.1425Z" fill="#2D2D2B"/>
<path d="M164.71 70.1757C164.79 70.1757 164.86 70.2558 165.01 70.2558C165.09 70.2558 165.241 70.3359 165.311 70.3359C165.691 70.3359 165.911 70.2556 166.141 70.1055C166.371 69.9554 166.521 69.7253 166.671 69.3551C166.291 68.6046 165.921 67.7742 165.541 66.9537C165.161 66.1231 164.94 65.2225 164.71 64.402H165.69C165.77 64.7022 165.841 65.0025 165.921 65.3027C166.001 65.6029 166.15 65.9831 166.22 66.2833C166.37 66.6636 166.45 66.9638 166.6 67.334C166.75 67.7043 166.901 68.0144 167.051 68.3146C167.281 67.6342 167.501 67.0336 167.651 66.3632C167.801 65.6928 168.031 65.0826 168.181 64.3322H169.08C168.85 65.2327 168.63 66.1332 168.33 66.9637C168.03 67.7942 167.731 68.6146 167.431 69.3651C167.281 69.6653 167.201 69.8954 167.051 70.1156C166.901 70.3357 166.75 70.4958 166.6 70.6459C166.45 70.796 166.22 70.8761 166.07 70.9462C165.84 71.0262 165.621 71.0263 165.391 71.0263H164.94C164.86 71.0263 164.79 71.0262 164.71 70.9462C164.657 70.9462 164.607 70.9194 164.561 70.866L164.71 70.1857V70.1757Z" fill="#2D2D2B"/>
<path d="M67.8402 49.7529C67.6902 50.0531 67.4603 50.3533 67.3103 50.7335C67.0803 51.1138 66.9302 51.4839 66.7102 51.9342C66.4802 52.3145 66.3302 52.7647 66.1102 53.1349C65.9602 53.5152 65.7302 53.8855 65.5802 54.2658C65.4302 53.8855 65.2803 53.5852 65.0503 53.1349C64.9003 52.7547 64.6702 52.3045 64.4502 51.9342C64.2302 51.564 64.0702 51.1038 63.8502 50.7335C63.6302 50.3633 63.4702 50.0531 63.3202 49.7529H62.4902C62.4102 50.2032 62.4102 50.7335 62.3402 51.2539C62.2702 51.7742 62.2602 52.3044 62.1902 52.9048C62.1102 53.4351 62.1102 54.0355 62.1102 54.6359C62.1102 55.2362 62.0303 55.7666 62.0303 56.3669H62.9303C62.9303 55.4664 63.0102 54.636 63.0802 53.7354C63.1602 52.9049 63.1602 52.0845 63.2302 51.334C63.3102 51.414 63.3802 51.5641 63.4602 51.7842C63.5402 52.0144 63.6903 52.2344 63.7603 52.4646C63.9103 52.6947 63.9903 52.995 64.1403 53.2952C64.2903 53.5954 64.3703 53.8254 64.5203 54.1255C64.6703 54.4257 64.7502 54.6559 64.8202 54.876C64.8902 55.0961 64.9703 55.3264 65.0503 55.4765H65.8003C65.8803 55.3264 65.9503 55.0961 66.0303 54.876C66.1103 54.6459 66.2602 54.4257 66.3302 54.1255C66.4802 53.8254 66.5602 53.5954 66.7102 53.2952C66.8602 52.995 66.9402 52.7648 67.0902 52.4646C67.2402 52.2344 67.3203 52.0144 67.3903 51.7842C67.4603 51.5541 67.5402 51.404 67.6202 51.334C67.7002 52.0845 67.7703 52.9149 67.7703 53.7354C67.8503 54.5659 67.8503 55.4664 67.9203 56.3669H68.8202C68.7402 54.1155 68.5202 51.9344 68.3702 49.8331H67.8402V49.7529Z" fill="#2D2D2B"/>
<path d="M76.4004 51.9342C76.2504 51.7041 76.0204 51.554 75.8004 51.484C75.5804 51.4139 75.2003 51.334 74.8203 51.334C74.3703 51.334 73.9903 51.3338 73.6903 51.4139C73.3903 51.4939 73.0904 51.4941 72.8604 51.5641V56.2971H73.7604V52.1643H74.7404C74.9704 52.1643 75.1903 52.1644 75.3403 52.2445C75.4903 52.3245 75.6403 52.3946 75.7203 52.5447C75.8003 52.6948 75.8703 52.8449 75.9503 53.0751C76.0303 53.3052 76.0304 53.5253 76.0304 53.8255V56.3769H76.9304V53.5952C76.9304 53.295 76.9303 52.9949 76.8503 52.6947C76.6203 52.3945 76.5504 52.0943 76.4004 51.9442V51.9342Z" fill="#2D2D2B"/>
<path d="M83.3004 54.0356C83.1504 53.8855 83.0003 53.8054 82.8503 53.7354C82.7003 53.6654 82.4704 53.5853 82.2504 53.5053C82.1004 53.4252 81.9504 53.355 81.8004 53.355C81.6504 53.275 81.5704 53.205 81.5004 53.205L81.2704 52.9749C81.1904 52.8949 81.1903 52.8248 81.1903 52.6747C81.1903 52.4445 81.2704 52.2945 81.4904 52.2244C81.6404 52.1444 81.8704 52.0745 82.1704 52.0745C82.4704 52.0745 82.7004 52.0743 82.9204 52.1543C83.1404 52.2344 83.3004 52.2345 83.3704 52.3046L83.5204 51.5541C83.4404 51.5541 83.3704 51.474 83.2904 51.474C83.2104 51.474 83.0604 51.3938 82.9904 51.3938C82.8404 51.3938 82.7604 51.314 82.6104 51.314H82.1604C81.6304 51.314 81.1804 51.4639 80.8804 51.6941C80.5804 51.9242 80.4304 52.2945 80.4304 52.7448C80.4304 52.9749 80.5103 53.1251 80.5803 53.2752C80.6503 53.4252 80.7304 53.5752 80.8804 53.6553C81.0304 53.7353 81.1803 53.8855 81.3303 53.9555C81.4803 54.0256 81.7104 54.1056 81.8604 54.1856C82.2404 54.3357 82.5403 54.4858 82.6903 54.6359C82.8403 54.786 82.9204 54.9361 82.9204 55.1662C82.9204 55.3964 82.8403 55.5464 82.6903 55.6165C82.5403 55.6965 82.2404 55.7667 81.8604 55.7667C81.4804 55.7667 81.1803 55.6865 80.9603 55.6165C80.7303 55.5364 80.5804 55.4665 80.5104 55.4665L80.3604 56.2169C80.4404 56.2169 80.5904 56.2969 80.8904 56.3669C81.1204 56.447 81.4903 56.4471 81.9403 56.4471C82.5403 56.4471 83.0704 56.2971 83.3704 56.0669C83.6704 55.8368 83.9004 55.4665 83.9004 55.0162C83.9004 54.7861 83.9003 54.5659 83.8203 54.4158C83.5203 54.2657 83.4404 54.1157 83.2904 54.0356H83.3004Z" fill="#2D2D2B"/>
<path d="M87.1307 55.5366C86.9807 55.6166 86.7508 55.6165 86.5308 55.6165C86.3808 55.6165 86.2308 55.6166 86.1508 55.5366C86.0008 55.5366 85.9207 55.4566 85.8507 55.3065C85.7707 55.2264 85.7007 55.0762 85.7007 54.9261C85.7007 54.776 85.6207 54.546 85.6207 54.3259V52.0745H87.5007V51.324H85.6207V49.8231L84.7207 49.9731V54.3259C84.7207 54.6261 84.7208 54.9261 84.8008 55.1562C84.8808 55.3864 84.9507 55.6066 85.1007 55.7567C85.2507 55.9068 85.4007 56.0568 85.6307 56.1368C85.8607 56.2169 86.1607 56.2871 86.4607 56.2871C86.7607 56.2871 86.9907 56.287 87.2107 56.2069C87.4307 56.1269 87.5908 56.0569 87.6608 56.0569L87.5107 55.3065C87.4307 55.4566 87.3607 55.4565 87.1307 55.5366Z" fill="#2D2D2B"/>
<path d="M90.9598 51.334C90.8798 51.334 90.7299 51.3339 90.6599 51.2538H90.4299C90.0499 51.2538 89.6799 51.2539 89.3799 51.334C89.0799 51.414 88.7799 51.484 88.6299 51.5641V56.2169H89.5299V52.0844C89.6099 52.0844 89.6798 52.0844 89.8298 52.0043C89.9798 52.0043 90.1299 51.9242 90.2799 51.9242C90.5099 51.9242 90.7299 51.9243 90.8799 52.0043C91.0299 52.0043 91.1799 52.0844 91.2599 52.0844L91.4099 51.334C91.3566 51.334 91.3066 51.3072 91.2599 51.2538C91.1099 51.4039 91.0298 51.334 90.9598 51.334Z" fill="#2D2D2B"/>
<path d="M94.7805 53.355C94.6305 54.0355 94.4005 54.636 94.1805 55.3065C94.0305 55.0063 93.8805 54.626 93.7305 54.3259C93.5805 53.9456 93.4305 53.6454 93.3505 53.2752C93.2005 52.8949 93.1205 52.5947 93.0505 52.2946C92.9805 51.9944 92.9004 51.694 92.8204 51.3938H91.8405C92.0705 52.2944 92.3705 53.125 92.6705 53.9455C93.0505 54.776 93.3505 55.5964 93.8005 56.3469C93.6505 56.7271 93.5005 56.9473 93.2705 57.0974C93.0405 57.2475 92.8204 57.3277 92.4404 57.3277C92.3604 57.3277 92.2105 57.3277 92.1405 57.2476C92.0605 57.2476 91.9105 57.1675 91.8405 57.1675L91.6904 57.8478C91.6904 57.8478 91.7705 57.8479 91.8405 57.928C91.9205 57.928 91.9904 57.928 92.0704 58.0081H92.5205C92.7505 58.0081 92.9704 58.008 93.2004 57.928C93.4304 57.8479 93.5805 57.7778 93.7305 57.6277C93.8805 57.4776 94.0305 57.3275 94.1805 57.0974C94.3305 56.8672 94.4805 56.6471 94.5605 56.3469C94.8605 55.5964 95.1604 54.8461 95.4604 53.9455C95.7604 53.115 95.9904 52.2145 96.2104 51.314H95.3105C95.0805 52.0644 94.9305 52.7446 94.7805 53.345V53.355Z" fill="#2D2D2B"/>
<path d="M102.89 52.0043C102.66 51.7742 102.44 51.6241 102.14 51.474C101.84 51.3239 101.54 51.324 101.24 51.324C100.94 51.324 100.56 51.4039 100.34 51.474C100.04 51.6241 99.8102 51.7742 99.5902 52.0043C99.3602 52.2345 99.2103 52.5347 99.1403 52.8349C98.9903 53.1351 98.9902 53.5152 98.9902 53.8854C98.9902 54.2556 99.0703 54.6359 99.1403 54.9361C99.2903 55.2363 99.4402 55.5366 99.5902 55.7667C99.8202 55.9968 100.04 56.147 100.34 56.2971C100.64 56.4472 100.94 56.4471 101.24 56.4471C101.54 56.4471 101.92 56.3671 102.14 56.2971C102.44 56.147 102.67 55.9968 102.89 55.7667C103.12 55.5366 103.27 55.2363 103.34 54.9361C103.49 54.6359 103.49 54.2556 103.49 53.8854C103.49 53.5152 103.41 53.1351 103.34 52.8349C103.26 52.4547 103.11 52.2345 102.89 52.0043ZM102.29 55.1562C102.06 55.4564 101.69 55.6064 101.31 55.6064C100.86 55.6064 100.56 55.4564 100.33 55.1562C100.1 54.856 99.9502 54.4057 99.9502 53.8754C99.9502 53.345 100.1 52.8947 100.33 52.5945C100.56 52.2944 100.93 52.1443 101.31 52.1443C101.76 52.1443 102.06 52.2944 102.29 52.5945C102.52 52.8947 102.67 53.345 102.67 53.8754C102.67 54.4057 102.52 54.856 102.29 55.1562Z" fill="#2D2D2B"/>
<path d="M105.89 50.0531C106.04 49.823 106.34 49.7529 106.72 49.7529C106.95 49.7529 107.1 49.753 107.25 49.833C107.4 49.833 107.48 49.9129 107.55 49.9129L107.7 49.1625C107.62 49.1625 107.47 49.0826 107.32 49.0826C107.17 49.0025 106.94 49.0024 106.64 49.0024C105.96 49.0024 105.51 49.1526 105.21 49.5328C104.91 49.913 104.76 50.3633 104.76 50.9636V51.4139H104.01V52.1643H104.76V56.297H105.66V52.1643H107.54V51.4139H105.66V50.9636C105.66 50.5834 105.74 50.2833 105.89 50.0632V50.0531Z" fill="#2D2D2B"/>
<path d="M111.59 53.2852H114.29V52.4546H111.59V50.5835H114.59V49.7529H110.61V56.287H114.89V55.5366H111.59V53.2852Z" fill="#2D2D2B"/>
<path d="M116.99 55.4564C116.91 55.3764 116.91 55.3064 116.84 55.2263C116.84 55.1463 116.76 54.996 116.76 54.8459V48.9924L115.86 49.1424V54.9962C115.86 55.4465 116.01 55.8268 116.24 56.0469C116.47 56.267 116.84 56.347 117.37 56.427L117.52 55.6765C117.37 55.6765 117.29 55.5964 117.14 55.5964C117.06 55.5164 116.99 55.5165 116.99 55.4464V55.4564Z" fill="#2D2D2B"/>
<path d="M120.441 51.2538C120.141 51.2538 119.911 51.3338 119.611 51.4038C119.311 51.4739 119.081 51.704 118.861 51.8541C118.631 52.0842 118.481 52.3044 118.331 52.6847C118.181 52.9849 118.101 53.3652 118.101 53.8155C118.101 54.1957 118.181 54.4957 118.251 54.866C118.331 55.1662 118.481 55.4664 118.701 55.6966C118.931 55.9267 119.151 56.0768 119.451 56.2269C119.751 56.377 120.131 56.4571 120.581 56.4571C120.961 56.4571 121.261 56.457 121.481 56.3769C121.781 56.2969 121.931 56.2269 122.011 56.2269L121.861 55.4765C121.781 55.5565 121.561 55.5564 121.411 55.6265C121.181 55.7065 120.961 55.7066 120.661 55.7066C120.131 55.7066 119.681 55.5566 119.461 55.3265C119.231 55.0263 119.081 54.6459 119.011 54.1956H122.391V53.8954C122.391 53.0649 122.241 52.3946 121.861 52.0143C121.631 51.484 121.111 51.2639 120.431 51.2639L120.441 51.2538ZM119.171 53.355C119.171 53.2049 119.251 53.055 119.321 52.8249C119.401 52.6748 119.471 52.5245 119.551 52.3744C119.631 52.2243 119.781 52.1445 119.931 52.0744C120.081 52.0044 120.231 51.9242 120.461 51.9242C120.841 51.9242 121.061 52.0744 121.291 52.3046C121.521 52.5347 121.591 52.9049 121.591 53.2851H119.191V53.365L119.171 53.355Z" fill="#2D2D2B"/>
<path d="M126.671 55.5366C126.441 55.6166 126.29 55.6165 126.07 55.6165C125.77 55.6165 125.54 55.5365 125.32 55.4665C125.1 55.3964 124.941 55.2365 124.791 55.0864C124.641 54.9363 124.56 54.706 124.49 54.4859C124.41 54.2557 124.411 54.0356 124.411 53.7354C124.411 53.135 124.561 52.6847 124.791 52.3845C125.021 52.0843 125.391 51.9342 125.921 51.9342C126.151 51.9342 126.3 51.9343 126.45 52.0144C126.6 52.0944 126.751 52.0943 126.901 52.1644L127.13 51.4139C126.9 51.3339 126.751 51.2639 126.531 51.2639C126.301 51.1839 126.08 51.1838 125.85 51.1838C125.47 51.1838 125.17 51.2638 124.87 51.4139C124.57 51.564 124.34 51.7141 124.12 51.9443C123.89 52.1744 123.741 52.4747 123.671 52.7749C123.601 53.075 123.521 53.4553 123.521 53.8256C123.521 54.1958 123.601 54.5758 123.671 54.876C123.751 55.1762 123.9 55.4765 124.12 55.7066C124.35 55.9368 124.57 56.0869 124.87 56.237C125.17 56.3871 125.551 56.4671 125.921 56.4671H126.301C126.451 56.4671 126.531 56.467 126.681 56.387C126.831 56.387 126.91 56.3071 126.98 56.3071C127.05 56.3071 127.13 56.227 127.21 56.227L127.061 55.4765C126.981 55.4765 126.831 55.5566 126.681 55.5566L126.671 55.5366Z" fill="#2D2D2B"/>
<path d="M130.5 55.5366C130.35 55.6166 130.12 55.6165 129.9 55.6165C129.75 55.6165 129.6 55.6166 129.52 55.5366C129.37 55.5366 129.29 55.4566 129.22 55.3065C129.14 55.2264 129.07 55.0762 129.07 54.9261C129.07 54.776 128.99 54.546 128.99 54.3259V52.0745H130.87V51.324H128.99V49.8231L128.09 49.9731V54.3259C128.09 54.6261 128.09 54.9261 128.17 55.1562C128.25 55.3864 128.32 55.6066 128.47 55.7567C128.62 55.9068 128.77 56.0568 129 56.1368C129.23 56.2169 129.53 56.2871 129.83 56.2871C130.13 56.2871 130.36 56.287 130.58 56.2069C130.8 56.1269 130.96 56.0569 131.03 56.0569L130.88 55.3065C130.8 55.4566 130.65 55.4565 130.5 55.5366Z" fill="#2D2D2B"/>
<path d="M134.25 51.334C134.17 51.334 134.02 51.3339 133.95 51.2538H133.72C133.34 51.2538 132.97 51.2539 132.67 51.334C132.37 51.414 132.07 51.484 131.92 51.5641V56.2169H132.82V52.0844C132.9 52.0844 132.97 52.0844 133.12 52.0043C133.27 52.0043 133.42 51.9242 133.57 51.9242C133.8 51.9242 134.02 51.9243 134.17 52.0043C134.32 52.0043 134.47 52.0844 134.55 52.0844L134.7 51.334C134.646 51.334 134.597 51.3072 134.55 51.2538C134.47 51.4039 134.4 51.334 134.25 51.334Z" fill="#2D2D2B"/>
<path d="M136.43 51.4039H135.53V56.2871H136.43V51.4039Z" fill="#2D2D2B"/>
<path d="M140.78 55.5366C140.55 55.6166 140.4 55.6165 140.18 55.6165C139.88 55.6165 139.65 55.5365 139.43 55.4665C139.21 55.3964 139.05 55.2365 138.9 55.0864C138.75 54.9363 138.67 54.706 138.6 54.4859C138.52 54.2557 138.52 54.0356 138.52 53.7354C138.52 53.135 138.67 52.6847 138.9 52.3845C139.13 52.0843 139.5 51.9342 140.03 51.9342C140.26 51.9342 140.41 51.9343 140.56 52.0144C140.71 52.0944 140.86 52.0943 141.01 52.1644L141.24 51.4139C141.01 51.3339 140.86 51.2639 140.64 51.2639C140.41 51.1839 140.19 51.1838 139.96 51.1838C139.58 51.1838 139.28 51.2638 138.98 51.4139C138.68 51.564 138.45 51.7141 138.23 51.9443C138 52.1744 137.85 52.4747 137.78 52.7749C137.71 53.075 137.63 53.4553 137.63 53.8256C137.63 54.1958 137.71 54.5758 137.78 54.876C137.86 55.1762 138.01 55.4765 138.23 55.7066C138.46 55.9368 138.68 56.0869 138.98 56.237C139.28 56.3871 139.66 56.4671 140.03 56.4671H140.41C140.56 56.4671 140.64 56.467 140.79 56.387C140.94 56.387 141.02 56.3071 141.09 56.3071C141.16 56.3071 141.24 56.227 141.32 56.227L141.17 55.4765C141.17 55.4765 141.02 55.5566 140.79 55.5566L140.78 55.5366Z" fill="#2D2D2B"/>
<path d="M143.18 51.4039H142.28V56.2871H143.18V51.4039Z" fill="#2D2D2B"/>
<path d="M147.011 55.5366C146.861 55.6166 146.631 55.6165 146.411 55.6165C146.261 55.6165 146.111 55.6166 146.031 55.5366C145.881 55.5366 145.801 55.4566 145.731 55.3065C145.651 55.2264 145.581 55.0762 145.581 54.9261C145.581 54.776 145.501 54.546 145.501 54.3259V52.0745H147.381V51.324H145.501V49.8231L144.601 49.9731V54.3259C144.601 54.6261 144.601 54.9261 144.681 55.1562C144.761 55.3864 144.831 55.6066 144.981 55.7567C145.131 55.9068 145.281 56.0568 145.511 56.1368C145.741 56.2169 146.041 56.2871 146.341 56.2871C146.641 56.2871 146.871 56.287 147.091 56.2069C147.311 56.1269 147.471 56.0569 147.541 56.0569L147.391 55.3065C147.311 55.4566 147.161 55.4565 147.011 55.5366Z" fill="#2D2D2B"/>
<path d="M150.83 53.355C150.68 54.0355 150.45 54.636 150.23 55.3065C150.08 55.0063 149.93 54.626 149.78 54.3259C149.63 53.9456 149.48 53.6454 149.4 53.2752C149.25 52.8949 149.17 52.5947 149.1 52.2946C149.02 51.9944 148.95 51.694 148.87 51.3938H147.89C148.12 52.2944 148.42 53.125 148.72 53.9455C149.1 54.776 149.4 55.5964 149.85 56.3469C149.7 56.7271 149.55 56.9473 149.32 57.0974C149.09 57.2475 148.87 57.3277 148.49 57.3277C148.41 57.3277 148.26 57.3277 148.19 57.2476C148.11 57.2476 147.96 57.1675 147.89 57.1675L147.74 57.8478C147.74 57.8478 147.82 57.8479 147.89 57.928C147.97 57.928 148.04 57.928 148.12 58.0081H148.57C148.8 58.0081 149.02 58.008 149.25 57.928C149.48 57.8479 149.63 57.7778 149.78 57.6277C149.93 57.4776 150.08 57.3275 150.23 57.0974C150.38 56.8672 150.53 56.6471 150.61 56.3469C150.91 55.5964 151.21 54.8461 151.51 53.9455C151.81 53.115 152.04 52.2145 152.26 51.314H151.28C151.13 52.0644 150.98 52.7446 150.83 53.345V53.355Z" fill="#2D2D2B"/>
<path d="M159.61 54.9361C159.84 54.6359 159.91 54.3358 160.06 54.0357C160.14 53.7355 160.21 53.4352 160.29 53.2051L159.54 53.1249C159.46 53.5752 159.31 54.0256 159.09 54.4759L157.59 52.8948C157.74 52.8148 157.97 52.6646 158.12 52.5946C158.27 52.4445 158.42 52.3645 158.57 52.2144C158.72 52.0644 158.8 51.9143 158.87 51.7642C158.95 51.6141 158.95 51.3839 158.95 51.1637C158.95 50.9436 158.95 50.7835 158.87 50.6334C158.79 50.4833 158.72 50.3332 158.57 50.1831C158.42 50.033 158.27 49.953 158.04 49.8829C157.81 49.8129 157.59 49.7329 157.36 49.7329C157.13 49.7329 156.91 49.7328 156.68 49.8829C156.45 49.963 156.3 50.033 156.15 50.1831C156 50.3332 155.85 50.4834 155.77 50.7135C155.69 50.9436 155.62 51.1637 155.62 51.3939C155.62 51.9242 155.85 52.3747 156.3 52.8249C156.15 52.905 155.92 53.0549 155.77 53.1249C155.62 53.275 155.47 53.3552 155.32 53.5053C155.17 53.6554 155.09 53.8055 155.02 54.0357C154.94 54.2658 154.87 54.4158 154.87 54.716C154.87 54.9462 154.87 55.0963 154.95 55.3165C155.03 55.5366 155.1 55.6966 155.33 55.9167C155.48 56.0668 155.71 56.2169 156.01 56.3669C156.31 56.517 156.61 56.5172 157.06 56.5172C157.51 56.5172 157.89 56.4372 158.26 56.2871C158.64 56.137 158.86 55.9067 159.16 55.6866C159.31 55.8367 159.39 55.9869 159.54 56.067C159.62 56.217 159.77 56.297 159.84 56.4471H160.74C160.59 56.2169 160.44 55.9969 160.29 55.7667C160.06 55.3865 159.84 55.1663 159.61 54.9361ZM156.68 50.5835C156.83 50.4334 157.06 50.3532 157.28 50.3532C157.5 50.3532 157.73 50.4334 157.88 50.5835C158.03 50.7336 158.11 50.8835 158.11 51.1137C158.11 51.2638 158.11 51.414 158.03 51.5641C157.95 51.7142 157.88 51.7942 157.8 51.9443C157.72 52.0243 157.57 52.1744 157.5 52.2445C157.35 52.3245 157.27 52.3946 157.12 52.4746C156.67 52.0944 156.44 51.7242 156.44 51.2739C156.44 50.9737 156.52 50.7434 156.67 50.5933L156.68 50.5835ZM157.96 55.4565C157.73 55.6066 157.43 55.6065 157.13 55.6065C156.9 55.6065 156.68 55.6066 156.53 55.5266C156.38 55.4465 156.23 55.3764 156.15 55.2263C156.07 55.1463 156 54.9961 155.92 54.846C155.84 54.6959 155.84 54.6159 155.84 54.4659C155.84 54.2357 155.84 54.0856 155.92 53.9355C156 53.7854 156.07 53.6354 156.15 53.5554C156.23 53.4753 156.38 53.3252 156.45 53.2551C156.6 53.1751 156.68 53.1051 156.83 53.025L158.63 54.9061C158.48 55.2063 158.25 55.3564 157.95 55.4364L157.96 55.4565Z" fill="#2D2D2B"/>
<path d="M170.27 51.2539C170.19 51.7842 170.04 52.2344 169.97 52.6847C169.89 53.135 169.74 53.5853 169.67 54.0356C169.59 54.4859 169.44 54.866 169.37 55.1662C169.14 54.4858 168.84 53.8154 168.54 52.9849C168.24 52.2344 168.01 51.4039 167.71 50.5034H166.88C166.65 51.3339 166.35 52.1544 166.05 52.9849C165.75 53.7354 165.52 54.4858 165.22 55.1662C165.14 54.786 164.99 54.4158 164.92 53.9655C164.84 53.5152 164.69 53.1349 164.62 52.6146C164.54 52.1643 164.39 51.7141 164.32 51.1837C164.24 50.6534 164.17 50.2031 164.02 49.6828H163.04C163.27 50.9636 163.49 52.0843 163.72 53.1349C163.95 54.1856 164.25 55.2362 164.62 56.1368H165.52C165.82 55.4564 166.05 54.7861 166.35 54.0356C166.65 53.2852 166.88 52.5346 167.18 51.7041C167.48 52.5346 167.71 53.3552 168.01 54.0356C168.31 54.7861 168.54 55.4664 168.84 56.1368H169.74C170.04 55.1562 170.34 54.1856 170.64 53.1349C170.87 52.0843 171.17 50.8836 171.39 49.6828H170.49C170.41 50.2832 170.34 50.7335 170.26 51.2639L170.27 51.2539Z" fill="#2D2D2B"/>
<path d="M175.22 51.7842C175.07 51.6341 174.84 51.4839 174.62 51.4038C174.4 51.3238 174.09 51.2538 173.72 51.2538C173.42 51.2538 173.12 51.2539 172.89 51.334C172.59 51.414 172.44 51.4139 172.29 51.484L172.37 52.2344C172.45 52.1544 172.67 52.1545 172.82 52.0844C173.05 52.0044 173.27 52.0043 173.57 52.0043C173.8 52.0043 173.95 52.0044 174.1 52.0844C174.25 52.1645 174.33 52.2343 174.4 52.3844C174.48 52.4645 174.55 52.6147 174.55 52.7648C174.55 52.9149 174.63 53.0649 174.63 53.215V53.4452H174.48C174.4 53.4452 174.33 53.4451 174.25 53.365H173.65C173.35 53.365 173.12 53.3651 172.82 53.4452C172.59 53.5252 172.37 53.5953 172.14 53.7454C171.91 53.8955 171.84 54.0455 171.69 54.1956C171.61 54.4258 171.54 54.6458 171.54 54.876C171.54 55.1762 171.62 55.4063 171.69 55.6265C171.77 55.8566 171.92 56.0069 172.07 56.0769C172.22 56.227 172.45 56.3069 172.67 56.3769C172.89 56.447 173.12 56.4571 173.42 56.4571H174.02C174.25 56.4571 174.4 56.457 174.55 56.3769C174.7 56.3769 174.85 56.297 175 56.297C175.15 56.297 175.23 56.2169 175.3 56.2169V53.1349C175.3 52.8347 175.3 52.6046 175.22 52.3844C175.45 52.1543 175.37 51.9343 175.22 51.7842ZM174.77 55.6064C174.69 55.6064 174.54 55.6866 174.39 55.6866H173.86C173.48 55.6866 173.26 55.6066 173.03 55.5366C172.8 55.3865 172.73 55.1561 172.73 54.856C172.73 54.7059 172.81 54.5559 172.88 54.4758C172.96 54.3958 173.03 54.3258 173.18 54.2457C173.33 54.1657 173.41 54.1655 173.56 54.0955H174.54C174.69 54.0955 174.77 54.1756 174.84 54.1756V55.6064H174.76H174.77Z" fill="#2D2D2B"/>
<path d="M179.42 55.5366C179.27 55.6166 179.04 55.6165 178.82 55.6165C178.67 55.6165 178.52 55.6166 178.44 55.5366C178.29 55.5366 178.21 55.4566 178.14 55.3065C178.06 55.2264 177.99 55.0762 177.99 54.9261C177.99 54.776 177.91 54.546 177.91 54.3259V52.0745H179.79V51.324H177.91V49.8231L177.01 49.9731V54.3259C177.01 54.6261 177.01 54.9261 177.09 55.1562C177.17 55.3864 177.24 55.6066 177.39 55.7567C177.54 55.9068 177.69 56.0568 177.92 56.1368C178.15 56.2169 178.45 56.2871 178.75 56.2871C179.05 56.2871 179.28 56.287 179.5 56.2069C179.72 56.1269 179.88 56.0569 179.95 56.0569L179.8 55.3065C179.72 55.4566 179.57 55.4565 179.42 55.5366Z" fill="#2D2D2B"/>
<path d="M182.72 51.2538C182.42 51.2538 182.19 51.3338 181.89 51.4038C181.59 51.4839 181.36 51.704 181.14 51.8541C180.91 52.0842 180.76 52.3044 180.61 52.6847C180.46 52.9849 180.38 53.3652 180.38 53.8155C180.38 54.1957 180.46 54.4957 180.53 54.866C180.61 55.1662 180.76 55.4664 180.98 55.6966C181.21 55.9267 181.43 56.0768 181.73 56.2269C182.03 56.377 182.41 56.4571 182.86 56.4571C183.24 56.4571 183.54 56.457 183.76 56.3769C184.06 56.2969 184.21 56.2269 184.29 56.2269L184.14 55.4765C184.06 55.5565 183.84 55.5564 183.69 55.6265C183.46 55.7065 183.24 55.7066 182.94 55.7066C182.41 55.7066 181.96 55.5566 181.74 55.3265C181.51 55.0263 181.36 54.6459 181.29 54.1956H184.67V53.8954C184.67 53.0649 184.52 52.3946 184.14 52.0143C183.84 51.484 183.39 51.2639 182.71 51.2639L182.72 51.2538ZM181.45 53.355C181.45 53.2049 181.53 53.055 181.6 52.8249C181.68 52.6748 181.75 52.5245 181.83 52.3744C181.91 52.2243 182.06 52.1445 182.21 52.0744C182.36 52.0044 182.51 51.9242 182.74 51.9242C183.12 51.9242 183.34 52.0744 183.57 52.3046C183.8 52.5347 183.87 52.9049 183.87 53.2851H181.47V53.365L181.45 53.355Z" fill="#2D2D2B"/>
<path d="M188.65 51.4038C188.57 51.4038 188.5 51.404 188.42 51.324C188.34 51.324 188.19 51.3239 188.12 51.2438H187.89C187.51 51.2438 187.14 51.2439 186.84 51.324C186.54 51.404 186.24 51.474 186.09 51.5541V56.2069H186.99V52.0744C187.07 52.0744 187.14 52.0744 187.29 51.9943C187.44 51.9943 187.59 51.9142 187.74 51.9142C187.97 51.9142 188.19 51.9143 188.34 51.9943C188.49 51.9943 188.64 52.0744 188.72 52.0744L188.87 51.324C188.77 51.3773 188.693 51.4038 188.64 51.4038H188.65Z" fill="#2D2D2B"/>
<path d="M142.73 49.3826C142.43 49.3826 142.13 49.6127 142.13 49.9827C142.13 50.2827 142.36 50.5828 142.73 50.5828C143.03 50.5828 143.33 50.3527 143.33 49.9827C143.33 49.6027 143.03 49.3826 142.73 49.3826Z" fill="#2D2D2B"/>
<path d="M135.98 49.3826C135.68 49.3826 135.38 49.6127 135.38 49.9827C135.38 50.2827 135.61 50.5828 135.98 50.5828C136.28 50.5828 136.58 50.3527 136.58 49.9827C136.58 49.6027 136.28 49.3826 135.98 49.3826Z" fill="#2D2D2B"/>
<path d="M79.1002 51.4039H78.2002V56.2871H79.1002V51.4039Z" fill="#2D2D2B"/>
<path d="M78.6508 49.3826C78.3508 49.3826 78.0508 49.6127 78.0508 49.9827C78.0508 50.2827 78.2808 50.5828 78.6508 50.5828C78.9508 50.5828 79.2507 50.3527 79.2507 49.9827C79.2507 49.6127 78.9508 49.3826 78.6508 49.3826Z" fill="#2D2D2B"/>
<path d="M71.3707 51.4039H70.4707V56.2871H71.3707V51.4039Z" fill="#2D2D2B"/>
<path d="M70.9204 49.3826C70.6204 49.3826 70.3203 49.6127 70.3203 49.9827C70.3203 50.2827 70.5504 50.5828 70.9204 50.5828C71.2204 50.5828 71.5204 50.3527 71.5204 49.9827C71.4404 49.6027 71.2204 49.3826 70.9204 49.3826Z" fill="#2D2D2B"/>
<path d="M65.5902 17.7729C65.2102 17.853 64.9902 18.003 64.6902 18.2232C64.4602 18.4533 64.2402 18.6735 64.0902 19.0538C63.9402 19.354 63.8602 19.7341 63.8602 20.1844V21.3851H62.2803V22.5858H67.4602V21.3851H64.9802V20.1844C64.9802 19.654 65.1303 19.2837 65.4303 19.1336C65.7303 18.9035 66.1102 18.8334 66.6302 18.8334H67.5303V17.7028H66.6302C66.2502 17.6228 65.8802 17.6228 65.5802 17.7829L65.5902 17.7729Z" fill="#2D2D2B"/>
<path d="M88.6304 20.3243C88.6304 20.6245 88.5504 20.9247 88.4004 21.0748C88.2504 21.2249 88.0203 21.375 87.7203 21.375H86.9703C86.6703 21.375 86.4404 21.2949 86.2904 21.0748C86.1404 20.8446 86.0604 20.6247 86.0604 20.2444V19.1136C86.0604 18.7333 85.9803 18.2831 85.8303 17.9129C85.6803 17.5326 85.4503 17.1624 85.2303 16.9323C84.9303 16.6321 84.6303 16.402 84.3303 16.2519C83.9503 16.1018 83.5803 16.0218 83.2003 16.0218C82.8203 16.0218 82.3703 16.1018 82.0703 16.2519C81.6903 16.402 81.3904 16.6321 81.1704 16.9323C80.8704 17.2325 80.7203 17.5326 80.5703 17.9129C80.4203 18.2931 80.3403 18.6633 80.3403 19.1136V20.2444C80.3403 20.5446 80.2604 20.8446 80.1104 21.0748C79.9604 21.3049 79.7304 21.375 79.4304 21.375H71.1804C70.8804 21.375 70.7304 21.295 70.5004 21.1449C70.3504 20.9948 70.2704 20.7647 70.2704 20.4645V11.9091H69.0703V20.3944C69.0703 20.7746 69.1503 21.075 69.2203 21.2951C69.3003 21.5253 69.4503 21.7453 69.6003 21.9755C69.7503 22.1256 69.9804 22.2756 70.2804 22.4257C70.5104 22.5058 70.8804 22.5757 71.1804 22.5757H79.2804C79.6604 22.5757 79.9604 22.4959 80.2604 22.2757C80.5604 22.1256 80.7104 21.8253 80.8604 21.375C81.0904 21.8253 81.3904 22.1255 81.7604 22.3556C82.1304 22.5857 82.5904 22.736 83.0404 22.736C83.4904 22.736 83.9404 22.5857 84.3904 22.3556C84.8404 22.1255 85.1404 21.7552 85.3704 21.375H85.4503C85.6003 21.7552 85.7504 22.0556 86.0504 22.2757C86.2804 22.4258 86.6504 22.5757 87.0304 22.5757H87.7804C88.4604 22.5757 88.9804 22.3457 89.2804 21.9755C89.6604 21.5252 89.8104 20.9947 89.8104 20.3243V11.9191H88.6104V20.3243H88.6304ZM84.8804 19.7241C84.8804 19.9542 84.8003 20.1743 84.7303 20.4044C84.6603 20.6346 84.5003 20.8548 84.3503 21.0049C84.2003 21.155 83.9703 21.305 83.8203 21.385C83.5903 21.4651 83.3704 21.5353 83.1404 21.5353C82.9104 21.5353 82.6903 21.4551 82.4603 21.385C82.2303 21.315 82.0804 21.155 81.9304 21.0049C81.7804 20.8548 81.6304 20.6246 81.5504 20.4044C81.4704 20.1843 81.4004 19.9542 81.4004 19.7241V19.1236C81.4004 18.8234 81.4804 18.5933 81.5504 18.3731C81.6204 18.153 81.7804 17.923 81.9304 17.7729C82.0804 17.6228 82.3103 17.4726 82.4603 17.3925C82.6903 17.3125 82.9104 17.2425 83.1404 17.2425C83.3704 17.2425 83.5903 17.3225 83.8203 17.3925C84.0503 17.4626 84.2003 17.6228 84.3503 17.7729C84.5003 17.923 84.6503 18.153 84.7303 18.3731C84.8103 18.5933 84.8804 18.8234 84.8804 19.1236V19.7241Z" fill="#2D2D2B"/>
<path d="M92.6805 11.9091H91.4805V22.5659H92.6805V11.9091Z" fill="#2D2D2B"/>
<path d="M99.2803 16.9423C98.9803 16.6422 98.6803 16.4121 98.3003 16.262C97.9203 16.1119 97.5502 16.0319 97.1002 16.0319C96.7202 16.0319 96.2702 16.1119 95.9702 16.262C95.5902 16.4121 95.2902 16.6422 95.0702 16.9423C94.7702 17.2425 94.6202 17.5427 94.4702 17.9229C94.3202 18.3032 94.2402 18.6734 94.2402 19.1236V19.7241C94.2402 20.1744 94.3202 20.5545 94.4702 20.8547C94.6202 21.2349 94.8502 21.5353 95.0702 21.7554C95.3002 21.9856 95.6702 22.2055 95.9702 22.3556C96.3502 22.5057 96.7202 22.5858 97.1002 22.5858H98.8302V23.0362C98.8302 23.4165 98.7502 23.7165 98.6002 24.0867C98.4502 24.3869 98.2202 24.6872 97.8502 24.9173C97.5502 25.1475 97.1702 25.3677 96.7202 25.5178C96.2702 25.6679 95.8203 25.7479 95.2903 25.7479V26.7986C95.9703 26.7986 96.6403 26.7185 97.1703 26.4984C97.7703 26.2682 98.2203 26.048 98.6703 25.6678C99.1203 25.2875 99.4203 24.8372 99.6503 24.3869C99.8803 23.8566 100.03 23.3364 100.03 22.736V19.1337C100.03 18.7534 99.9503 18.3032 99.8003 17.933C99.8003 17.5527 99.5703 17.2525 99.2703 16.9524L99.2803 16.9423ZM98.9103 21.2952H97.1803C96.9503 21.2952 96.7302 21.215 96.5002 21.1449C96.2702 21.0649 96.1202 20.9149 95.9702 20.7648C95.8202 20.6147 95.6702 20.4646 95.5902 20.2344C95.5102 20.0043 95.4402 19.7842 95.4402 19.5541V18.9536C95.4402 18.6534 95.5202 18.4233 95.5902 18.2031C95.6602 17.983 95.8202 17.7528 95.9702 17.6027C96.1202 17.4526 96.2702 17.3026 96.5002 17.2225C96.7302 17.1425 96.9503 17.0723 97.1803 17.0723C97.4103 17.0723 97.6302 17.1525 97.8602 17.2225C98.0902 17.3026 98.2403 17.4526 98.3903 17.6027C98.5403 17.7528 98.6903 17.983 98.7703 18.2031C98.8503 18.4233 98.9203 18.6534 98.9203 18.9536V21.2851L98.9103 21.2952Z" fill="#2D2D2B"/>
<path d="M107.76 17.7729C107.38 17.853 107.16 18.003 106.86 18.2232C106.63 18.4533 106.41 18.6735 106.26 19.0538C106.11 19.354 106.03 19.7341 106.03 20.1844V21.3851H104.45V22.5858H109.63V21.3851H107.08V20.1844C107.08 19.654 107.23 19.2837 107.53 19.1336C107.83 18.9035 108.21 18.8334 108.73 18.8334H109.63V17.7028H108.73C108.5 17.6228 108.13 17.6228 107.75 17.7829L107.76 17.7729Z" fill="#2D2D2B"/>
<path d="M124.121 21.8954C124.501 21.4451 124.651 20.9148 124.651 20.2444V16.3418H123.521V20.2444C123.521 20.5446 123.441 20.8448 123.291 20.9949C123.141 21.145 122.911 21.2951 122.611 21.2951H113.461C113.161 21.2951 113.011 21.2151 112.781 21.065C112.631 20.9149 112.551 20.6846 112.551 20.3844V11.8991H111.351V20.3844C111.351 20.7646 111.431 21.065 111.501 21.2851C111.581 21.5153 111.731 21.7353 111.881 21.9655C112.031 22.1156 112.261 22.2656 112.561 22.4157C112.791 22.4958 113.461 22.5659 113.461 22.5659H122.611C123.291 22.5659 123.741 22.3356 124.111 21.8853L124.121 21.8954Z" fill="#2D2D2B"/>
<path d="M156.53 20.3243C156.53 20.6245 156.45 20.9247 156.3 21.0748C156.15 21.2249 155.92 21.375 155.62 21.375H152.92V21.2951C153.07 21.145 153.22 20.9148 153.3 20.7647C153.38 20.5346 153.45 20.3144 153.45 20.1643C153.45 19.6339 153.37 19.1838 153.15 18.8136C152.92 18.3633 152.62 17.9829 152.32 17.6827C151.94 17.3025 151.57 17.0023 151.12 16.7021C150.67 16.402 150.22 16.1718 149.77 15.9517L153.22 12.1192V12.0393H151.87L147.97 16.3218V16.5521C148.5 16.7022 149.02 16.9322 149.47 17.1524C150 17.3825 150.45 17.6828 150.82 17.983C151.2 18.2832 151.57 18.6635 151.8 19.0337C152.03 19.4039 152.18 19.7841 152.18 20.2344C152.18 20.3845 152.1 20.5345 152.03 20.6846C151.95 20.8347 151.8 20.9849 151.65 21.065C151.5 21.145 151.27 21.2951 150.97 21.2951C150.67 21.3752 150.37 21.375 150.07 21.375H144.29V19.1236C144.29 18.5933 144.21 18.073 143.99 17.6928C143.84 17.2425 143.54 16.8623 143.24 16.4921C142.94 16.1218 142.56 15.8916 142.11 15.6615C141.66 15.4313 141.21 15.3612 140.68 15.3612H135.58V16.4921H137.01V16.5719C136.78 16.652 136.56 16.7223 136.41 16.8023C136.26 16.9524 136.03 17.0324 135.96 17.2525C135.81 17.4026 135.73 17.6326 135.66 17.8528C135.58 18.0829 135.51 18.3031 135.51 18.4532C135.51 18.9035 135.59 19.2836 135.81 19.5838C136.04 19.884 136.26 20.1843 136.56 20.4144C136.86 20.6446 137.24 20.8648 137.54 21.0149C137.92 21.165 138.22 21.315 138.59 21.4651V21.5453C138.44 21.4652 138.29 21.4651 138.06 21.4651H128.68C128.45 21.4651 128.23 21.385 128.08 21.1649C127.93 21.0148 127.85 20.7146 127.85 20.4144V18.5334H126.65V22.9661C126.65 23.3463 126.57 23.7166 126.42 24.0168C126.27 24.317 126.12 24.6171 125.82 24.9172C125.59 25.1474 125.22 25.3676 124.84 25.5177C124.46 25.6678 124.01 25.7478 123.49 25.7478V26.7986C124.17 26.7986 124.77 26.7185 125.29 26.5684C125.81 26.4183 126.27 26.1181 126.64 25.818C127.01 25.5178 127.24 25.0673 127.47 24.617C127.7 24.1667 127.77 23.6366 127.77 23.0362V22.5857C127.77 22.4356 127.77 22.2856 127.69 22.1355H127.77C127.85 22.3656 128 22.4356 128.15 22.5857C128.3 22.6658 128.45 22.736 128.68 22.736H139.26C139.56 22.736 139.79 22.7359 139.94 22.6558C140.09 22.5758 140.17 22.5057 140.32 22.3556C140.92 22.5057 141.52 22.736 142.12 22.8061C142.8 22.9562 143.4 23.0362 144.07 23.0362L144.22 22.8859V22.736H155.55C156.23 22.736 156.75 22.5057 157.05 22.1355C157.43 21.6852 157.58 21.155 157.58 20.4845V11.9291H156.53V20.3343V20.3243ZM139.73 20.8446C139.43 20.7646 139.13 20.6146 138.75 20.4645C138.37 20.3144 138.07 20.1643 137.77 19.9341C137.47 19.7841 137.24 19.554 137.02 19.2538C136.8 18.9536 136.72 18.6534 136.72 18.2732C136.72 18.1231 136.72 17.8929 136.8 17.7428C136.88 17.5927 136.95 17.4427 137.1 17.2926C137.25 17.1425 137.4 17.0624 137.55 16.9924C137.7 16.9123 137.93 16.8421 138.08 16.8421C138.31 16.8421 138.53 16.9223 138.76 16.9924C138.99 17.0724 139.14 17.2224 139.29 17.3725C139.44 17.5226 139.52 17.7528 139.59 17.973C139.67 18.2031 139.67 18.4232 139.67 18.6533V20.8346H139.75L139.73 20.8446ZM143.18 21.5951C142.8 21.5951 142.43 21.5151 141.98 21.365C141.53 21.2849 141.15 21.135 140.85 21.065V18.7334C140.85 18.4333 140.77 18.133 140.7 17.9028C140.62 17.6727 140.47 17.4526 140.32 17.2225C140.17 16.9923 140.02 16.8422 139.79 16.6921C139.56 16.542 139.34 16.462 139.11 16.462V16.3819H140.76C141.06 16.3819 141.36 16.4619 141.66 16.612C141.96 16.7621 142.19 16.9122 142.41 17.1424C142.64 17.3725 142.79 17.6728 142.94 17.973C143.09 18.2731 143.09 18.6534 143.09 18.9536V21.5851H143.17L143.18 21.5951Z" fill="#2D2D2B"/>
<path d="M160.591 11.9091H159.391V22.5659H160.591V11.9091Z" fill="#2D2D2B"/>
<path d="M171.541 20.9248C171.691 20.5446 171.771 20.1744 171.771 19.7241V19.1236C171.771 18.6734 171.691 18.2932 171.541 17.9229C171.391 17.5527 171.161 17.2425 170.941 16.9423C170.641 16.6422 170.341 16.4121 170.041 16.262C169.661 16.1119 169.291 16.0319 168.911 16.0319C168.531 16.0319 168.081 16.1119 167.781 16.262C167.401 16.4121 167.101 16.6422 166.881 16.9423C166.581 17.2425 166.431 17.5427 166.281 17.9229C166.131 18.3032 166.051 18.6734 166.051 19.1236V19.7241C166.051 20.1744 166.131 20.5546 166.281 20.9248C166.431 21.295 166.661 21.6052 166.881 21.9054C167.181 22.2056 167.481 22.4357 167.781 22.5858C168.161 22.7359 168.531 22.8161 168.911 22.8161C169.291 22.8161 169.741 22.7359 170.041 22.5858C170.421 22.4357 170.721 22.2056 170.941 21.9054C171.171 21.6052 171.391 21.3051 171.541 20.9248ZM170.571 19.644C170.571 19.8741 170.491 20.1743 170.421 20.3945C170.341 20.6246 170.191 20.8448 170.041 20.9949C169.891 21.145 169.661 21.295 169.511 21.375C169.281 21.4551 169.061 21.5253 168.831 21.5253C168.601 21.5253 168.381 21.4451 168.151 21.375C167.921 21.295 167.771 21.145 167.621 20.9949C167.471 20.8448 167.321 20.6146 167.241 20.3945C167.161 20.1743 167.091 19.9442 167.091 19.644V19.0438C167.091 18.7436 167.171 18.5134 167.241 18.2933C167.321 18.0631 167.471 17.8429 167.621 17.6928C167.771 17.5427 167.921 17.3927 168.151 17.3127C168.381 17.2326 168.601 17.1625 168.831 17.1625C169.061 17.1625 169.281 17.2426 169.511 17.3127C169.741 17.3927 169.891 17.5427 170.041 17.6928C170.191 17.8429 170.341 18.0731 170.421 18.2933C170.501 18.5134 170.571 18.7436 170.571 19.0438V19.644Z" fill="#2D2D2B"/>
<path d="M173.79 22.9461C173.79 23.3263 173.71 23.6966 173.56 23.9968C173.41 24.297 173.26 24.5971 172.96 24.8973C172.73 25.1274 172.36 25.3477 171.98 25.4978C171.6 25.6478 171.15 25.7279 170.63 25.7279V26.7786C171.31 26.7786 171.91 26.6985 172.43 26.4783C172.96 26.3283 173.41 26.0281 173.78 25.7279C174.15 25.4277 174.38 24.9775 174.61 24.5272C174.76 24.0769 174.91 23.5465 174.91 22.9461V18.3632H173.78V22.9461H173.79Z" fill="#2D2D2B"/>
<path d="M177.921 11.9091H176.721V22.5659H177.921V11.9091Z" fill="#2D2D2B"/>
<path d="M179.95 22.9461C179.95 23.3263 179.87 23.6966 179.72 23.9968C179.57 24.297 179.42 24.5971 179.12 24.8973C178.89 25.1274 178.52 25.3477 178.14 25.4978C177.76 25.6478 177.31 25.7279 176.79 25.7279V26.7786C177.47 26.7786 178.07 26.6985 178.59 26.4783C179.12 26.3283 179.57 26.0281 179.94 25.7279C180.31 25.4277 180.54 24.9775 180.77 24.5272C180.92 24.0769 181.07 23.5465 181.07 22.9461V18.3632H179.87V22.9461H179.95Z" fill="#2D2D2B"/>
<path d="M188.42 17.9229C188.27 17.5427 188.04 17.2425 187.82 16.9423C187.52 16.6422 187.22 16.4121 186.84 16.262C186.46 16.1119 186.09 16.0319 185.64 16.0319C185.26 16.0319 184.81 16.1119 184.51 16.262C184.13 16.4121 183.83 16.6422 183.61 16.9423C183.31 17.2425 183.16 17.5427 183.01 17.9229C182.86 18.3032 182.78 18.6734 182.78 19.1236V19.7241C182.78 20.1744 182.86 20.5545 183.01 20.8547C183.16 21.2349 183.39 21.5353 183.61 21.7554C183.84 21.9856 184.21 22.2055 184.51 22.3556C184.89 22.5057 185.26 22.5858 185.64 22.5858H187.37V23.0362C187.37 23.4165 187.29 23.7165 187.14 24.0867C186.99 24.3869 186.76 24.6872 186.39 24.9173C186.09 25.1475 185.71 25.3677 185.26 25.5178C184.81 25.6679 184.36 25.7479 183.83 25.7479V26.7986C184.51 26.7986 185.18 26.7185 185.71 26.4984C186.31 26.2682 186.76 26.048 187.21 25.6678C187.66 25.2875 187.96 24.8372 188.19 24.3869C188.42 23.8566 188.57 23.3364 188.57 22.736V19.1337C188.65 18.6834 188.57 18.3032 188.42 17.933V17.9229ZM187.45 21.2952H185.72C185.49 21.2952 185.27 21.215 185.04 21.1449C184.81 21.0649 184.66 20.9149 184.51 20.7648C184.36 20.6147 184.21 20.4646 184.13 20.2344C184.05 20.0043 183.98 19.7842 183.98 19.5541V18.9536C183.98 18.6534 184.06 18.4233 184.13 18.2031C184.21 17.973 184.36 17.7528 184.51 17.6027C184.66 17.4526 184.81 17.3026 185.04 17.2225C185.27 17.1425 185.49 17.0723 185.72 17.0723C185.95 17.0723 186.17 17.1525 186.4 17.2225C186.63 17.3026 186.78 17.4526 186.93 17.6027C187.08 17.7528 187.23 17.983 187.31 18.2031C187.39 18.4233 187.46 18.6534 187.46 18.9536V21.2851L187.45 21.2952Z" fill="#2D2D2B"/>
<path d="M180.55 14.0106C180.17 14.0106 179.87 14.3105 179.87 14.6905C179.87 15.0705 180.17 15.3704 180.55 15.3704C180.93 15.3704 181.23 15.0705 181.23 14.6905C181.31 14.3105 180.93 14.0106 180.55 14.0106Z" fill="#2D2D2B"/>
<path d="M169.59 14.6199C169.97 14.6199 170.27 14.32 170.27 13.94C170.27 13.56 169.97 13.2601 169.59 13.2601C169.21 13.2601 168.91 13.56 168.91 13.94C168.91 14.32 169.21 14.6199 169.59 14.6199Z" fill="#2D2D2B"/>
<path d="M122.17 23.8466C121.79 23.8466 121.49 24.1467 121.49 24.5267C121.49 24.9067 121.79 25.2067 122.17 25.2067C122.55 25.2067 122.85 24.9067 122.85 24.5267C122.85 24.1467 122.55 23.8466 122.17 23.8466Z" fill="#2D2D2B"/>
<path d="M168.02 14.6199C168.395 14.6199 168.7 14.3156 168.7 13.94C168.7 13.5644 168.395 13.2601 168.02 13.2601C167.644 13.2601 167.34 13.5644 167.34 13.94C167.34 14.3156 167.644 14.6199 168.02 14.6199Z" fill="#2D2D2B"/>
<path d="M67.3206 35.7841C67.0206 35.484 66.7207 35.2536 66.4207 35.1035C66.0407 34.9534 65.6706 34.8734 65.2906 34.8734C64.9106 34.8734 64.4606 34.9534 64.1606 35.1035C63.7806 35.2536 63.4806 35.484 63.2606 35.7841C62.9606 36.0843 62.8106 36.3845 62.6606 36.7647C62.5106 37.145 62.4307 37.5152 62.4307 37.9654V38.5659C62.4307 39.0162 62.5106 39.3964 62.6606 39.7666C62.8106 40.1469 63.0406 40.447 63.2606 40.7472C63.5606 41.0474 63.8606 41.2775 64.1606 41.4276C64.5406 41.5777 64.9106 41.6577 65.2906 41.6577C65.6706 41.6577 66.1207 41.5777 66.4207 41.4276C66.8007 41.2775 67.1006 41.0474 67.3206 40.7472C67.6206 40.447 67.7707 40.1469 67.9207 39.7666C68.0707 39.3864 68.1506 39.0162 68.1506 38.5659V37.9654C68.1506 37.5152 68.0707 37.135 67.9207 36.7647C67.7707 36.3945 67.5406 36.0843 67.3206 35.7841ZM66.9406 38.5659C66.9406 38.7961 66.8606 39.0962 66.7906 39.3164C66.7206 39.5365 66.5606 39.7665 66.4106 39.9166C66.2606 40.0667 66.0306 40.2169 65.8806 40.297C65.6506 40.377 65.4306 40.447 65.2006 40.447C64.9706 40.447 64.7506 40.367 64.5206 40.297C64.2906 40.2169 64.1406 40.0667 63.9906 39.9166C63.8406 39.7665 63.6906 39.5365 63.6106 39.3164C63.5306 39.0962 63.4606 38.8661 63.4606 38.5659V37.9654C63.4606 37.6652 63.5406 37.4351 63.6106 37.215C63.6806 36.9948 63.8406 36.7646 63.9906 36.6145C64.1406 36.4644 64.2906 36.3144 64.5206 36.2344C64.7506 36.1543 64.9706 36.0841 65.2006 36.0841C65.4306 36.0841 65.6506 36.1643 65.8806 36.2344C66.1106 36.3144 66.2606 36.4644 66.4106 36.6145C66.5606 36.7646 66.7106 36.9948 66.7906 37.215C66.8706 37.4351 66.9406 37.6652 66.9406 37.9654V38.5659Z" fill="#2D2D2B"/>
<path d="M74.4504 36.1643C74.1504 35.8641 73.8505 35.634 73.5505 35.4839C73.1705 35.3338 72.8005 35.2538 72.3505 35.2538H70.1705V36.4545H72.3505C72.5805 36.4545 72.8005 36.5344 73.0305 36.6045C73.2605 36.6845 73.4105 36.8348 73.5605 36.9848C73.7105 37.1349 73.8604 37.3649 73.9404 37.5851C74.0204 37.8052 74.0905 38.0354 74.0905 38.3355V40.2169H69.8105V41.4176H75.2905V38.3355C75.2905 37.8853 75.2105 37.5051 75.0605 37.1348C74.9105 36.7646 74.6804 36.4544 74.4604 36.1543L74.4504 36.1643Z" fill="#2D2D2B"/>
<path d="M119.32 39.1662C119.32 39.4663 119.24 39.7665 119.09 39.9166C118.94 40.0667 118.711 40.2169 118.411 40.2169C118.111 40.2169 117.88 40.1368 117.73 39.9166C117.58 39.6865 117.5 39.4663 117.5 39.086V37.9554C117.5 37.5752 117.421 37.125 117.271 36.7547C117.121 36.3845 116.891 36.0043 116.671 35.7741C116.371 35.4739 116.071 35.2436 115.771 35.0935C115.391 34.9434 115.021 34.8634 114.641 34.8634C114.261 34.8634 113.81 34.9434 113.51 35.0935C113.13 35.2436 112.83 35.4739 112.61 35.7741C112.31 36.0743 112.16 36.3745 112.01 36.7547C111.86 37.135 111.781 37.5051 111.781 37.9554V39.086C111.781 39.3862 111.701 39.6865 111.551 39.9166C111.401 40.1468 111.17 40.2169 110.87 40.2169C110.42 40.2169 106.52 40.1368 106.37 39.9867C106.14 39.8366 106.07 39.5364 106.07 39.1561V36.4545H104.72V39.1561C104.72 39.5364 104.641 39.7566 104.421 39.9867C104.191 40.1368 103.891 40.2169 103.521 40.2169H95.7905C95.6405 40.1368 95.5605 39.9868 95.4905 39.7666C95.4205 39.5465 95.4105 39.3163 95.4105 39.0162V37.8853C95.4105 37.435 95.3305 36.9847 95.2605 36.6045C95.1105 36.2243 94.9605 35.9241 94.7305 35.6239C94.5005 35.3237 94.2005 35.1738 93.9005 35.0237C93.6005 34.8736 93.1505 34.7935 92.7705 34.7935C92.1705 34.7935 91.6405 34.9435 91.2705 35.1737C90.8205 35.4738 90.2905 36.0041 89.9205 36.3744L90.6705 37.1248C90.9005 36.8246 91.4205 36.3745 91.7205 36.2244C92.0205 36.0743 92.3204 35.9942 92.7004 35.9942C92.9304 35.9942 93.1505 36.0742 93.3805 36.1442C93.6105 36.2243 93.7604 36.3745 93.8304 36.5246C93.9804 36.6747 94.0605 36.9047 94.1305 37.1248C94.2005 37.345 94.2104 37.5751 94.2104 37.8753V39.4564C94.2104 39.6065 94.2905 39.6864 94.2905 39.8365C94.2905 39.9165 94.3705 39.9868 94.3705 40.0669C94.4505 40.1469 94.4505 40.2169 94.5205 40.297L94.4404 40.3769C94.2904 40.2968 94.1405 40.297 93.9905 40.297H82.2805V38.4958C82.2805 38.0455 82.2005 37.6653 82.0505 37.2951C81.9005 36.9149 81.6704 36.6147 81.4504 36.3145C81.1504 36.0143 80.8505 35.784 80.5505 35.6339C80.1705 35.4838 79.8005 35.4038 79.3505 35.4038H77.1705V36.4545H79.3505C79.5805 36.4545 79.8005 36.5344 80.0305 36.6045C80.2605 36.6845 80.4105 36.8348 80.5605 36.9849C80.7105 37.1349 80.8604 37.3649 80.9404 37.5851C81.0204 37.8052 81.0905 38.0354 81.0905 38.3356V40.2169H76.8105V41.4176H104.051C104.201 41.4176 104.43 41.3376 104.58 41.2676C104.73 41.1875 104.881 41.1174 105.031 40.9673C105.181 40.8172 105.261 40.6672 105.411 40.5171C105.561 40.8973 105.79 41.1175 106.09 41.2676C106.39 41.4177 110.29 41.4977 110.82 41.4977C111.2 41.4977 111.501 41.4176 111.801 41.1975C112.101 41.0474 112.251 40.7473 112.401 40.297C112.631 40.7473 112.931 41.0474 113.301 41.2776C113.671 41.5077 114.13 41.6577 114.58 41.6577C115.03 41.6577 115.481 41.5077 115.931 41.2776C116.381 41.0474 116.681 40.6772 116.911 40.297H116.99C117.14 40.6772 117.29 40.9773 117.59 41.1975C117.82 41.3475 118.19 41.4977 118.57 41.4977C119.25 41.4977 119.77 41.2674 120.07 40.8972C120.45 40.4469 120.6 39.9167 120.6 39.2463V30.761H119.401V39.1662H119.32ZM116.32 38.5659C116.32 38.7961 116.241 39.0161 116.171 39.2463C116.091 39.4764 115.941 39.6964 115.791 39.8465C115.641 39.9966 115.41 40.1468 115.26 40.2269C115.03 40.3069 114.81 40.3769 114.58 40.3769C114.35 40.3769 114.131 40.2969 113.901 40.2269C113.671 40.1468 113.52 39.9966 113.37 39.8465C113.22 39.6964 113.07 39.4664 112.99 39.2463C112.91 39.0261 112.84 38.7961 112.84 38.5659V37.9654C112.84 37.6653 112.92 37.4351 112.99 37.215C113.07 36.9848 113.22 36.7646 113.37 36.6145C113.52 36.4644 113.751 36.3144 113.901 36.2344C114.131 36.1543 114.35 36.0841 114.58 36.0841C114.81 36.0841 115.03 36.1643 115.26 36.2344C115.49 36.3144 115.641 36.4644 115.791 36.6145C115.941 36.7646 116.091 36.9948 116.171 37.215C116.251 37.4351 116.32 37.6653 116.32 37.9654V38.5659Z" fill="#2D2D2B"/>
<path d="M123.371 30.761H122.171V41.4176H123.371V30.761Z" fill="#2D2D2B"/>
<path d="M149.781 34.8835C149.481 34.5833 149.18 34.4333 148.88 34.2832C148.5 34.1331 148.13 34.0531 147.75 34.0531C147.37 34.0531 146.92 34.1331 146.62 34.2832C146.24 34.4333 145.94 34.6633 145.72 34.8835C145.5 35.1036 145.27 35.4139 145.12 35.7141C144.97 36.0142 144.891 36.3945 144.891 36.7648C144.891 37.2951 145.041 37.7452 145.271 38.1155C145.501 38.4857 145.801 38.7959 146.171 39.0961C146.551 39.3962 146.92 39.6264 147.37 39.8465C147.82 40.0667 148.2 40.2268 148.57 40.3769C148.42 40.2968 148.19 40.297 147.97 40.297H135.51C135.21 40.297 134.98 40.2169 134.83 39.9968C134.68 39.7666 134.6 39.5464 134.6 39.1662V35.1837H131.671C131.291 35.1837 130.921 35.2637 130.541 35.4138C130.161 35.5639 129.861 35.794 129.641 36.0942C129.341 36.3944 129.191 36.6948 129.041 37.075C128.891 37.4553 128.811 37.8254 128.811 38.2757V38.6558C128.811 39.1061 128.891 39.4863 129.041 39.8565C129.191 40.2268 129.421 40.5369 129.641 40.8371C129.941 41.1373 130.241 41.3676 130.541 41.5177C130.921 41.6678 131.291 41.7479 131.671 41.7479C132.121 41.7479 132.571 41.5976 133.021 41.3675C133.471 41.1374 133.77 40.7671 134 40.3869C134.15 40.7671 134.3 41.0675 134.6 41.2876C134.83 41.4377 135.2 41.5876 135.58 41.5876H150.74V37.0848C150.74 36.7045 150.66 36.3344 150.51 35.9542C150.21 35.5039 150.06 35.1236 149.76 34.9035L149.781 34.8835ZM133.35 38.5659C133.35 38.7961 133.27 39.0161 133.2 39.2463C133.12 39.4764 132.97 39.6964 132.82 39.8465C132.67 39.9966 132.521 40.1468 132.291 40.2269C132.061 40.3069 131.84 40.3769 131.61 40.3769C131.38 40.3769 131.161 40.2969 130.931 40.2269C130.701 40.1468 130.551 39.9966 130.401 39.8465C130.251 39.6964 130.101 39.4664 130.021 39.2463C129.941 39.0262 129.87 38.7961 129.87 38.5659V38.1856C129.87 37.9554 129.951 37.6552 130.021 37.4351C130.101 37.205 130.251 36.9847 130.401 36.8346C130.551 36.6845 130.701 36.5346 130.931 36.4545C131.161 36.3745 131.38 36.3045 131.61 36.3045H133.34V38.5559L133.35 38.5659ZM149.411 39.6965C149.111 39.5464 148.73 39.3964 148.36 39.2463C147.98 39.0962 147.61 38.866 147.23 38.6458C146.85 38.4257 146.55 38.1157 146.33 37.8155C146.1 37.5153 145.95 37.135 145.95 36.7648C145.95 36.5346 146.03 36.3844 146.1 36.1643C146.18 36.0142 146.33 35.784 146.48 35.6339C146.63 35.4838 146.86 35.4039 147.01 35.2538C147.24 35.1738 147.46 35.1036 147.69 35.1036C147.92 35.1036 148.14 35.1838 148.37 35.2538C148.6 35.3339 148.751 35.4838 148.901 35.6339C149.051 35.784 149.201 36.0142 149.281 36.1643C149.361 36.3944 149.431 36.6145 149.431 36.8446V39.6965H149.411Z" fill="#2D2D2B"/>
<path d="M177.091 39.1662C177.091 39.4664 177.011 39.7665 176.861 39.9166C176.711 40.0667 176.481 40.2169 176.181 40.2169H171.901V38.4858C171.901 37.8854 171.821 37.2849 171.671 36.8346C171.521 36.3843 171.291 36.0042 170.991 35.704C170.691 35.4039 170.391 35.1738 170.011 35.0237C169.631 34.8736 169.261 34.7936 168.811 34.7936C168.361 34.7936 167.911 34.8736 167.531 35.0237C167.151 35.1738 166.781 35.4038 166.401 35.6239C166.021 35.8441 165.721 36.1544 165.421 36.5246C165.121 36.9049 164.821 37.275 164.441 37.6552C164.591 37.355 164.671 36.8249 164.671 36.0744V32.2419H163.471V40.1968H154.321C154.021 40.1968 153.871 40.1168 153.641 39.9667C153.491 39.8166 153.411 39.5865 153.411 39.2864V30.731H152.211V39.2162C152.211 39.5965 152.291 39.8966 152.361 40.1167C152.441 40.3469 152.591 40.5672 152.741 40.7973C152.891 40.9474 153.121 41.0975 153.421 41.2476C153.651 41.3276 154.021 41.3975 154.321 41.3975H176.231C176.911 41.3975 177.431 41.1675 177.731 40.7973C178.111 40.347 178.261 39.8166 178.261 39.1461V30.741H177.061V39.1461L177.091 39.1662ZM170.721 40.2169H164.721V39.0162C165.021 38.6359 165.251 38.2657 165.551 37.9655C165.851 37.5852 166.151 37.2851 166.451 36.9849C166.751 36.6847 167.131 36.4546 167.501 36.3045C167.871 36.1544 168.251 36.0744 168.701 36.0744C169.001 36.0744 169.231 36.1543 169.451 36.2244C169.681 36.3044 169.901 36.4545 170.131 36.6746C170.281 36.9048 170.431 37.1249 170.581 37.4251C170.661 37.7253 170.731 38.1056 170.731 38.5559V40.2069L170.721 40.2169Z" fill="#2D2D2B"/>
<path d="M181.15 30.761H179.95V41.4176H181.15V30.761Z" fill="#2D2D2B"/>
<path d="M188.42 36.7647C188.27 36.3845 188.04 36.0843 187.82 35.7841C187.52 35.484 187.22 35.2536 186.84 35.1035C186.46 34.9534 186.09 34.8734 185.64 34.8734C185.26 34.8734 184.81 34.9534 184.51 35.1035C184.13 35.2536 183.83 35.484 183.61 35.7841C183.31 36.0843 183.16 36.3845 183.01 36.7647C182.86 37.145 182.78 37.5152 182.78 37.9654V38.5659C182.78 39.0162 182.86 39.3963 183.01 39.6965C183.16 40.0767 183.39 40.3768 183.61 40.597C183.83 40.8171 184.21 41.0473 184.51 41.1974C184.89 41.3475 185.26 41.4276 185.64 41.4276H187.37V41.8778C187.37 42.258 187.29 42.5583 187.14 42.9285C186.99 43.2287 186.76 43.529 186.39 43.7591C186.09 43.9892 185.71 44.2092 185.26 44.3593C184.81 44.5094 184.36 44.5895 183.83 44.5895V45.6402C184.51 45.6402 185.18 45.5601 185.71 45.3399C186.31 45.1098 186.76 44.8898 187.21 44.5096C187.66 44.1293 187.96 43.679 188.19 43.2287C188.42 42.6984 188.57 42.1782 188.57 41.5778V37.9755C188.65 37.5952 188.57 37.145 188.42 36.7747V36.7647ZM187.45 40.2168H185.72C185.49 40.2168 185.27 40.1369 185.04 40.0669C184.81 39.9868 184.66 39.8366 184.51 39.6865C184.36 39.5364 184.21 39.3863 184.13 39.1561C184.05 38.926 183.98 38.7059 183.98 38.4758V37.9454C183.98 37.6452 184.06 37.4151 184.13 37.1949C184.21 36.9648 184.36 36.7446 184.51 36.5945C184.66 36.4444 184.81 36.2944 185.04 36.2143C185.27 36.1343 185.49 36.0643 185.72 36.0643C185.95 36.0643 186.17 36.1443 186.4 36.2143C186.63 36.2944 186.78 36.4444 186.93 36.5945C187.08 36.7446 187.23 36.9748 187.31 37.1949C187.39 37.4151 187.46 37.6452 187.46 37.9454V40.1968L187.45 40.2168Z" fill="#2D2D2B"/>
<path d="M66.0404 33.4618C66.4204 33.4618 66.7203 33.1619 66.7203 32.7819C66.7203 32.4019 66.4204 32.1017 66.0404 32.1017C65.6604 32.1017 65.3604 32.4019 65.3604 32.7819C65.3604 33.1619 65.6604 33.4618 66.0404 33.4618Z" fill="#2D2D2B"/>
<path d="M64.4709 33.4618C64.8509 33.4618 65.151 33.1619 65.151 32.7819C65.151 32.4019 64.8509 32.1017 64.4709 32.1017C64.0909 32.1017 63.791 32.4019 63.791 32.7819C63.791 33.1619 64.0909 33.4618 64.4709 33.4618Z" fill="#2D2D2B"/>
<path d="M106.191 34.2823C106.571 34.2823 106.871 33.9822 106.871 33.6022C106.871 33.2222 106.571 32.9222 106.191 32.9222C105.811 32.9222 105.511 33.2222 105.511 33.6022C105.511 33.9822 105.811 34.2823 106.191 34.2823Z" fill="#2D2D2B"/>
<path d="M104.611 34.2823C104.991 34.2823 105.291 33.9822 105.291 33.6022C105.291 33.2222 104.991 32.9222 104.611 32.9222C104.231 32.9222 103.931 33.2222 103.931 33.6022C103.851 33.9822 104.231 34.2823 104.611 34.2823Z" fill="#2D2D2B"/>
<path d="M132.821 33.4618C133.201 33.4618 133.501 33.1619 133.501 32.7819C133.501 32.4019 133.201 32.1017 132.821 32.1017C132.441 32.1017 132.141 32.4019 132.141 32.7819C132.141 33.1619 132.441 33.4618 132.821 33.4618Z" fill="#2D2D2B"/>
<path d="M131.25 33.4618C131.63 33.4618 131.93 33.1619 131.93 32.7819C131.93 32.4019 131.63 32.1017 131.25 32.1017C130.87 32.1017 130.57 32.4019 130.57 32.7819C130.57 33.1619 130.87 33.4618 131.25 33.4618Z" fill="#2D2D2B"/>
<path d="M148.511 32.4812C148.891 32.4812 149.191 32.1813 149.191 31.8013C149.191 31.4213 148.891 31.1211 148.511 31.1211C148.131 31.1211 147.831 31.4213 147.831 31.8013C147.751 32.1813 148.131 32.4812 148.511 32.4812Z" fill="#2D2D2B"/>
<path d="M146.931 32.4812C147.311 32.4812 147.611 32.1813 147.611 31.8013C147.611 31.4213 147.311 31.1211 146.931 31.1211C146.551 31.1211 146.251 31.4213 146.251 31.8013C146.171 32.1813 146.481 32.4812 146.931 32.4812Z" fill="#2D2D2B"/>
<path d="M92.6106 42.6984C92.2306 42.6984 91.9307 42.9984 91.9307 43.3784C91.9307 43.7584 92.2306 44.0585 92.6106 44.0585C92.9906 44.0585 93.2906 43.7584 93.2906 43.3784C93.2906 42.9984 92.9906 42.6984 92.6106 42.6984Z" fill="#2D2D2B"/>
<defs>
<radialGradient id="paint0_radial_251_8060" cx="0" cy="0" r="1" gradientUnits="userSpaceOnUse" gradientTransform="translate(43.6234 57.7909) rotate(3.00187) scale(38.8901 38.9143)">
<stop stop-color="#00CDFE"/>
<stop offset="0.41" stop-color="#1F7CDC"/>
<stop offset="0.81" stop-color="#2A2A96"/>
</radialGradient>
<radialGradient id="paint1_radial_251_8060" cx="0" cy="0" r="1" gradientUnits="userSpaceOnUse" gradientTransform="translate(3.71619 82.111) rotate(3.00188) scale(51.17 51.202)">
<stop stop-color="#00CDFE"/>
<stop offset="0.47" stop-color="#1F7CDC"/>
<stop offset="0.8" stop-color="#2A2A96"/>
<stop offset="1" stop-color="#160C5A"/>
</radialGradient>
<radialGradient id="paint2_radial_251_8060" cx="0" cy="0" r="1" gradientUnits="userSpaceOnUse" gradientTransform="translate(5.18939 24.8345) rotate(-176.998) scale(38.8901 38.9145)">
<stop stop-color="#0AF0C8"/>
<stop offset="0.18" stop-color="#07DECE"/>
<stop offset="0.5" stop-color="#00B4DC"/>
<stop offset="1" stop-color="#005ABE"/>
</radialGradient>
<radialGradient id="paint3_radial_251_8060" cx="0" cy="0" r="1" gradientUnits="userSpaceOnUse" gradientTransform="translate(45.0959 0.524631) rotate(-176.998) scale(51.1701 51.2018)">
<stop stop-color="#0AF0C8"/>
<stop offset="0.23" stop-color="#07DECE"/>
<stop offset="0.65" stop-color="#00B4DC"/>
<stop offset="1" stop-color="#004AC3"/>
</radialGradient>
</defs>
</svg>
