<svg width="235" height="17" viewBox="0 0 235 17" fill="none" xmlns="http://www.w3.org/2000/svg">
<path fill-rule="evenodd" clip-rule="evenodd" d="M124.16 0.270614V9.49636C124.16 11.5276 124.91 12.3182 126.96 12.3182H131.93C133.99 12.3182 134.73 11.5276 134.73 9.49636V0.270614H139.75V10.5471C139.75 14.5196 137.65 16.4209 133.04 16.4209H125.85C121.24 16.4209 119.14 14.5196 119.14 10.5471V0.270614H124.16ZM201.58 0.100586C206.1 0.100586 208.79 1.2013 208.79 5.88424V10.6472C208.79 15.3202 206.1 16.4309 201.58 16.4309H193.53C189.01 16.4309 186.32 15.3302 186.32 10.6472V5.88424C186.32 1.21131 189.01 0.100586 193.53 0.100586H201.58ZM5.81006 0.270614V5.96412H16.3901V0.270614H21.41V16.2406H16.3901V10.1968H5.81006V16.2406H0.790039V0.270614H5.81006ZM38.5701 0.270614L47.5601 16.2406H41.98L40.42 13.419H30.2501L28.7801 16.2406H23.1801L32.04 0.270614H38.5701ZM54.3701 0.270614V12.1382H65.6501V16.2406H49.36V0.270614H54.3801H54.3701ZM72.79 0.270614V12.1382H84.0701V16.2406H67.7801V0.270614H72.8H72.79ZM91.48 0.270614V16.2406H86.4601V0.270614H91.48ZM109.59 0.270614C113.59 0.270614 115.53 1.33122 115.53 4.46318C115.53 7.19489 114.51 7.72538 113.11 8.12563V8.1955C115.3 8.45566 116.11 9.60644 116.11 12.0079C116.11 15.5201 113.99 16.2406 111.12 16.2406H95.1401V0.270614H109.58H109.59ZM158.28 0.270614C162.14 0.270614 163.18 2.14178 163.18 5.01357V6.02422C163.18 8.16556 162.68 9.41626 160.38 9.94659V9.98666C161.87 10.2468 163.11 10.8873 163.11 13.5189V16.2306H158.09V14.3094C158.09 12.6284 157.59 12.0781 156.03 12.0781H148.14V16.2205H143.12V0.250582H158.26L158.28 0.270614ZM184.5 0.270614V4.24307H177.45V16.2406H172.43V4.24307H165.38V0.270614H184.5ZM219.59 0.270614L229.01 11.878H229.05V0.270614H234.07V16.2406H226.29L216.87 4.63345H216.82V16.2406H211.8V0.270614H219.57H219.59ZM109.16 9.91679H100.17V12.4083H109.16C110.25 12.4083 110.97 12.168 110.97 11.2374C110.97 10.1568 110.25 9.91679 109.16 9.91679ZM200.5 4.20301H194.62C191.98 4.20301 191.48 5.41396 191.48 7.40521V9.12626C191.48 11.4377 191.98 12.3282 194.35 12.3282H200.77C203.14 12.3282 203.64 11.4477 203.64 9.12626V7.40521C203.64 5.42397 203.14 4.20301 200.5 4.20301ZM35.3 3.9829L32.1401 9.98666H38.5601L35.3101 3.9829H35.3ZM156 4.24307H148.16V8.12563H156.45C157.81 8.12563 158.3 7.59512 158.3 6.4444V5.91428C158.3 4.5034 157.58 4.23306 156 4.23306V4.24307ZM109.04 4.11311H100.16V6.60466H109.04C109.97 6.60466 110.51 6.27446 110.51 5.36389C110.51 4.45332 109.97 4.10309 109.04 4.10309V4.11311Z" fill="#CC0000"/>
</svg>
