<svg width="124" height="98" viewBox="0 0 124 98" fill="none" xmlns="http://www.w3.org/2000/svg">
<path d="M18.6802 71.5361C15.2602 69.9351 12.4601 68.6443 12.4601 66.0327C12.4601 64.0314 14.0501 62.5805 17.2101 62.5805C18.3701 62.5805 19.3102 62.7207 20.2902 62.9008C20.8002 62.9909 21.3502 63.0608 21.8002 63.0608C24.5602 63.0608 26.1101 61.4198 27.1401 58.2978L27.5701 57.0172C27.1301 56.8371 22.6301 54.8657 16.7601 54.8657C7.43013 54.8657 2.50012 60.8494 2.50012 67.0733C2.50012 70.2153 3.48013 72.4869 5.01013 74.278C6.99013 76.5795 9.81007 78.0803 12.4501 79.3711C16.3001 81.2623 19.7601 82.6532 19.7601 85.455C19.7601 87.9365 17.2001 89.3473 13.7701 89.3473C9.07014 89.3473 4.96006 86.6656 4.44006 86.3354L0.580078 93.5699C1.27008 93.9602 6.24016 97.1122 14.4102 97.1122C23.1202 97.1122 29.7201 92.1091 29.7201 84.4143C29.7201 76.7195 23.6001 73.9278 18.6501 71.5263M69.4202 96.2818H57.6101L44.7601 78.8007H44.5701V88.2367C44.5701 94.9409 39.8002 96.8019 35.7802 96.8019H35.2301V55.7264H44.5101V72.4568H44.7001L57.3102 55.7264H68.5701L52.7601 75.1184L69.4202 96.2918V96.2818ZM69.0901 11.7289C65.8201 12.3493 60.9801 15.311 60.9901 20.5642C61.0001 25.3272 64.9002 28.2192 64.9102 34.4631C64.9302 39.156 62.3402 42.3179 59.5402 44.079C60.7802 43.9689 62.0301 43.9089 63.2701 43.9089C66.1301 43.9089 67.8501 44.1791 67.9601 44.1992L82.6201 26.1979C78.5501 20.0941 73.8001 15.3712 69.0801 11.7389M81.4001 60.3391C83.2501 57.4674 83.4801 52.8846 83.6301 48.2117C83.8101 43.859 84.7102 40.5868 90.5402 40.5668C91.8302 40.5668 93.0501 40.737 95.2802 40.737C103.81 40.707 109.37 37.765 112.83 35.8338C105.76 31.321 95.4301 26.7182 82.6201 26.1979C81.7901 28.5494 75.2902 46.6105 74.8002 48.0715C74.8802 48.1615 76.0102 49.4324 77.4302 51.924C79.5202 55.3361 80.6501 58.2378 81.3901 60.3492" fill="#E31836"/>
<path d="M50.4401 45.5899C49.7001 45.5899 49.3301 45.0998 49.2301 44.2493C49.1301 43.3987 45.4702 9.8375 44.9202 4.75432C44.8502 4.01386 44.6602 2.65316 44.6602 2.16285C44.6602 1.38237 45.1701 0.972168 45.7601 0.972168C47.5001 0.972168 56.9701 3.18355 67.0101 10.228C64.1101 11.0485 58.8801 14.0502 58.9001 20.2941C58.9201 25.8175 62.8701 28.8495 62.8901 34.393C62.9201 43.3986 52.5702 45.5799 50.4302 45.5799M82.2501 62.7308C82.4001 63.1511 82.5501 63.5013 82.7001 63.7515C82.9301 64.1417 83.2301 64.3216 83.6001 64.3216C83.8301 64.3216 84.1201 64.2416 84.4401 64.0915C85.2101 63.7413 115.82 49.4824 120.44 47.3511C121.11 47.0309 122.38 46.4606 122.79 46.2205C123.23 45.9803 123.43 45.6201 123.43 45.2499C123.43 45.0398 123.37 44.8295 123.25 44.6494C122.67 43.7088 119.71 40.5668 114.76 37.1347C110.83 39.2961 104.69 42.6482 95.5602 42.6882C93.3202 42.6882 92.8102 42.538 91.2902 42.548C86.8302 42.568 85.7202 44.4793 85.5502 48.3817C85.5202 49.1222 85.5101 50.1129 85.4701 51.2036C85.3301 54.6958 84.9101 59.5188 82.2501 62.7408" fill="#F47725"/>
</svg>
