<svg width="216" height="38" viewBox="0 0 216 38" fill="none" xmlns="http://www.w3.org/2000/svg">
<path d="M49.9495 12.8824V13.2024C49.9495 14.7133 50.6295 14.9635 52.5695 14.9635H59.5695C60.8995 14.9635 61.4695 14.5732 61.4695 13.4525C61.4695 12.1217 60.5695 11.9117 58.7795 11.8717L50.0195 11.5815C45.7895 11.4414 44.4196 10.3207 44.4196 6.08807C44.4196 4.07682 44.7795 2.7159 45.7095 1.77532C47.0395 0.484508 49.0495 0.334473 51.9895 0.334473H60.4895C64.6195 0.334473 66.4495 1.7353 66.4495 5.28752C66.4495 5.57771 66.4095 5.93793 66.4095 6.28815H61.0295V6.21804C61.0295 4.99727 60.4195 4.38706 59.1995 4.38706H52.7795C51.0595 4.38706 50.1595 4.52709 50.1595 5.8279C50.1595 6.97862 50.8095 7.29883 52.3495 7.33886L61.4995 7.55897C65.6995 7.66903 67.2095 9.25002 67.2095 13.5527C67.2095 15.8842 66.7795 17.255 65.1595 18.3257C64.0495 19.0762 62.1795 19.2262 59.5295 19.2262H52.0995C46.4695 19.2262 44.4595 18.3658 44.4595 14.3432C44.4595 14.1231 44.4995 13.6228 44.5295 12.8724H49.9495V12.8824ZM72.1696 18.986L66.3595 0.564597H71.9196L75.6895 13.6729L80.3495 0.564597H85.4495L89.8595 13.6729L93.8795 0.564597H99.4095L93.3495 18.986H87.0695L82.8395 6.30818L78.5695 18.986H72.1796H72.1696ZM111.349 11.4813L107.829 4.98729L104.39 11.4813H111.349ZM94.4095 18.986L104.349 0.564597H111.449L121.25 18.986H115.15L113.39 15.9341H102.27L100.479 18.986H94.4196H94.4095ZM137.76 7.0286C137.76 5.55768 136.829 4.94722 134.819 4.94722H130.37C126.75 4.94722 125.88 5.41764 125.88 8.56961V11.1213C125.88 13.9931 127.1 14.6034 130.37 14.6034H133.599C136.689 14.6034 137.91 14.2832 137.91 12.0518V11.8717H143.54C143.58 12.342 143.579 12.7721 143.579 13.2024C143.579 15.5038 143.04 17.0048 141.75 17.9754C140.39 19.0161 138.2 19.2362 135 19.2362H128.79C125.92 19.2362 123.87 19.0962 122.3 17.8755C120.76 16.6547 120.18 15.0036 120.18 12.492V7.46882C120.18 1.93536 122.55 0.364521 128.79 0.364521H135C138.19 0.364521 140.35 0.50454 141.67 1.54519C142.85 2.44576 143.359 3.9866 143.359 6.17797C143.359 6.49818 143.359 6.85844 143.319 7.21867H137.719V7.03862H137.76V7.0286ZM0.689453 18.986V0.564597H8.90955L15.3995 12.0918L22.0396 0.564597H30.1495V18.986H24.7295V5.87798L17.2295 18.986H13.5695L6.1095 5.87798V18.986H0.689453Z" fill="black"/>
<path d="M31.8691 0.564575H37.2191C36.3591 2.82599 34.3491 4.51704 31.8691 5.05738V0.564575Z" fill="#EC7405"/>
<path d="M31.8691 18.986V6.59841C34.0191 6.20816 35.9191 5.12744 37.2491 3.54645V18.986H31.8691Z" fill="black"/>
<path d="M193.229 12.8423C193.229 12.8423 158.999 28.2118 97.5293 27.7115C97.5293 27.7115 159.969 32.8848 202.229 12.8423H193.219H193.229Z" fill="#EC7405"/>
<path d="M207.01 12.8423C207.01 12.8423 173.32 29.3925 111.89 30.9735C111.89 30.9735 174.36 34.2457 215.98 12.8423H207.01Z" fill="#EC7405"/>
<path d="M2.83972 28.6823H3.94971L6.1698 35.4664H5.19971L4.69971 33.8555H2.07971L1.57971 35.4664H0.719727L2.83972 28.6823ZM3.33972 29.4726L2.25977 33.095H4.44971L3.33972 29.4726ZM9.7998 33.4551V33.6754C9.7998 34.606 10.3697 34.8962 10.9497 34.8962C11.6297 34.8962 12.1698 34.6059 12.1698 33.7854C12.1698 32.2744 9.11975 32.4547 9.11975 30.4134C9.11975 29.1926 9.97976 28.5822 11.1298 28.5822C12.3898 28.5822 13.0698 29.1925 12.9998 30.5534H12.0997C12.0997 29.8029 11.8798 29.3326 11.0598 29.3326C10.5598 29.3326 10.0198 29.5828 10.0198 30.3333C10.0198 31.8442 13.0697 31.624 13.0697 33.7754C13.0697 35.2163 12.0697 35.6767 10.9497 35.6767C8.93971 35.6767 8.93974 34.1656 8.97974 33.5252H9.80981V33.4551H9.7998ZM16.7598 32.2344C16.7998 31.4439 16.3997 31.2337 16.1097 31.2337C15.4997 31.2337 15.1097 31.524 15.1097 32.8148C15.1097 34.3558 15.3297 34.8962 16.1097 34.8962C16.2897 34.8962 16.8298 34.716 16.7898 33.8555H17.6198C17.6598 35.1863 16.6497 35.5465 16.1097 35.5465C15.1097 35.5465 14.3197 35.2564 14.3197 33.1451C14.3197 31.7442 14.4597 30.5934 16.1097 30.5934C17.0797 30.5934 17.6197 31.1336 17.5797 32.2043H16.7498V32.2444L16.7598 32.2344ZM21.5697 35.4664V32.2344C21.5697 31.664 21.3897 31.2337 20.7097 31.2337C19.9197 31.2337 19.7397 31.8443 19.7397 32.6748V35.4764H18.9897V28.6921H19.7397V31.3539H19.7798C20.0998 30.8136 20.4597 30.6335 21.0697 30.6335C21.8997 30.6335 22.3297 31.0237 22.3297 32.1044V35.4764H21.5797L21.5697 35.4664ZM24.4397 28.6823H23.6897V35.4664H24.4397V28.6823ZM28.3497 30.6934H29.0997V34.4657C29.0997 34.7859 29.1398 35.1161 29.1398 35.4664H28.3098V34.8962H28.2698C28.0198 35.3264 27.5498 35.5765 27.0498 35.5765C26.2198 35.5765 25.7598 35.1463 25.7598 34.3558V30.7334H26.5897V34.0355C26.5897 34.6059 26.8398 35.0061 27.4198 35.0061C27.8498 35.0061 28.3497 34.686 28.3497 33.8956V30.7034V30.6934ZM32.8397 35.4664V32.1645C32.8397 31.6942 32.6997 31.2337 32.0897 31.2337C31.8397 31.2337 31.5498 31.3739 31.4098 31.554C31.2698 31.8042 31.2297 32.0542 31.2297 32.2344V35.4265H30.4797V31.6542C30.4797 31.334 30.4397 31.0038 30.4397 30.6535H31.2698V31.2638H31.3098C31.5298 30.7635 31.9597 30.5834 32.4897 30.5834C32.9197 30.5834 33.4197 30.7634 33.5997 31.1937C33.8497 30.6934 34.2798 30.5834 34.7498 30.5834C35.2498 30.5834 36.0398 30.6935 36.0398 31.8042V35.4265H35.2097V32.1244C35.2097 31.6541 35.0697 31.1937 34.4597 31.1937C34.1697 31.1937 34.0998 31.1938 33.8898 31.374C33.6798 31.5541 33.6398 32.0242 33.6398 32.2043V35.3965H32.8497V35.4664H32.8397ZM38.1498 35.4664H37.3597V28.6823H38.1097V31.1937H38.1498C38.3998 30.8034 38.7597 30.6235 39.1897 30.6235C40.7297 30.6235 40.7698 31.9844 40.7698 33.1751C40.7698 35.2564 39.9797 35.5765 39.2297 35.5765C38.7297 35.5765 38.3998 35.3565 38.1498 34.9262H38.1097V35.4664H38.1498ZM39.0098 34.9262C39.9798 34.9262 39.9797 33.8856 39.9797 33.1651C39.9797 31.9043 39.8698 31.2237 39.0498 31.2237C38.2298 31.2237 38.1498 32.2245 38.1498 32.8749C38.1498 33.6254 38.0398 34.9262 39.0098 34.9262ZM42.7798 33.3452C42.7798 34.676 43.1398 34.9262 43.7498 34.9262C44.2898 34.9262 44.5397 34.4958 44.5797 34.0255H45.4397C45.4397 35.0662 44.7898 35.5665 43.7898 35.5665C42.7898 35.5665 41.9998 35.2764 41.9998 33.1651C41.9998 31.7642 42.1398 30.6135 43.7898 30.6135C45.1498 30.6135 45.4797 31.3638 45.4797 32.9448V33.3351H42.7898L42.7798 33.3452ZM44.6097 32.7347C44.6097 31.3338 44.2198 31.1937 43.6398 31.1937C43.1398 31.1937 42.7397 31.4439 42.7397 32.7347H44.6097ZM47.5098 31.404C47.8298 30.6836 48.2297 30.5734 48.9797 30.5734V31.3639C48.9097 31.3639 48.8398 31.3239 48.7598 31.3239C48.6798 31.3239 48.6198 31.2838 48.5398 31.2838C47.6798 31.2838 47.4597 31.9343 47.4597 32.5747V35.3765H46.6698V30.6335H47.4597V31.384H47.4998L47.5098 31.404ZM52.3597 30.6934H53.1498V35.9369C53.1498 37.0175 52.4298 37.2675 51.3898 37.2675C50.5998 37.2675 49.8797 36.8773 49.9497 36.0067H50.8098C50.8098 36.437 51.0998 36.6873 51.5298 36.6873C52.0698 36.6873 52.3597 36.3671 52.3597 35.8567V34.8561H52.3197C52.0997 35.2163 51.6698 35.4664 51.2798 35.4664C49.9898 35.4664 49.7397 34.3557 49.7397 32.9548C49.7397 30.7634 50.8497 30.6235 51.2097 30.6235C51.7097 30.6235 52.1097 30.8436 52.3197 31.3038V30.6934H52.3597ZM51.4597 31.2638C50.5997 31.2638 50.5598 32.3044 50.5598 32.9548C50.5598 34.4657 50.9197 34.8261 51.4897 34.8261C52.4197 34.8261 52.3898 33.7154 52.3898 33.065C52.3898 32.3445 52.4297 31.2738 51.4597 31.2738V31.2638ZM55.2998 33.3452C55.2998 34.676 55.6598 34.9262 56.2698 34.9262C56.8098 34.9262 57.0597 34.4958 57.0997 34.0255H57.9597C57.9597 35.0662 57.3098 35.5665 56.3098 35.5665C55.3098 35.5665 54.5198 35.2764 54.5198 33.1651C54.5198 31.7642 54.6598 30.6135 56.3098 30.6135C57.6698 30.6135 57.9998 31.3638 57.9998 32.9448V33.3351H55.3098L55.2998 33.3452ZM57.1698 32.7347C57.1698 31.3338 56.7797 31.1937 56.1997 31.1937C55.6997 31.1937 55.2998 31.4439 55.2998 32.7347H57.1698ZM60.0697 31.404C60.3897 30.6836 60.7898 30.5734 61.5398 30.5734V31.3639C61.4698 31.3639 61.3997 31.3239 61.3197 31.3239C61.2397 31.3239 61.1797 31.2838 61.0997 31.2838C60.2397 31.2838 60.0198 31.9343 60.0198 32.5747V35.3765H59.2297V30.6335H60.0198V31.384H60.0598L60.0697 31.404ZM67.5697 30.5434C67.5697 30.1531 67.5297 29.7929 67.3497 29.5427C67.1697 29.3226 66.7797 29.2525 66.5997 29.2525C65.8797 29.2525 65.5998 29.6828 65.5598 29.7929C65.5198 29.8629 65.3397 30.0429 65.3397 31.1937V33.0249C65.3397 34.6759 65.8798 34.8962 66.5598 34.8962C66.8098 34.8962 67.6398 34.7859 67.6398 33.4551H68.5398C68.5798 35.6064 67.0697 35.6066 66.5997 35.6066C65.7397 35.6066 64.4497 35.5366 64.4497 32.915V31.0136C64.4497 29.0724 65.3098 28.5321 66.6398 28.5321C67.9698 28.5321 68.5098 29.2125 68.4298 30.5434H67.5697ZM69.6198 33.1651C69.6198 31.7642 69.7598 30.6135 71.4098 30.6135C73.0598 30.6135 73.1997 31.7642 73.1997 33.1651C73.1997 35.2864 72.4098 35.5665 71.4098 35.5665C70.4098 35.5665 69.6198 35.2464 69.6198 33.1651ZM72.4198 32.8048C72.4198 31.514 72.0298 31.2237 71.4198 31.2237C70.8098 31.2237 70.4198 31.514 70.4198 32.8048C70.4198 34.3457 70.6398 34.9262 71.4198 34.9262C72.1998 34.9262 72.4198 34.3858 72.4198 32.8048ZM76.7898 35.4664V32.1645C76.7898 31.6942 76.6498 31.2337 76.0398 31.2337C75.7898 31.2337 75.4997 31.3739 75.3597 31.554C75.2197 31.8042 75.1798 32.0542 75.1798 32.2344V35.4265H74.3898V31.6542C74.3898 31.334 74.3497 31.0038 74.3497 30.6535H75.1798V31.2638H75.2197C75.4397 30.7635 75.8698 30.5834 76.3998 30.5834C76.8298 30.5834 77.3298 30.7634 77.5098 31.1937C77.7598 30.6934 78.1898 30.5834 78.6198 30.5834C79.1198 30.5834 79.9098 30.6935 79.9098 31.8042V35.4265H79.1198V32.1244C79.1198 31.6541 78.9798 31.1937 78.3698 31.1937C78.0798 31.1937 77.9798 31.1938 77.7998 31.374C77.5798 31.5541 77.5498 32.0242 77.5498 32.2043V35.3965H76.7998V35.4664H76.7898ZM82.0697 31.2638C82.3597 30.8335 82.6798 30.6135 83.1798 30.6135C83.9298 30.6135 84.7197 30.9036 84.7197 33.0149C84.7197 34.1956 84.6798 35.5665 83.1398 35.5665C82.6698 35.5665 82.3497 35.3463 82.0997 34.9961H82.0598V37.2575H81.2698V30.6836H82.0598V31.2538L82.0697 31.2638ZM83.8998 32.9848C83.8998 32.2644 83.8998 31.2237 82.9298 31.2237C81.9598 31.2237 82.0697 32.5546 82.0697 33.275C82.0697 33.9255 82.1097 34.9262 82.9697 34.9262C83.8297 34.9262 83.8998 34.2756 83.8998 32.9848ZM88.3798 34.786C88.1298 35.3263 87.7698 35.5765 87.1598 35.5765C86.1598 35.5765 85.8698 34.9261 85.8698 33.9955C85.8698 32.5546 87.2698 32.4846 88.3798 32.5246C88.4198 31.8742 88.4197 31.1937 87.5897 31.1937C87.0897 31.1937 86.7997 31.554 86.8397 32.0543H86.0098C86.0498 30.9736 86.6198 30.6135 87.6198 30.6135C88.8398 30.6135 89.1598 31.2638 89.1598 32.0543V34.3558C89.1598 34.746 89.1998 35.1062 89.2698 35.5064H88.4098V34.786H88.3698H88.3798ZM86.6598 34.0656C86.6598 34.5359 86.8798 34.9262 87.4098 34.9262C87.8798 34.9262 88.4498 34.636 88.3798 33.095C87.6298 33.095 86.6598 33.0549 86.6598 34.0656ZM93.2297 35.4664V32.1645C93.2297 31.6642 93.0498 31.2337 92.3998 31.2337C91.5398 31.2337 91.4298 31.9843 91.4298 32.6348V35.4366H90.6798V31.6642C90.6798 31.344 90.6398 31.0138 90.6398 30.6635H91.4697V31.2738H91.5098C91.7998 30.7335 92.1598 30.5534 92.7698 30.5534C93.7698 30.5534 94.0298 31.1638 94.0298 32.0944V35.3965H93.2397V35.4664H93.2297ZM96.7798 34.5659H96.8197L97.9697 30.6836H98.7998L96.6498 37.2575H95.8597L96.3998 35.4664L94.7898 30.6934H95.6897L96.7998 34.5759L96.7798 34.5659ZM158.89 14.6034C162.41 14.6034 163.77 14.0631 163.77 11.0812V8.49953C163.77 5.51766 162.41 4.9773 158.89 4.9773H155.34C151.75 4.9773 150.46 5.47773 150.46 8.59969V11.1513C150.46 14.0632 151.82 14.5934 155.34 14.5934H158.89V14.6034ZM146.8 17.9056C145.33 16.7949 144.83 15.1036 144.83 12.452V7.45884C144.83 4.62706 145.3 2.82591 146.8 1.67519C148.27 0.56449 150.53 0.384583 153.83 0.384583H160.36C163.66 0.384583 165.99 0.56449 167.43 1.67519C168.79 2.75586 169.37 4.50702 169.37 7.23873V12.3721C169.37 15.1038 168.83 16.8247 167.43 17.9354C165.92 19.0861 163.66 19.2262 160.36 19.2262H153.87C150.64 19.1862 148.38 19.0463 146.8 17.8955V17.9056Z" fill="black"/>
<path d="M178.699 12.8423C178.699 12.8423 144.039 26.8411 82.6094 23.8993C82.6094 23.8993 145.049 31.2638 188.099 12.8022L178.699 12.8423Z" fill="#EC7405"/>
</svg>
