<svg width="39" height="55" viewBox="0 0 39 55" fill="none" xmlns="http://www.w3.org/2000/svg">
<path d="M19.4598 32.7501C15.1398 32.7501 11.1399 30.5801 8.77989 26.9601C8.50989 26.5401 8.6299 25.9801 9.0399 25.7101C9.4599 25.4401 10.0199 25.5601 10.2899 25.9701C12.3199 29.0801 15.7498 30.9401 19.4598 30.9401C25.4898 30.9401 30.3999 26.0301 30.3999 20.0001C30.3999 19.0801 30.2899 18.1702 30.0599 17.2902C29.9399 16.8102 30.2298 16.3201 30.7098 16.1901C31.1898 16.0601 31.6799 16.3602 31.8099 16.8402C32.0699 17.8702 32.1998 18.9301 32.1998 20.0001C32.1998 27.0301 26.4798 32.7501 19.4498 32.7501H19.4598Z" fill="#2E3190"/>
<path d="M7.97998 23.8301C7.57998 23.8301 7.20999 23.5599 7.10999 23.1499C6.84999 22.1299 6.71997 21.07 6.71997 20C6.71997 12.97 12.44 7.25 19.47 7.25C23.82 7.25 27.8201 9.43009 30.1801 13.0901C30.4501 13.5101 30.33 14.0701 29.91 14.3401C29.49 14.6101 28.93 14.4901 28.66 14.0701C26.63 10.9301 23.19 9.06006 19.46 9.06006C13.43 9.06006 8.52002 13.97 8.52002 20C8.52002 20.92 8.62999 21.83 8.85999 22.71C8.97999 23.19 8.68996 23.6801 8.20996 23.8101C8.13996 23.8301 8.05999 23.8401 7.98999 23.8401L7.97998 23.8301Z" fill="#2E3190"/>
<path d="M31.7 36.3799C31.35 36.3799 31.01 36.1701 30.87 35.8301L30.48 34.8899C30.29 34.4299 30.5 33.9 30.96 33.71C31.42 33.52 31.95 33.73 32.14 34.19L32.5301 35.1299C32.7201 35.5899 32.5101 36.1201 32.0501 36.3101C31.9401 36.3601 31.82 36.3799 31.7 36.3799Z" fill="#2E3190"/>
<path d="M28.05 54.22C27.6899 54.22 27.3599 53.9999 27.2199 53.6699L22.3699 42.0801C22.1799 41.6201 22.3899 41.0899 22.8499 40.8999C23.3099 40.7099 23.8399 40.9199 24.0299 41.3799L27.7299 50.23L28.9199 44.0901C28.9799 43.7901 29.1799 43.55 29.4599 43.43C29.7399 43.31 30.06 43.34 30.31 43.51L35.5199 46.97L30.8599 35.8301C30.6699 35.3701 30.8799 34.8399 31.3399 34.6499C31.7999 34.4599 32.3299 34.6699 32.5199 35.1299L38.3299 49.01C38.4799 49.38 38.3798 49.8001 38.0698 50.0501C37.7598 50.3001 37.3299 50.3201 36.9999 50.1101L30.4398 45.75L28.9398 53.49C28.8598 53.88 28.5399 54.18 28.1499 54.22C28.1199 54.22 28.09 54.22 28.06 54.22H28.05Z" fill="#2E3190"/>
<path d="M10.5698 54.2201C10.5198 54.2201 10.4699 54.2201 10.4199 54.2101C10.0299 54.1401 9.72993 53.83 9.67993 53.43L8.70984 45.6102L1.85986 49.5101C1.50986 49.7101 1.07991 49.65 0.789915 49.38C0.499915 49.11 0.429861 48.6802 0.609861 48.3202L5.49988 38.5802C5.71988 38.1402 6.25984 37.95 6.70984 38.18C7.15984 38.4 7.32986 38.95 7.10986 39.39L3.55993 46.4701L8.99988 43.38C9.25988 43.23 9.57985 43.2202 9.84985 43.3602C10.1199 43.4902 10.2998 43.7602 10.3398 44.0502L11.1099 50.2601L16.6898 39.15C16.9098 38.71 17.4499 38.5201 17.8999 38.7501C18.3499 38.9701 18.5199 39.5201 18.2999 39.9601L11.3899 53.7301C11.2399 54.0401 10.9198 54.2301 10.5798 54.2301L10.5698 54.2201Z" fill="#2E3190"/>
<path d="M19.4599 39.8798C18.8499 39.8798 18.2399 39.69 17.7099 39.31L14.3499 36.87C14.1499 36.73 13.91 36.6498 13.66 36.6498H9.50997C8.21997 36.6498 7.08002 35.82 6.68002 34.6L5.39999 30.6498C5.31999 30.4098 5.17994 30.21 4.97994 30.07L1.61996 27.6298C0.569957 26.8698 0.14 25.53 0.54 24.31L1.81991 20.37C1.89991 20.14 1.89991 19.8798 1.81991 19.6498L0.54 15.6999C0.14 14.4699 0.569957 13.1398 1.61996 12.3798L4.97994 9.93987C5.17994 9.79987 5.32999 9.59004 5.39999 9.36004L6.68002 5.40984C7.08002 4.17984 8.21997 3.36004 9.50997 3.36004H13.66C13.91 3.36004 14.1499 3.27982 14.3499 3.13982L17.7099 0.699883C18.7599 -0.0601172 20.1599 -0.0601172 21.2099 0.699883L24.5699 3.13982C24.7699 3.28982 25.01 3.36004 25.26 3.36004H29.41C30.7 3.36004 31.84 4.18984 32.24 5.40984L33.52 9.36004C33.6 9.59004 33.7499 9.79987 33.9399 9.93987L37.3 12.3798C38.34 13.1398 38.78 14.4699 38.38 15.6999L37.0999 19.6498C37.0199 19.8798 37.0199 20.14 37.0999 20.37L38.38 24.32C38.78 25.55 38.34 26.8798 37.3 27.6398L33.9399 30.08C33.7399 30.23 33.59 30.4299 33.52 30.6699L32.24 34.61C31.84 35.84 30.71 36.6598 29.41 36.6598H25.26C25.01 36.6598 24.7699 36.7398 24.5699 36.8798L21.2199 39.32C20.6999 39.7 20.0799 39.8898 19.4699 39.8898L19.4599 39.8798ZM9.51998 5.14983C9.00998 5.14983 8.56999 5.47989 8.41 5.95989L7.12997 9.89983C6.92997 10.4998 6.56001 11.0198 6.05001 11.3898L2.69991 13.83C2.28991 14.13 2.11999 14.6498 2.27999 15.1398L3.56002 19.09C3.76002 19.69 3.76002 20.3299 3.56002 20.9299L2.27999 24.87C2.11999 25.35 2.28991 25.8799 2.69991 26.1799L6.06002 28.62C6.57002 28.99 6.94998 29.51 7.13998 30.11L8.42 34.06C8.58 34.54 9.01999 34.87 9.52999 34.87H13.68C14.31 34.87 14.91 35.0699 15.43 35.4399L18.79 37.8798C19.2 38.1798 19.75 38.1798 20.16 37.8798L23.52 35.4399C24.03 35.0699 24.64 34.87 25.27 34.87H29.42C29.93 34.87 30.37 34.55 30.53 34.06L31.81 30.11C32.01 29.51 32.38 28.99 32.89 28.62L36.25 26.1799C36.66 25.8799 36.83 25.36 36.67 24.87L35.39 20.9199C35.19 20.3199 35.19 19.68 35.39 19.08L36.67 15.1398C36.83 14.6598 36.66 14.13 36.25 13.83L32.89 11.3898C32.38 11.0198 32.01 10.5098 31.81 9.89983L30.53 5.94988C30.37 5.46988 29.93 5.13982 29.42 5.13982H25.27C24.64 5.13982 24.03 4.94 23.52 4.57L20.16 2.12981C19.75 1.82981 19.2 1.82981 18.79 2.12981L15.43 4.57C14.92 4.94 14.31 5.13982 13.68 5.13982H9.52999L9.51998 5.14983Z" fill="#2E3190"/>
</svg>
