<svg width="105" height="105" viewBox="0 0 105 105" fill="none" xmlns="http://www.w3.org/2000/svg">
<path d="M53.0003 0.779987C81.0903 0.599987 104.6 24.11 104.45 52.8C104.3 80.51 81.3903 104.42 52.2903 104.19C23.9303 103.96 0.730229 80.6299 0.970229 51.9599C1.22023 23.2399 25.1303 0.279987 53.0003 0.779987Z" fill="url(#paint0_linear_1_19)"/>
<path d="M60.2502 74.0101C60.2502 78.4301 60.2602 82.8501 60.2502 87.2701C60.2402 90.1601 60.0502 90.35 57.1502 90.36C54.6402 90.37 52.1302 90.3001 49.6102 90.2601C49.1802 90.2601 48.7402 90.2201 48.3202 90.1401C47.7502 90.0401 47.3802 89.66 47.3302 89.09C47.2502 88.23 47.2302 87.3601 47.2302 86.5001C47.2402 78.1801 47.2702 69.8601 47.2802 61.5501C47.2802 59.1768 46.0735 57.9834 43.6602 57.97C41.7502 57.97 39.8502 57.9701 37.9402 57.9101C36.8802 57.8701 36.4902 57.51 36.4702 56.48C36.4302 53.28 36.4302 50.0701 36.4702 46.8701C36.4902 45.7601 36.9002 45.4201 38.1602 45.3901C40.0602 45.3401 41.9702 45.38 43.8802 45.36C44.6602 45.36 45.4402 45.3301 46.2102 45.2601C46.7902 45.2001 47.1502 44.8101 47.2102 44.2401C47.2802 43.5501 47.3002 42.8601 47.3002 42.1701C47.3202 39.8301 47.3102 37.4901 47.3302 35.1501C47.3502 32.7801 47.8602 30.51 48.8002 28.34C50.9002 23.47 54.7102 20.7701 59.8402 19.8901C62.0602 19.5101 64.3102 19.3901 66.5702 19.6401C68.1202 19.8101 69.6902 19.7701 71.2402 19.8901C72.7502 20.0101 73.1402 20.3401 73.1602 21.7601C73.2102 24.3601 73.2102 26.9601 73.1402 29.5601C73.1102 30.9201 72.7403 31.26 71.4203 31.32C69.8603 31.38 68.3002 31.37 66.7402 31.36C65.6002 31.36 64.5003 31.49 63.4203 31.86C61.9003 32.38 60.9402 33.41 60.5902 34.97C60.4802 35.47 60.3702 35.9901 60.3702 36.5101C60.3402 38.8501 60.3102 41.1901 60.3502 43.5301C60.3802 45.0401 60.6702 45.32 62.2302 45.36C64.5702 45.41 66.9102 45.3701 69.2502 45.3801C70.0302 45.3801 70.8102 45.39 71.5902 45.46C72.1902 45.51 72.5002 45.9101 72.5202 46.5101C72.5202 46.6801 72.5202 46.8601 72.5002 47.0301C72.0802 50.2101 71.6702 53.3801 71.2102 56.5601C71.0602 57.6101 70.7202 57.94 69.6902 57.97C67.7002 58.03 65.7102 58.0001 63.7102 58.0301C62.9302 58.0401 62.1502 58.0801 61.3802 58.1801C60.8202 58.2601 60.4502 58.64 60.4002 59.23C60.3502 59.92 60.3103 60.6101 60.3103 61.3001C60.3103 65.5501 60.3103 69.7901 60.3103 74.0401H60.2502V74.0101Z" fill="white"/>
<defs>
<linearGradient id="paint0_linear_1_19" x1="0.970229" y1="52.4799" x2="104.45" y2="52.4799" gradientUnits="userSpaceOnUse">
<stop stop-color="#ED801B"/>
<stop offset="0.38" stop-color="#E57114"/>
<stop offset="1" stop-color="#D45107"/>
</linearGradient>
</defs>
</svg>
