<svg width="194" height="202" viewBox="0 0 194 202" fill="none" xmlns="http://www.w3.org/2000/svg">
<g opacity="0.1">
<mask id="mask0_107_1098" style="mask-type:luminance" maskUnits="userSpaceOnUse" x="0" y="0" width="338" height="203">
<path d="M337.631 0H0V202.38H337.631V0Z" fill="white"/>
</mask>
<g mask="url(#mask0_107_1098)">
<path d="M79.6808 185.701H20.8672V193.477H79.6808V185.701Z" fill="#D6D7D8"/>
<path d="M105.141 267.559H75.9219V126.709H105.141V267.559ZM83.4125 260.068H97.6506V134.2H83.4125V260.068Z" fill="#D6D7D8"/>
<path d="M167.707 276.015C167.151 276 112.053 273.553 97.7924 217.194L97.6799 216.279V171.013L98.0026 170.284C99.0234 168.01 123.567 114.751 172.991 116.987L172.645 124.418C131.102 122.361 108.09 166.569 105.11 172.649V215.813C118.14 266.221 165.913 268.51 167.947 268.585L167.699 276.015H167.707Z" fill="#D6D7D8"/>
<path d="M167.845 228.843V250.317L162.854 248.815L154.8 251.998L148.803 245.633L138.318 246.008V237.579L128.951 237.392V229.901L120.335 222.974L122.766 214.733L114.713 207.43L118.833 200.314L112.469 191.698L118.833 184.583L116.026 176.529L122.954 170.532L119.959 163.417L129.514 159.672L128.763 151.806L139.069 149.374L140.164 142.071H150.687L156.309 136.449L158.928 138.694C158.928 138.694 165.736 137.38 167.86 137.943V155.551C167.86 155.551 140.577 161.736 141.14 195.443C141.14 195.443 138.205 221.037 167.86 228.843H167.845Z" fill="#D6D7D8"/>
<path d="M201.553 137.192V261.559C201.553 261.559 213.292 273.545 204.053 277.043C204.053 277.043 188.321 279.039 187.57 273.05V125.205C187.57 125.205 200.12 112.656 209.674 120.146C209.674 120.146 213.667 125.956 201.561 137.192H201.553Z" fill="#D6D7D8"/>
<path d="M183.072 123.705V272.796C183.072 272.796 174.08 279.536 166.589 272.796C166.589 272.796 161.328 267.054 171.078 254.317V139.94V115.72L185.819 121.964C185.819 121.964 183.635 122.587 183.072 123.713V123.705Z" fill="#D6D7D8"/>
<path d="M171.079 120.148H165.172V138.695H171.079V120.148Z" fill="#D6D7D8"/>
<path d="M9.32459 122.414C10.1127 123.322 11.3136 125.011 12.9423 127.473L8.14626 130.708L9.15198 132.464L10.2028 134.198C9.74494 134.941 8.0862 136.119 5.22658 137.725C4.64865 136.997 4.06324 136.172 3.46279 135.241C2.92239 134.423 2.36699 133.515 1.78906 132.524C2.02174 132.471 2.35192 132.336 2.75722 132.111L4.28838 131.248C5.47426 130.513 6.1348 130.002 6.29992 129.724L6.18732 129.477L5.42925 127.871L4.31092 125.754L9.33211 122.421L9.32459 122.414ZM30.1826 125.701L30.7906 125.926L31.7663 126.294L32.8396 126.812L34.2657 123.307L43.9328 126.97L37.5156 144.173C38.6639 145.403 39.6772 146.785 40.5328 148.323C41.3885 149.862 42.1015 151.566 42.6719 153.442C43.2423 155.318 43.52 157.12 43.4975 158.846C43.475 160.572 43.1822 162.201 42.6193 163.717C41.5835 166.502 40.0074 168.333 37.9059 169.211C35.8043 170.097 33.3799 170.022 30.6179 168.994C29.3269 168.513 27.9835 167.785 26.6024 166.809C25.2139 165.834 23.8404 164.648 22.4819 163.267C20.9282 161.728 19.7273 160.287 18.8867 158.936C18.0536 157.585 17.5507 156.294 17.3856 155.056C17.8284 155.221 18.3839 155.589 19.0594 156.159C19.4197 156.452 19.7949 156.789 20.1927 157.165C20.5905 157.547 21.1008 158.051 21.7163 158.674C23.5552 160.557 25.3115 161.811 26.9927 162.434C29.1093 163.229 31.0833 163.064 32.8846 161.939C33.6351 161.383 34.3107 160.707 34.9111 159.912C35.5116 159.116 36.0219 158.156 36.4497 157.015C36.9226 155.739 37.4255 153.164 37.9659 149.299L37.7707 149.164C36.2396 148.594 34.731 149.314 33.2524 151.333L32.089 153.172C31.5562 154.11 31.0833 155.123 30.6855 156.211C29.6873 155.641 28.674 154.883 27.6307 153.937C27.0828 153.457 26.5199 152.917 25.9269 152.316C25.334 151.716 24.7261 151.055 24.0881 150.312L31.5636 130.25C30.0475 130.115 28.5088 130.085 26.9777 130.152C25.5441 130.175 24.0206 130.295 22.4294 130.52L16.7476 125.018C22.5044 124.268 26.9777 124.493 30.1901 125.686L30.1826 125.701ZM47.9258 159.619C49.1867 160.887 50.0198 161.953 50.4251 162.824C50.2525 163.117 49.1942 163.867 47.2578 165.076C47.4904 165.759 47.9408 166.532 48.6013 167.402C47.9108 168.461 46.785 169.204 45.2313 169.646L42.912 166.449C42.9796 166.397 43.0321 166.344 43.0921 166.307C43.3624 166.111 43.7827 165.849 44.3531 165.518C45.2613 165.083 45.7717 164.7 45.8918 164.385C45.9068 164.348 45.9068 164.318 45.8918 164.295C45.8468 164.1 45.7566 163.89 45.6441 163.665L44.5558 161.736L46.0944 160.692L47.9408 159.612L47.9258 159.619Z" fill="#D6D7D8"/>
<path d="M40.7266 111.359L51.2344 119.555L42.5353 132.953L33.6788 127.196L40.8391 116.17L40.7715 116.065C38.3172 115.344 35.4351 114.774 32.1101 114.384L27.7344 107.929C28.2523 107.929 28.7327 107.951 29.1905 107.989C29.6333 108.019 30.2187 108.079 30.9393 108.146C31.5022 108.214 31.9225 108.282 32.2002 108.327C33.1535 108.454 33.919 108.574 34.5044 108.687C35.6603 108.972 36.7711 109.347 37.8144 109.805C38.8577 110.263 39.8259 110.781 40.7266 111.366V111.359ZM57.4714 125.807C58.5673 127.406 59.3854 129.005 59.9032 130.588C59.5655 130.904 58.8374 131.234 57.7341 131.586L55.3624 132.284L55.8428 133.568L56.6233 135.444C55.3849 136.375 53.7862 136.915 51.8272 137.051L49.6357 132.277C50.9717 132.165 52.3977 131.766 53.9213 131.083C53.8688 130.648 53.6887 130.033 53.396 129.245C52.9757 128.367 52.7279 127.751 52.6679 127.406L57.479 125.815L57.4714 125.807Z" fill="#D6D7D8"/>
<path d="M65.1677 102.517L63.3138 104.694L65.0326 107.921L66.8339 111.224C68.0948 114.309 68.1323 116.56 66.9314 117.964C65.8807 119.202 64.3646 120.546 62.3831 122.002C60.169 123.525 58.3751 124.411 57.0166 124.644C60.8144 120.17 62.0754 114.511 60.7919 107.659C58.5853 109.73 57.0467 110.939 56.1835 111.284C54.3972 112.11 52.5583 111.734 50.6894 110.143C49.6761 109.28 48.6479 108.177 47.6196 106.856C46.5914 105.527 45.5331 103.913 44.4523 102.015C41.9529 97.6087 41.3825 94.6067 42.741 93.0155C43.6717 91.9197 45.8484 92.0697 49.2709 93.4582C49.5786 93.6008 50.0814 93.8412 50.7945 94.2015C51.2973 94.4566 51.8153 94.7267 52.3632 95.0194C52.5583 95.132 53.0537 95.4395 53.8568 95.9199C54.6599 96.4078 55.3278 96.8133 55.8607 97.1436L57.1217 95.6725L65.1677 102.51V102.517ZM52.4307 100.408C52.1981 100.213 51.9128 100.041 51.5751 99.8981C51.2373 99.7555 50.7795 99.658 50.224 99.5979C49.2258 99.4103 48.5278 99.5304 48.16 99.9732C48.0774 100.071 48.0174 100.243 47.9874 100.483V101.144C47.9574 101.707 48.0099 102.089 48.16 102.285C48.6479 102.697 49.3084 102.833 50.134 102.675C50.802 102.487 51.4024 102.165 51.9203 101.699C52.4457 101.084 52.6109 100.656 52.4307 100.401V100.408Z" fill="#D6D7D8"/>
<path d="M79.153 90.0937L75.8806 93.0435L68.8478 91.2569L70.7092 97.6894L63.031 104.609L55.9607 96.7662L63.4813 89.9962L49.1758 88.5174L43.9219 78.5801L52.951 63.0586L54.4521 65.783C55.1501 67.059 55.8482 68.395 56.5537 69.7911L50.249 82.1753L60.0513 83.4812C64.0968 84.0291 67.3917 84.2619 69.9511 84.1643L72.0752 82.2504L79.138 90.101L79.153 90.0937Z" fill="#D6D7D8"/>
<path d="M72.2984 62.0627L72.9514 70.259L79.5037 78.2749C79.8565 78.7702 80.6146 80.1588 81.793 82.448C82.9713 84.7447 83.5643 86.1333 83.5793 86.6362L82.8287 87.8668L77.177 91.9051L71.0374 83.3111L75.8485 79.8735V79.6708L75.6759 79.4383C74.0322 77.134 72.1783 74.9198 70.1067 72.8033C67.5173 70.2288 65.2357 68.7277 63.2917 68.3149L62.4887 65.5079C62.4061 65.1701 62.331 64.8398 62.2559 64.5096C62.1809 64.1793 62.1133 63.8492 62.0608 63.519C61.5129 61.1697 61.4153 59.5935 61.7756 58.7754L62.6237 59.8712C63.2617 60.7643 64.7252 61.3647 67.0144 61.6724C67.9001 61.785 68.7482 61.8526 69.5588 61.8676C70.2644 61.8826 71.09 61.8301 72.0282 61.71L72.2759 62.0552L72.2984 62.0627Z" fill="#D6D7D8"/>
<path d="M90.0561 68.7487C92.7731 73.4172 94.0266 77.6728 93.8239 81.5232L79.6083 61.7535C79.248 61.2431 78.7377 57.798 78.0547 51.4258C84.0892 59.5768 88.0896 65.3487 90.0636 68.7412L90.0561 68.7487Z" fill="#D6D7D8"/>
<path d="M133.068 54.0456L133.278 64.6659L115.257 70.3476C111.625 71.496 108.833 68.974 106.881 62.782C106.251 60.7705 105.831 58.4588 105.643 55.8694C105.373 52.5444 105.725 50.4354 106.671 49.5422C106.866 50.1577 107.084 51.0358 107.317 52.1767C107.549 53.3175 107.782 54.2407 108 54.9462C108.405 56.2221 109.216 57.3856 110.416 58.4289C111.752 59.5472 113.066 59.9074 114.372 59.4946L129.105 54.8487L129.158 54.6535C128.858 53.7003 127.499 51.944 125.082 49.3846L125.788 41.0834C128.895 44.1832 130.696 46.5025 131.184 48.0486L133.083 54.0456H133.068ZM120.744 38.2763C120.549 39.207 120.316 40.1452 120.046 41.0759C119.776 42.0141 119.446 42.9973 119.07 44.0255C118.38 44.0255 117.464 43.8306 116.301 43.4403L113.539 42.5021C113.021 43.4178 112.518 44.6712 112.015 46.2473L110.919 46.0597L108.998 45.4517C107.369 44.9563 106.491 44.5811 106.348 44.3259C106.281 44.0932 106.881 42.2017 108.172 38.6441C111.099 39.9201 112.781 40.4905 113.201 40.3554L113.336 40.1302L114.132 38.5391L115.085 36.3398L120.744 38.2688V38.2763Z" fill="#D6D7D8"/>
<path d="M148.52 62.1446L141.269 63.3604L134.672 35.4772C134.604 35.0644 134.972 33.826 135.783 31.762L137.457 27.8291L143.476 52.2821L146.763 51.7267L148.52 62.137V62.1446Z" fill="#D6D7D8"/>
<path d="M161.013 47.8912L160.825 61.2211L144.891 62.377L144.125 51.8466L157.237 50.8934L157.282 50.7732C156.374 48.3789 155.076 45.7446 153.387 42.855L155.886 35.4619C156.194 35.8747 156.479 36.2726 156.719 36.6479C156.96 37.0306 157.275 37.526 157.658 38.1415C157.928 38.6293 158.138 39.0046 158.273 39.2598C158.746 40.1004 159.114 40.7834 159.376 41.3088C159.842 42.4046 160.224 43.5154 160.487 44.6187C160.757 45.7295 160.923 46.8179 161.005 47.8912H161.013ZM159.609 69.965C158.994 71.8114 158.205 73.4175 157.26 74.791C156.809 74.7085 156.111 74.3332 155.158 73.6652L153.169 72.1941L152.441 73.3575L151.413 75.1064C149.927 74.6861 148.531 73.7328 147.24 72.2617L149.717 67.6234C150.617 68.6216 151.796 69.5146 153.252 70.3177C153.567 70.01 153.957 69.5071 154.408 68.7866C154.851 67.9234 155.196 67.3605 155.443 67.0978L159.609 69.9725V69.965Z" fill="#D6D7D8"/>
<path d="M182.515 50.8105C182.41 53.0172 182.117 55.1938 181.659 57.3403C181.412 58.5337 181.142 59.6372 180.856 60.6429C180.564 61.6487 180.166 62.7745 179.678 64.0129C177.471 69.9723 174.739 72.8695 171.467 72.7044C168.262 72.5468 164.787 71.6835 161.042 70.1148L159.563 69.4469L159.428 69.2969L159.195 68.8615L164.216 68.4037C169.245 66.2346 173.006 63.9903 175.512 61.6636C178.012 59.3443 179.325 56.9502 179.445 54.4809L179.288 54.2481C178.117 56.6424 177.501 57.8733 177.449 57.9258C176.623 58.9991 175.415 59.4944 173.809 59.4119C170.679 59.2543 169.2 57.1528 169.41 53.0998C169.47 51.8163 169.711 50.4428 170.116 48.9717C170.521 47.5006 171.189 45.7443 172.105 43.7028C173.028 41.6613 173.951 40.1526 174.904 39.1769C175.843 38.2087 176.826 37.7435 177.862 37.796L178.387 37.8785C181.434 40.5579 182.815 44.8736 182.515 50.8105ZM178.057 50.045C178.079 49.5946 178.049 49.1744 177.952 48.7916L177.576 47.9511C177.261 47.1254 176.788 46.6525 176.158 46.5474C175.73 46.5249 175.212 46.8027 174.589 47.3581C173.974 47.921 173.651 48.4463 173.629 48.9116C173.606 49.2494 173.914 49.6698 174.552 50.1727C175.152 50.4879 175.685 50.7055 176.173 50.818C176.511 50.8331 177.134 50.6379 178.057 50.2326V50.0374V50.045Z" fill="#D6D7D8"/>
<path d="M194.992 63.9311L187.734 62.8053L190.271 34.2616C190.331 33.8563 191.074 32.7905 192.5 31.0867L195.322 27.8818L193.318 52.9806L196.613 53.4984L194.992 63.9311Z" fill="#D6D7D8"/>
<path d="M213.267 68.651L208.711 67.4502C208.576 67.5328 208.359 67.7579 208.073 68.1331L207.57 68.9363C207.195 69.7169 206.752 70.1972 206.234 70.3998L198.399 59.0889C198.166 59.3216 197.881 59.7119 197.566 60.2748L196.59 62.0986C196.229 63.0744 195.554 63.6147 194.571 63.7348L192.289 63.1345L194.984 52.9193L198.939 53.9625C199.112 53.91 199.922 53.0469 201.378 51.3807C202.144 50.4875 202.857 49.7444 203.54 49.1365C204.148 48.5961 204.838 48.0558 205.619 47.5154C207.548 46.2694 209.484 45.8942 211.413 46.4045C212.171 46.6072 212.599 46.9149 212.704 47.3277C212.704 47.4853 212.682 47.6654 212.644 47.8681C212.614 48.0783 212.539 48.401 212.412 48.8589C212.104 50.0297 212.089 51.6359 212.366 53.6774C212.637 55.7189 213.132 57.1225 213.868 57.8806L215.954 58.4285L213.267 68.6435V68.651ZM207.443 56.0867L207.668 55.2386L207.735 54.6682C207.766 54.398 207.766 54.1428 207.735 53.8801C207.766 53.3247 207.691 52.9868 207.503 52.8818L206.947 52.5891C206.64 52.5066 206.204 52.499 205.649 52.5666C205.056 52.5291 204.688 52.5891 204.531 52.7392C204.936 53.6249 205.912 54.7432 207.443 56.0791V56.0867Z" fill="#D6D7D8"/>
</g>
</g>
</svg>
