<svg width="418" height="267" viewBox="0 0 418 267" fill="none" xmlns="http://www.w3.org/2000/svg">
<g opacity="0.1">
<mask id="mask0_107_981" style="mask-type:luminance" maskUnits="userSpaceOnUse" x="0" y="0" width="451" height="270">
<path d="M450.762 0.230469H0.921631V269.871H450.762V0.230469Z" fill="white"/>
</mask>
<g mask="url(#mask0_107_981)">
<path d="M107.072 247.65H28.7115V258.01H107.072V247.65Z" fill="#D6D7D8"/>
<path d="M428.492 247.65H350.132V258.01H428.492V247.65Z" fill="#D6D7D8"/>
<path d="M141.012 356.71H102.082V169.05H141.012V356.71ZM112.062 346.73H131.032V179.03H112.062V346.73Z" fill="#D6D7D8"/>
<path d="M224.362 367.98C223.622 367.96 150.212 364.7 131.212 289.61L131.062 288.391V228.081L131.492 227.11C132.852 224.08 165.552 153.121 231.402 156.101L230.942 166C175.592 163.26 144.932 222.16 140.962 230.26V287.77C158.322 354.93 221.972 357.981 224.682 358.081L224.352 367.98H224.362Z" fill="#D6D7D8"/>
<path d="M224.522 305.13V333.741L217.872 331.741L207.142 335.98L199.152 327.5L185.182 328V316.771L172.702 316.521V306.541L161.222 297.311L164.462 286.331L153.732 276.601L159.222 267.121L150.742 255.641L159.222 246.161L155.482 235.431L164.712 227.44L160.722 217.96L173.452 212.971L172.452 202.491L186.182 199.25L187.642 189.521H201.662L209.152 182.03L212.642 185.021C212.642 185.021 221.712 183.271 224.542 184.021V207.48C224.542 207.48 188.192 215.72 188.942 260.63C188.942 260.63 185.032 294.73 224.542 305.13H224.522Z" fill="#D6D7D8"/>
<path d="M269.442 183.02V348.721C269.442 348.721 285.082 364.691 272.772 369.351C272.772 369.351 251.812 372.01 250.812 364.03V167.05C250.812 167.05 267.532 150.331 280.262 160.311C280.262 160.311 285.582 168.05 269.452 183.02H269.442Z" fill="#D6D7D8"/>
<path d="M323.012 163.721V362.36C323.012 362.36 315.022 375.001 297.062 366.021C297.062 366.021 295.062 357.371 307.712 346.061V185.021C307.712 185.021 294.072 160.861 306.712 157.141C306.712 157.141 315.032 154.411 323.012 163.731V163.721Z" fill="#D6D7D8"/>
<path d="M329.172 369.78V164.561C329.172 164.561 343.312 154.411 352.962 162.061C352.962 162.061 358.952 169.71 346.312 181.03V346.481C346.312 346.481 354.132 356.211 350.142 365.701C350.142 365.701 344.902 374.621 329.182 369.791L329.172 369.78Z" fill="#D6D7D8"/>
<path d="M244.822 165.05V363.69C244.822 363.69 232.842 372.67 222.862 363.69C222.862 363.69 215.852 356.04 228.842 339.07V186.681V154.411L248.482 162.73C248.482 162.73 245.572 163.561 244.822 165.061V165.05Z" fill="#D6D7D8"/>
<path d="M228.842 160.311H220.972V185.021H228.842V160.311Z" fill="#D6D7D8"/>
<path d="M312.242 245.53H263.552V269.86H312.242V245.53Z" fill="#D6D7D8"/>
<path d="M13.3315 163.331C14.3815 164.541 15.9816 166.79 18.1516 170.07L11.7616 174.38L13.1016 176.721L14.5016 179.03C13.8916 180.02 11.6816 181.59 7.87158 183.73C7.10158 182.76 6.32161 181.66 5.52161 180.42C4.80161 179.33 4.06163 178.12 3.29163 176.8C3.60163 176.73 4.04154 176.55 4.58154 176.25L6.62158 175.101C8.20158 174.121 9.08164 173.44 9.30164 173.07L9.15161 172.741L8.1416 170.601L6.65161 167.78L13.3416 163.34L13.3315 163.331ZM41.1216 167.71L41.9316 168.01L43.2316 168.5L44.6616 169.19L46.5616 164.521L59.4415 169.4L50.8916 192.32C52.4216 193.96 53.7716 195.801 54.9116 197.851C56.0516 199.901 57.0016 202.17 57.7616 204.67C58.5216 207.17 58.8916 209.571 58.8616 211.871C58.8316 214.171 58.4415 216.34 57.6915 218.36C56.3115 222.07 54.2116 224.511 51.4116 225.681C48.6116 226.861 45.3815 226.761 41.7015 225.391C39.9815 224.751 38.1916 223.78 36.3516 222.48C34.5016 221.18 32.6716 219.6 30.8616 217.76C28.7916 215.71 27.1915 213.791 26.0715 211.991C24.9615 210.191 24.2915 208.47 24.0715 206.82C24.6615 207.04 25.4016 207.531 26.3016 208.291C26.7816 208.681 27.2816 209.13 27.8116 209.63C28.3416 210.14 29.0216 210.811 29.8416 211.641C32.2916 214.151 34.6316 215.82 36.8716 216.65C39.6916 217.71 42.3216 217.491 44.7216 215.991C45.7216 215.251 46.6216 214.351 47.4216 213.291C48.2216 212.231 48.9016 210.951 49.4716 209.431C50.1016 207.731 50.7716 204.3 51.4916 199.15L51.2316 198.971C49.1916 198.211 47.1815 199.17 45.2115 201.86L43.6616 204.311C42.9516 205.561 42.3216 206.91 41.7916 208.36C40.4616 207.6 39.1116 206.591 37.7216 205.331C36.9916 204.691 36.2415 203.97 35.4515 203.17C34.6615 202.37 33.8516 201.49 33.0016 200.5L42.9615 173.771C40.9415 173.591 38.8916 173.551 36.8516 173.641C34.9416 173.671 32.9116 173.83 30.7916 174.13L23.2216 166.8C30.8916 165.8 36.8516 166.1 41.1316 167.69L41.1216 167.71ZM64.7616 212.9C66.4416 214.59 67.5516 216.01 68.0916 217.17C67.8615 217.56 66.4516 218.56 63.8716 220.17C64.1816 221.08 64.7816 222.111 65.6616 223.271C64.7416 224.681 63.2416 225.67 61.1716 226.26L58.0815 222C58.1715 221.93 58.2415 221.861 58.3215 221.811C58.6815 221.551 59.2416 221.2 60.0016 220.76C61.2116 220.18 61.8916 219.67 62.0516 219.25C62.0716 219.2 62.0716 219.16 62.0516 219.13C61.9916 218.87 61.8716 218.591 61.7216 218.291L60.2716 215.721L62.3215 214.331L64.7816 212.891L64.7616 212.9Z" fill="#D6D7D8"/>
<path d="M55.1716 148.601L69.1716 159.521L57.5815 177.371L45.7816 169.701L55.3215 155.01L55.2316 154.871C51.9616 153.911 48.1215 153.15 43.6915 152.63L37.8616 144.03C38.5516 144.03 39.1916 144.06 39.8016 144.11C40.3916 144.15 41.1716 144.23 42.1316 144.32C42.8816 144.41 43.4416 144.501 43.8116 144.561C45.0816 144.731 46.1016 144.891 46.8816 145.041C48.4216 145.421 49.9016 145.92 51.2916 146.53C52.6816 147.14 53.9716 147.83 55.1716 148.61V148.601ZM77.4816 167.851C78.9416 169.981 80.0316 172.111 80.7216 174.221C80.2716 174.641 79.3015 175.08 77.8315 175.55L74.6716 176.48L75.3116 178.19L76.3516 180.69C74.7016 181.93 72.5715 182.651 69.9615 182.831L67.0416 176.471C68.8216 176.321 70.7216 175.79 72.7516 174.88C72.6816 174.3 72.4416 173.481 72.0516 172.431C71.4916 171.261 71.1615 170.44 71.0815 169.98L77.4916 167.86L77.4816 167.851Z" fill="#D6D7D8"/>
<path d="M87.7316 136.82L85.2616 139.721L87.5516 144.021L89.9515 148.421C91.6315 152.531 91.6815 155.531 90.0815 157.401C88.6815 159.051 86.6616 160.84 84.0216 162.78C81.0716 164.81 78.6816 165.99 76.8716 166.3C81.9316 160.34 83.6116 152.801 81.9016 143.671C78.9616 146.431 76.9116 148.041 75.7616 148.501C73.3816 149.601 70.9315 149.101 68.4415 146.981C67.0915 145.831 65.7216 144.361 64.3516 142.601C62.9816 140.831 61.5716 138.681 60.1316 136.151C56.8016 130.281 56.0416 126.281 57.8516 124.161C59.0916 122.701 61.9916 122.901 66.5516 124.751C66.9616 124.941 67.6315 125.261 68.5815 125.741C69.2515 126.081 69.9416 126.441 70.6716 126.831C70.9316 126.981 71.5916 127.39 72.6616 128.03C73.7316 128.68 74.6215 129.221 75.3315 129.661L77.0116 127.701L87.7316 136.811V136.82ZM70.7616 134.01C70.4516 133.75 70.0716 133.521 69.6216 133.331C69.1716 133.141 68.5615 133.011 67.8215 132.931C66.4915 132.681 65.5615 132.841 65.0715 133.431C64.9615 133.561 64.8815 133.79 64.8415 134.11V134.991C64.8015 135.741 64.8715 136.25 65.0715 136.51C65.7215 137.06 66.6015 137.24 67.7015 137.03C68.5915 136.78 69.3915 136.351 70.0815 135.731C70.7815 134.911 71.0016 134.341 70.7616 134.001V134.01Z" fill="#D6D7D8"/>
<path d="M106.372 120.271L102.012 124.201L92.6416 121.82L95.1216 130.391L84.8916 139.61L75.4716 129.161L85.4916 120.141L66.4316 118.17L59.4316 104.93L71.4615 84.2505L73.4615 87.8804C74.3915 89.5804 75.3216 91.3605 76.2616 93.2205L67.8616 109.72L80.9216 111.46C86.3116 112.19 90.7016 112.501 94.1116 112.371L96.9415 109.821L106.352 120.28L106.372 120.271Z" fill="#D6D7D8"/>
<path d="M97.2515 82.9204L98.1215 93.8406L106.852 104.521C107.322 105.181 108.332 107.031 109.902 110.081C111.472 113.141 112.262 114.991 112.282 115.661L111.282 117.3L103.752 122.681L95.5715 111.23L101.982 106.65V106.38L101.752 106.071C99.5615 103.001 97.0915 100.05 94.3315 97.2305C90.8815 93.8005 87.8415 91.8005 85.2515 91.2505L84.1816 87.5105C84.0716 87.0605 83.9715 86.6204 83.8715 86.1804C83.7715 85.7404 83.6815 85.3006 83.6115 84.8606C82.8815 81.7306 82.7515 79.6305 83.2315 78.5405L84.3615 80.0005C85.2115 81.1905 87.1615 81.9904 90.2115 82.4004C91.3915 82.5504 92.5215 82.6404 93.6015 82.6604C94.5415 82.6804 95.6416 82.6104 96.8916 82.4504L97.2215 82.9104L97.2515 82.9204Z" fill="#D6D7D8"/>
<path d="M120.902 91.8306C124.522 98.0506 126.192 103.721 125.922 108.851L106.982 82.5105C106.502 81.8305 105.822 77.2405 104.912 68.7505C112.952 79.6105 118.282 87.3006 120.912 91.8206L120.902 91.8306Z" fill="#D6D7D8"/>
<path d="M178.202 72.2405L178.482 86.3904L154.472 93.9604C149.632 95.4904 145.912 92.1304 143.312 83.8804C142.472 81.2004 141.912 78.1204 141.662 74.6704C141.302 70.2404 141.772 67.4305 143.032 66.2405C143.292 67.0605 143.582 68.2305 143.892 69.7505C144.202 71.2705 144.512 72.5004 144.802 73.4404C145.342 75.1404 146.422 76.6906 148.022 78.0806C149.802 79.5706 151.552 80.0505 153.292 79.5005L172.922 73.3105L172.992 73.0505C172.592 71.7805 170.782 69.4405 167.562 66.0305L168.502 54.9705C172.642 59.1005 175.041 62.1905 175.691 64.2505L178.222 72.2405H178.202ZM161.782 51.2305C161.522 52.4705 161.212 53.7204 160.852 54.9604C160.492 56.2104 160.052 57.5204 159.552 58.8904C158.632 58.8904 157.412 58.6306 155.862 58.1106L152.182 56.8606C151.492 58.0806 150.822 59.7506 150.152 61.8506L148.691 61.6006L146.132 60.7905C143.962 60.1305 142.792 59.6305 142.602 59.2905C142.512 58.9805 143.312 56.4605 145.032 51.7205C148.932 53.4205 151.172 54.1805 151.732 54.0005L151.912 53.7004L152.972 51.5806L154.242 48.6504L161.782 51.2205V51.2305Z" fill="#D6D7D8"/>
<path d="M198.782 83.0305L189.122 84.6504L180.332 47.5005C180.242 46.9505 180.732 45.3005 181.812 42.5505L184.042 37.3105L192.062 69.8904L196.441 69.1504L198.782 83.0205V83.0305Z" fill="#D6D7D8"/>
<path d="M215.442 64.0405L215.192 81.8005L193.962 83.3406L192.942 69.3105L210.412 68.0405L210.472 67.8804C209.262 64.6904 207.532 61.1806 205.282 57.3306L208.612 47.4805C209.022 48.0305 209.402 48.5605 209.722 49.0605C210.042 49.5705 210.462 50.2305 210.972 51.0505C211.332 51.7005 211.612 52.2005 211.792 52.5405C212.422 53.6605 212.912 54.5705 213.262 55.2705C213.882 56.7305 214.392 58.2104 214.742 59.6804C215.102 61.1604 215.322 62.6105 215.432 64.0405H215.442ZM213.572 93.4504C212.752 95.9104 211.702 98.0504 210.442 99.8804C209.842 99.7704 208.912 99.2704 207.642 98.3804L204.992 96.4204L204.022 97.9705L202.652 100.301C200.672 99.7405 198.812 98.4705 197.092 96.5105L200.392 90.3306C201.592 91.6606 203.162 92.8504 205.102 93.9204C205.522 93.5104 206.042 92.8404 206.642 91.8804C207.232 90.7304 207.692 89.9804 208.022 89.6304L213.572 93.4604V93.4504Z" fill="#D6D7D8"/>
<path d="M244.082 67.9304C243.942 70.8704 243.552 73.7703 242.942 76.6303C242.612 78.2203 242.252 79.6905 241.872 81.0305C241.482 82.3705 240.952 83.8705 240.302 85.5205C237.362 93.4605 233.722 97.3205 229.362 97.1005C225.092 96.8905 220.462 95.7403 215.472 93.6503L213.502 92.7605L213.322 92.5605L213.012 91.9804L219.702 91.3706C226.402 88.4806 231.412 85.4903 234.752 82.3903C238.082 79.3003 239.832 76.1105 239.992 72.8205L239.782 72.5105C238.222 75.7005 237.402 77.3404 237.332 77.4104C236.232 78.8404 234.622 79.5003 232.482 79.3903C228.312 79.1803 226.342 76.3804 226.622 70.9804C226.702 69.2704 227.022 67.4404 227.562 65.4804C228.102 63.5204 228.992 61.1804 230.212 58.4604C231.442 55.7404 232.672 53.7304 233.942 52.4304C235.192 51.1404 236.502 50.5205 237.882 50.5905L238.582 50.7004C242.642 54.2704 244.482 60.0204 244.082 67.9304ZM238.142 66.9104C238.172 66.3104 238.132 65.7504 238.002 65.2404L237.502 64.1206C237.082 63.0206 236.452 62.3904 235.612 62.2504C235.042 62.2204 234.352 62.5905 233.522 63.3305C232.702 64.0805 232.272 64.7803 232.242 65.4003C232.212 65.8503 232.622 66.4105 233.472 67.0805C234.272 67.5005 234.982 67.7904 235.632 67.9404C236.082 67.9604 236.912 67.7004 238.142 67.1604V66.9003V66.9104Z" fill="#D6D7D8"/>
<path d="M260.702 85.4104L251.032 83.9104L254.412 45.8804C254.492 45.3404 255.482 43.9204 257.382 41.6504L261.142 37.3804L258.472 70.8206L262.862 71.5105L260.702 85.4104Z" fill="#D6D7D8"/>
<path d="M285.062 91.7004L278.992 90.1005C278.812 90.2105 278.522 90.5104 278.142 91.0104L277.472 92.0805C276.972 93.1205 276.382 93.7605 275.692 94.0305L265.252 78.9604C264.942 79.2704 264.562 79.7905 264.142 80.5405L262.842 82.9704C262.362 84.2704 261.462 84.9903 260.152 85.1503L257.112 84.3505L260.702 70.7404L265.972 72.1303C266.202 72.0603 267.282 70.9104 269.222 68.6904C270.242 67.5004 271.192 66.5104 272.102 65.7004C272.912 64.9804 273.832 64.2605 274.872 63.5405C277.442 61.8805 280.022 61.3805 282.592 62.0605C283.602 62.3305 284.172 62.7405 284.312 63.2905C284.312 63.5005 284.282 63.7404 284.232 64.0104C284.192 64.2904 284.092 64.7205 283.922 65.3305C283.512 66.8905 283.492 69.0304 283.862 71.7504C284.222 74.4704 284.882 76.3405 285.862 77.3505L288.642 78.0805L285.062 91.6904V91.7004ZM277.302 74.9604L277.602 73.8305L277.692 73.0705C277.732 72.7105 277.732 72.3705 277.692 72.0205C277.732 71.2805 277.632 70.8304 277.382 70.6904L276.642 70.3005C276.232 70.1905 275.652 70.1805 274.912 70.2705C274.122 70.2205 273.632 70.3004 273.422 70.5004C273.962 71.6804 275.262 73.1704 277.302 74.9504V74.9604Z" fill="#D6D7D8"/>
<path d="M295.302 105.861C294.312 106.881 293.372 107.72 292.462 108.39C292.032 108.74 291.592 109.07 291.152 109.38C290.722 109.69 290.242 109.991 289.722 110.271C289.172 109.901 288.552 109.02 287.862 107.64C287.342 106.87 286.802 105.911 286.252 104.781L285.172 105.49L282.502 107.281C280.992 105.961 279.822 104.02 279.012 101.46L284.692 97.2905C285.172 99.0505 286.092 100.78 287.422 102.5C288.022 102.41 288.842 101.98 289.882 101.23C290.812 100.54 291.482 100.12 291.862 99.9404L295.282 105.861H295.302ZM301.952 98.7405L296.392 96.5605C295.182 96.0905 294.502 94.8205 294.352 92.7605L294.492 89.3306L289.862 93.9905L281.172 90.5906L286.302 77.4905L295.932 81.2605C297.382 79.1805 298.472 77.2106 299.212 75.3406L299.992 73.6604C300.152 73.3704 300.292 73.1705 300.392 73.0505C300.502 72.9305 300.692 72.7605 300.992 72.5505C302.042 71.7205 304.372 70.2805 308.012 68.2505L306.182 72.9204L305.312 74.8506L304.532 76.3306L302.932 79.7104C301.952 82.2004 302.552 83.8504 304.702 84.7004L307.112 85.6404L301.982 98.7405H301.952Z" fill="#D6D7D8"/>
<path d="M324.352 110.71L319.182 107.94L318.232 98.3206L311.012 103.571L298.862 97.0706L305.502 84.6704L317.382 91.0305L312.772 72.4304L322.852 61.3506L346.392 65.6504L343.662 68.7705C342.382 70.2205 341.022 71.7005 339.592 73.2205L321.222 70.9204L324.022 83.8005C325.162 89.1105 326.362 93.3505 327.642 96.5105L331.002 98.3005L324.362 110.71H324.352Z" fill="#D6D7D8"/>
<path d="M356.572 89.5504L346.592 94.0705L339.502 105.9C339.042 106.56 337.652 108.15 335.312 110.66C332.972 113.17 331.492 114.54 330.872 114.79L329.002 114.41L321.392 109.14L329.392 97.5705L335.872 102.05L336.122 101.95L336.342 101.64C338.482 98.5403 340.412 95.2203 342.142 91.6703C344.202 87.2503 345.042 83.7305 344.692 81.1005L347.852 78.8405C348.232 78.5905 348.622 78.3405 349.002 78.1005C349.382 77.8505 349.762 77.6303 350.162 77.4103C352.852 75.6603 354.792 74.8303 355.972 74.9103L354.982 76.4804C354.152 77.6804 354.062 79.7804 354.702 82.7904C354.962 83.9504 355.272 85.0405 355.612 86.0705C355.912 86.9505 356.352 87.9605 356.922 89.0905L356.602 89.5604L356.572 89.5504Z" fill="#D6D7D8"/>
<path d="M356.032 114.7C351.402 120.21 346.632 123.701 341.702 125.181L360.072 98.4404C360.542 97.7604 364.632 95.5506 372.302 91.8306C364.812 103.071 359.382 110.69 356.022 114.7H356.032Z" fill="#D6D7D8"/>
<path d="M385.772 174.411L382.642 170.181C382.082 169.421 382.122 168.141 382.782 166.361C383.092 165.541 383.412 164.841 383.752 164.241C384.102 163.701 384.532 163.251 385.042 162.881L378.282 164.521L365.612 147.371C362.572 143.271 364.542 138.641 371.502 133.501C372.352 132.871 372.962 132.441 373.342 132.211C373.712 131.981 374.472 131.541 375.622 130.901C376.752 130.261 378.292 129.521 380.232 128.681C384.792 126.601 387.742 125.971 389.092 126.771L388.492 127.221C387.762 127.761 386.562 128.461 384.882 129.341C383.192 130.211 381.982 130.911 381.252 131.451C379.802 132.531 378.712 134.031 377.992 135.951C377.272 137.871 377.442 139.561 378.532 141.021L390.222 156.851C390.602 156.811 391.432 156.421 392.722 155.661C394.002 154.901 395.532 153.861 397.322 152.551L407.422 152.331L402.502 155.961L395.702 160.01C394.692 160.76 394.352 161.67 394.682 162.76L397.092 166.041L385.772 174.391V174.411ZM409.602 144.651C408.962 144.881 407.492 145.061 405.182 145.201C402.872 145.341 401.552 145.261 401.202 144.951C401.012 144.691 400.952 142.111 401.012 137.201L398.802 137.071L395.472 136.931C395.272 136.151 395.132 134.751 395.052 132.741C394.872 130.391 394.972 129.081 395.332 128.821C395.802 128.481 398.582 128.471 403.662 128.791C403.472 129.251 403.322 130.49 403.222 132.51C403.142 134.4 403.252 135.541 403.552 135.941C403.612 135.981 403.682 136.021 403.742 136.031C403.802 136.051 403.952 136.071 404.192 136.111L406.312 136.311L409.602 136.571V144.641V144.651Z" fill="#D6D7D8"/>
<path d="M382.612 191.4C381.212 191.5 379.932 191.5 378.812 191.4C378.262 191.37 377.722 191.32 377.182 191.26C376.642 191.2 376.082 191.101 375.512 190.971C375.362 190.321 375.482 189.251 375.882 187.771C376.012 186.851 376.242 185.78 376.602 184.57L375.321 184.38L372.142 183.931C371.892 181.931 372.322 179.71 373.432 177.26L380.451 177.951C379.641 179.581 379.162 181.48 379.002 183.65C379.512 183.98 380.402 184.211 381.682 184.351C382.822 184.471 383.612 184.591 384.012 184.721L382.602 191.4H382.612ZM392.312 190.541L389.632 185.201C389.062 184.051 389.382 182.65 390.652 181.01L393.052 178.55L386.482 178.931L382.292 170.581L394.862 164.271L399.512 173.51C401.982 172.94 404.112 172.2 405.912 171.3L407.612 170.57C407.922 170.47 408.162 170.4 408.312 170.38C408.472 170.36 408.732 170.371 409.082 170.411C410.422 170.491 413.122 170.99 417.182 171.9L412.701 174.15L410.762 175L409.191 175.581L405.742 177.021C403.362 178.211 402.682 179.85 403.732 181.92L404.892 184.221L392.321 190.541H392.312Z" fill="#D6D7D8"/>
<path d="M385.152 204.13C384.872 204.23 383.702 203.761 381.652 202.721C381.152 202.451 380.732 202.221 380.382 202.021C380.042 201.811 379.732 201.61 379.472 201.42C379.002 201.09 378.652 200.791 378.432 200.491C378.372 200.301 378.402 199.911 378.562 199.311C378.712 198.711 378.992 197.911 379.382 196.911C379.772 195.911 380.132 195.141 380.442 194.581C380.762 194.031 381.012 193.671 381.192 193.521C381.592 193.371 382.922 193.75 385.172 194.65C387.432 195.55 388.622 196.17 388.752 196.53C388.792 196.65 388.272 197.921 387.162 200.351C386.052 202.781 385.382 204.04 385.142 204.13H385.152ZM414.882 198.44C412.402 199.36 409.402 200.15 405.862 200.8L401.452 201.721C400.672 201.911 399.922 202.07 399.212 202.19C398.512 202.32 397.642 202.461 396.632 202.601L390.872 187.13L404.052 182.221L408.662 194.61L409.182 194.491C410.332 194.061 411.912 192.9 413.922 191.01C415.822 189.33 417.102 187.851 417.792 186.581L428.842 187.081C424.792 192.681 420.132 196.46 414.882 198.42V198.44Z" fill="#D6D7D8"/>
</g>
</g>
</svg>
