<svg width="105" height="105" viewBox="0 0 105 105" fill="none" xmlns="http://www.w3.org/2000/svg">
<path d="M104.18 52.75C104.35 80.87 80.9102 104.43 52.2002 104.3C24.0602 104.17 0.530254 80.9099 0.710254 52.1899C0.890254 23.8999 24.2103 0.689982 52.6203 0.769982C81.2503 0.849982 104.57 24.53 104.18 52.74V52.75Z" fill="url(#paint0_linear_1_3)"/>
<path d="M42.0503 61.89C42.0503 55.83 42.0503 49.7799 42.0503 43.7199C42.0503 40.3899 42.0703 40.39 45.4203 40.38C48.0503 40.38 50.6902 40.36 53.3202 40.41C54.7202 40.44 55.0202 40.7699 55.1002 42.1199C55.1602 43.0799 55.1402 44.05 55.1902 45.01C55.1902 45.15 55.3402 45.34 55.4602 45.39C55.5902 45.44 55.8303 45.4 55.9303 45.31C56.3003 44.93 56.6202 44.5199 56.9702 44.1199C59.1502 41.6599 61.8802 40.1399 65.0902 39.5999C68.0502 39.0999 71.0302 39.16 73.9702 39.91C79.0502 41.21 82.1302 44.4899 83.4402 49.4899C84.0702 51.8699 84.3902 54.31 84.5002 56.77C84.5602 58.08 84.5603 59.3999 84.5603 60.7199C84.5503 67.3899 84.5302 74.0599 84.5002 80.7299C84.4902 83.9199 84.4203 83.98 81.2803 84.01C78.8203 84.03 76.3703 84.02 73.9103 84.01C73.3003 84.01 72.6802 84 72.0702 83.92C71.3502 83.83 71.0102 83.4599 70.9502 82.6899C70.8902 81.8999 70.8903 81.1099 70.8903 80.3199C70.8903 73.8299 70.9103 67.3299 70.9203 60.8399C70.9203 59.2599 70.8403 57.69 70.3903 56.15C69.3303 52.5 66.6002 50.69 62.8402 51.15C59.2102 51.6 56.9603 53.64 56.1703 57.25C55.7403 59.23 55.6002 61.24 55.6002 63.27C55.6002 68.97 55.5803 74.68 55.5603 80.38C55.5536 82.7933 54.3303 84.0033 51.8903 84.01C49.6103 84.01 47.3303 84.01 45.0403 84.01C44.4303 84.01 43.8102 83.98 43.2002 83.9C42.5102 83.81 42.1003 83.37 42.0603 82.67C42.0103 81.88 41.9902 81.09 41.9902 80.3C41.9902 74.16 41.9902 68.0099 41.9902 61.8699C42.0102 61.8699 42.0303 61.8699 42.0503 61.8699V61.89Z" fill="white"/>
<path d="M19.8602 62.0601C19.8602 55.9101 19.8602 49.77 19.8602 43.62C19.8602 40.4 19.8802 40.4001 23.0702 40.3801C25.4402 40.3701 27.8103 40.3801 30.1803 40.3801C30.7103 40.3801 31.2403 40.3801 31.7603 40.4101C33.0303 40.5101 33.3303 40.79 33.4303 41.97C33.4703 42.41 33.4602 42.8501 33.4602 43.2901C33.4502 55.8401 33.4403 68.4 33.4103 80.95C33.4103 83.84 33.2602 83.98 30.4902 84C27.9402 84.02 25.4002 84 22.8502 84C22.3202 84 21.7903 83.9901 21.2703 83.9201C20.3603 83.8101 19.9903 83.47 19.9103 82.6C19.8403 81.82 19.8402 81.02 19.8402 80.23C19.8402 74.17 19.8402 68.1101 19.8402 62.0601H19.8602Z" fill="white"/>
<path d="M26.5503 34.1899C22.1503 34.1399 18.6903 30.6 18.8103 26.25C18.9203 21.96 22.5602 18.58 26.9702 18.68C31.2602 18.78 34.6303 22.25 34.5503 26.5C34.4703 30.9 30.9903 34.2499 26.5503 34.1999V34.1899Z" fill="white"/>
<defs>
<linearGradient id="paint0_linear_1_3" x1="0.710254" y1="52.53" x2="104.18" y2="52.53" gradientUnits="userSpaceOnUse">
<stop stop-color="#ED801B"/>
<stop offset="0.38" stop-color="#E57114"/>
<stop offset="1" stop-color="#D45107"/>
</linearGradient>
</defs>
</svg>
