<svg width="46" height="46" viewBox="0 0 46 46" fill="none" xmlns="http://www.w3.org/2000/svg">
<path d="M11.7144 22.6094H3.48438V23.6992H11.7144V22.6094Z" fill="white"/>
<path d="M45.4956 22.6094H37.2656V23.6992H45.4956V22.6094Z" fill="white"/>
<path d="M15.3009 34.0696H11.2109V14.3496H15.3009V34.0696ZM12.2509 33.0195H14.2409V15.3994H12.2509V33.0195Z" fill="white"/>
<path d="M24.06 35.2595C23.98 35.2595 16.27 34.9195 14.27 27.0195L14.25 26.8896V20.5496L14.3 20.4495C14.44 20.1295 17.88 12.6695 24.8 12.9895L24.75 14.0295C18.93 13.7395 15.71 19.9295 15.29 20.7795V26.8196C17.11 33.8796 23.8 34.1995 24.09 34.2095L24.06 35.2495V35.2595Z" fill="white"/>
<path d="M24.0647 28.6499V31.6599L23.3647 31.45L22.2347 31.8999L21.3947 31.01L19.9247 31.0601V29.8801L18.6147 29.8501V28.8L17.4047 27.8301L17.7447 26.6799L16.6147 25.6599L17.1947 24.6599L16.3047 23.45L17.1947 22.45L16.8047 21.3201L17.7747 20.48L17.3547 19.48L18.6947 18.96L18.5947 17.8601L20.0347 17.52L20.1847 16.5H21.6547L22.4447 15.71L22.8147 16.02C22.8147 16.02 23.7647 15.8399 24.0647 15.9199V18.3901C24.0647 18.3901 20.2447 19.26 20.3247 23.98C20.3247 23.98 19.9147 27.5599 24.0647 28.6599V28.6499Z" fill="white"/>
<path d="M28.7881 15.82V33.2299C28.7881 33.2299 30.4281 34.9098 29.1381 35.3998C29.1381 35.3998 26.9381 35.68 26.8281 34.84V14.14C26.8281 14.14 28.5881 12.3798 29.9181 13.4298C29.9181 13.4298 30.4781 14.24 28.7781 15.82H28.7881Z" fill="white"/>
<path d="M34.4218 13.7896V34.6695C34.4218 34.6695 33.5818 35.9996 31.6918 35.0496C31.6918 35.0496 31.4818 34.1395 32.8118 32.9495V16.0296C32.8118 16.0296 31.3818 13.4897 32.7118 13.0997C32.7118 13.0997 33.5818 12.8096 34.4218 13.7896Z" fill="white"/>
<path d="M35.0703 35.4395V13.8697C35.0703 13.8697 36.5603 12.7997 37.5703 13.6097C37.5703 13.6097 38.2003 14.4097 36.8703 15.5997V32.9896C36.8703 32.9896 37.6903 34.0096 37.2703 35.0096C37.2703 35.0096 36.7203 35.9495 35.0703 35.4395Z" fill="white"/>
<path d="M26.2049 13.9294V34.8096C26.2049 34.8096 24.9449 35.7496 23.8949 34.8096C23.8949 34.8096 23.1549 34.0095 24.5249 32.2195V12.8096L26.5849 13.6794C26.5849 13.6794 26.2749 13.7694 26.2049 13.9194V13.9294Z" fill="white"/>
<path d="M24.5253 13.4297H23.6953V16.0298H24.5253V13.4297Z" fill="white"/>
<path d="M33.2919 22.3896H28.1719V24.9495H33.2919V22.3896Z" fill="white"/>
<path d="M3.04126 28.3496L7.09125 27.2295L7.24126 27.7795L5.44125 28.2795L7.55125 28.8896L7.75125 29.6296L5.89125 29.0396L3.71126 30.7996L3.51125 30.0896L5.21126 28.8196L4.41125 28.5596L3.18126 28.8994L3.03125 28.3496H3.04126Z" fill="white"/>
<path d="M7.80058 29.7197L8.03058 30.2397L5.95058 31.1597C5.62058 31.3097 5.41059 31.4097 5.32059 31.4597C5.17059 31.5497 5.07057 31.6598 5.01057 31.7898C4.95057 31.9198 4.96057 32.0497 5.01057 32.1997C5.08057 32.3497 5.17059 32.4397 5.29059 32.4697C5.41059 32.5097 5.54059 32.4997 5.68059 32.4597C5.82059 32.4197 6.04058 32.3297 6.34058 32.1897L8.47058 31.2498L8.70058 31.7698L6.68059 32.6697C6.22059 32.8697 5.89059 33.0098 5.68059 33.0598C5.48059 33.1198 5.29058 33.1399 5.13058 33.1199C4.97058 33.0999 4.82059 33.0497 4.68059 32.9597C4.55059 32.8697 4.43058 32.7198 4.34058 32.5198C4.23058 32.2698 4.19058 32.0697 4.22058 31.8997C4.25058 31.7397 4.31058 31.5897 4.42058 31.4497C4.52058 31.3197 4.64058 31.1999 4.78058 31.1199C4.98058 30.9899 5.30058 30.8299 5.73058 30.6399L7.78058 29.7297L7.80058 29.7197Z" fill="white"/>
<path d="M5.5625 34.7395L8.6925 31.8496L9.0125 32.3296L6.8425 34.2896L9.5325 33.1196L9.91251 33.6794L7.74251 35.7195L10.4225 34.4495L10.7425 34.9294L6.8625 36.6895L6.5325 36.1895L8.8325 33.9795L5.90251 35.2595L5.5625 34.7495V34.7395Z" fill="white"/>
<path d="M9.32063 39.4792L8.90063 39.0293L9.43063 38.1992L8.66063 37.3694L7.80063 37.8494L7.39062 37.4092L11.2206 35.3594L11.6306 35.7993L9.31062 39.4893L9.32063 39.4792ZM9.83063 37.5793L10.7106 36.2393L9.31062 37.0193L9.83063 37.5793Z" fill="white"/>
<path d="M9.74219 39.8093L12.5222 36.6592L12.9522 37.0393L10.1722 40.1892L9.74219 39.8093Z" fill="white"/>
<path d="M11.2578 41.0696L13.3278 38.2495L12.6578 37.7595L13.0778 37.1895L14.8878 38.5095L14.4678 39.0796L13.7978 38.5896L11.7278 41.4094L11.2678 41.0696H11.2578Z" fill="white"/>
<path d="M16.3785 42.2695L16.7685 42.7395C16.4985 43.1195 16.2285 43.3695 15.9485 43.4895C15.6785 43.6095 15.3985 43.5995 15.1285 43.4695C14.7885 43.3095 14.5885 43.0096 14.5385 42.5596C14.4785 42.1096 14.5985 41.5895 14.8785 40.9895C15.1785 40.3595 15.5185 39.9194 15.8985 39.6694C16.2785 39.4194 16.6485 39.3795 17.0085 39.5495C17.3185 39.6995 17.5085 39.9496 17.5785 40.3196C17.6185 40.5396 17.5985 40.8096 17.5085 41.1396L16.9185 41.0796C16.9785 40.8696 16.9885 40.6795 16.9485 40.5195C16.9085 40.3595 16.8185 40.2494 16.6785 40.1794C16.4885 40.0894 16.2885 40.1195 16.0785 40.2695C15.8685 40.4195 15.6485 40.7194 15.4385 41.1694C15.2085 41.6494 15.1085 42.0195 15.1285 42.2795C15.1485 42.5395 15.2485 42.7095 15.4385 42.7995C15.5785 42.8595 15.7185 42.8495 15.8785 42.7695C16.0385 42.6895 16.2085 42.5195 16.3785 42.2595V42.2695Z" fill="white"/>
<path d="M17.0391 44.2097L18.2391 40.1797L18.7791 40.3398L18.3091 41.9297L19.3791 42.2498L19.8491 40.6597L20.3991 40.8198L19.1991 44.8499L18.6591 44.6897L19.1891 42.9297L18.119 42.6099L17.5891 44.3699L17.0491 44.2097H17.0391Z" fill="white"/>
<path d="M20.1328 45.0596L20.7528 40.8994L22.8228 41.2095L22.7228 41.9094L21.2228 41.6895L21.0828 42.6096L22.4828 42.8196L22.3828 43.5195L20.9828 43.3096L20.8128 44.4395L22.3728 44.6694L22.2728 45.3696L20.1528 45.0596H20.1328Z" fill="white"/>
<path d="M23.1303 45.4595L23.0703 41.2595H23.9203L24.4703 44.1096L24.9303 41.2295H25.7803L25.8403 45.4194H25.3103L25.2603 42.1196L24.7503 45.4395H24.2003L23.6003 42.1494L23.6503 45.4595H23.1203H23.1303Z" fill="white"/>
<path d="M26.6619 45.3301L26.1719 41.1499L26.7319 41.0801L27.2219 45.26L26.6619 45.3301Z" fill="white"/>
<path d="M29.4597 43.2694L30.0497 43.3993C30.0697 43.8693 29.9997 44.2293 29.8597 44.4893C29.7197 44.7493 29.4997 44.9093 29.1997 44.9793C28.8297 45.0593 28.4897 44.9395 28.1697 44.6195C27.8497 44.2995 27.6197 43.8193 27.4797 43.1693C27.3297 42.4893 27.3297 41.9293 27.4797 41.4993C27.6297 41.0693 27.8997 40.8093 28.2897 40.7293C28.6297 40.6593 28.9297 40.7393 29.2097 40.9893C29.3697 41.1393 29.5197 41.3693 29.6597 41.6793L29.1497 41.9993C29.0697 41.7893 28.9597 41.6394 28.8297 41.5394C28.6997 41.4394 28.5597 41.4093 28.4097 41.4393C28.2097 41.4893 28.0697 41.6295 27.9897 41.8795C27.9097 42.1295 27.9297 42.4893 28.0397 42.9793C28.1597 43.4993 28.2997 43.8494 28.4697 44.0494C28.6397 44.2394 28.8297 44.3194 29.0297 44.2694C29.1797 44.2394 29.2897 44.1393 29.3597 43.9793C29.4297 43.8193 29.4597 43.5794 29.4397 43.2694H29.4597Z" fill="white"/>
<path d="M33.5419 43.479L32.9619 43.699L32.3919 42.8989L31.3419 43.3091L31.4719 44.2791L30.9119 44.499L30.4219 40.179L30.9819 39.959L33.5519 43.479H33.5419ZM31.9619 42.3091L31.0419 40.989L31.2519 42.5791L31.9719 42.2991L31.9619 42.3091Z" fill="white"/>
<path d="M34.1294 43.1692L32.1094 39.5193L32.6094 39.2393L34.2894 42.2693L35.5294 41.5793L35.8694 42.1992L34.1294 43.1592V43.1692Z" fill="white"/>
<path d="M37.44 41.1299L34.75 37.8997L35.19 37.5398L36.25 38.8098L37.11 38.0999L36.05 36.8298L36.49 36.4697L39.18 39.6997L38.74 40.0598L37.56 38.6497L36.7 39.3599L37.88 40.7698L37.44 41.1299Z" fill="white"/>
<path d="M38.2708 37.7095C37.9508 37.4295 37.7108 37.1595 37.5508 36.8995C37.4308 36.7095 37.3507 36.5197 37.2907 36.3197C37.2307 36.1197 37.2208 35.9496 37.2508 35.7996C37.2808 35.5996 37.3808 35.4096 37.5308 35.2296C37.8008 34.9196 38.1708 34.7997 38.6208 34.8597C39.0708 34.9297 39.5607 35.1897 40.0707 35.6397C40.5807 36.0897 40.9008 36.5296 41.0208 36.9696C41.1408 37.4096 41.0707 37.7797 40.7907 38.0897C40.5107 38.3997 40.1507 38.5295 39.7007 38.4595C39.2507 38.3895 38.7708 38.1395 38.2708 37.6895V37.7095ZM38.6407 37.2496C39.0007 37.5696 39.3207 37.7496 39.6007 37.7996C39.8807 37.8496 40.1008 37.7997 40.2508 37.6197C40.4008 37.4497 40.4307 37.2295 40.3507 36.9595C40.2607 36.6895 40.0407 36.3897 39.6707 36.0697C39.3107 35.7497 38.9908 35.5696 38.7208 35.5196C38.4508 35.4696 38.2307 35.5295 38.0807 35.7095C37.9307 35.8895 37.8908 36.1097 37.9708 36.3697C38.0608 36.6397 38.2807 36.9296 38.6407 37.2496Z" fill="white"/>
<path d="M38.5825 34.0896L38.8925 33.6096L40.8125 34.8396C41.1125 35.0396 41.3125 35.1595 41.4125 35.1995C41.5725 35.2695 41.7225 35.2995 41.8525 35.2795C41.9925 35.2595 42.1025 35.1796 42.1825 35.0496C42.2725 34.9096 42.2925 34.7894 42.2525 34.6594C42.2125 34.5294 42.1425 34.4296 42.0225 34.3396C41.9125 34.2496 41.7125 34.1094 41.4325 33.9294L39.4725 32.6694L39.7825 32.1895L41.6425 33.3796C42.0725 33.6496 42.3625 33.8595 42.5225 33.9995C42.6825 34.1395 42.8025 34.2794 42.8725 34.4294C42.9425 34.5794 42.9825 34.7296 42.9825 34.8896C42.9825 35.0496 42.9225 35.2294 42.7925 35.4094C42.6425 35.6394 42.4925 35.7796 42.3425 35.8496C42.1925 35.9196 42.0325 35.9394 41.8625 35.9294C41.6925 35.9194 41.5325 35.8796 41.3825 35.8096C41.1625 35.7096 40.8525 35.5295 40.4525 35.2795L38.5625 34.0696L38.5825 34.0896Z" fill="white"/>
<path d="M42.4879 33.1794L42.6479 32.6396C42.9179 32.7296 43.1279 32.7494 43.2879 32.7094C43.4479 32.6694 43.5679 32.5693 43.6379 32.4193C43.7179 32.2493 43.7179 32.0994 43.6479 31.9694C43.5779 31.8394 43.4779 31.7393 43.3379 31.6693C43.2479 31.6293 43.1579 31.6095 43.0879 31.6195C43.0079 31.6195 42.9279 31.6594 42.8379 31.7294C42.7779 31.7794 42.6579 31.8895 42.4779 32.0695C42.2479 32.2995 42.0379 32.4394 41.8379 32.4794C41.5579 32.5394 41.2679 32.4995 40.9579 32.3595C40.7679 32.2695 40.5979 32.1494 40.4579 31.9994C40.3179 31.8494 40.2379 31.6794 40.2179 31.4994C40.1979 31.3194 40.2179 31.1294 40.3179 30.9294C40.4679 30.6094 40.6779 30.4095 40.9679 30.3495C41.2579 30.2795 41.5679 30.3294 41.9279 30.4794L41.7279 31.0094C41.5179 30.9394 41.3579 30.9294 41.2379 30.9594C41.1179 30.9894 41.0279 31.0794 40.9579 31.2294C40.8879 31.3794 40.8779 31.5193 40.9379 31.6493C40.9679 31.7293 41.0379 31.7995 41.1379 31.8395C41.2279 31.8795 41.3179 31.8895 41.4079 31.8695C41.5179 31.8395 41.6779 31.7194 41.8779 31.5094C42.0779 31.2994 42.2579 31.1495 42.4079 31.0795C42.5579 31.0095 42.7279 30.9694 42.9279 30.9694C43.1279 30.9694 43.3379 31.0393 43.5879 31.1493C43.8079 31.2493 43.9979 31.3795 44.1479 31.5495C44.2979 31.7195 44.3879 31.8995 44.4179 32.0895C44.4479 32.2795 44.4079 32.4894 44.3079 32.7094C44.1579 33.0294 43.9379 33.2295 43.6279 33.2995C43.3279 33.3695 42.9479 33.3293 42.5079 33.1593L42.4879 33.1794Z" fill="white"/>
<path d="M44.9831 30.8694L40.9531 29.6592L41.5531 27.6592L42.2331 27.8594L41.7931 29.3193L42.6831 29.5894L43.0931 28.2292L43.7731 28.4292L43.3631 29.7893L44.4631 30.1194L44.9131 28.6094L45.5931 28.8093L44.9831 30.8594V30.8694Z" fill="white"/>
<path d="M1.87813 13.7502C1.98813 13.8802 2.15812 14.1102 2.38812 14.4602L1.71812 14.9102L1.85812 15.1602L2.00812 15.4001C1.94812 15.5001 1.70812 15.6704 1.30812 15.8904C1.22812 15.7904 1.14812 15.6703 1.05812 15.5403C0.978121 15.4303 0.908125 15.3002 0.828125 15.1602C0.858125 15.1602 0.908124 15.1303 0.968124 15.1003L1.17813 14.9802C1.34813 14.8802 1.43813 14.8103 1.45813 14.7703L1.43813 14.7302L1.32812 14.5103L1.16812 14.2102L1.86812 13.7402L1.87813 13.7502ZM4.79813 14.2102L4.88812 14.2402L5.02812 14.2903L5.17813 14.3604L5.37813 13.8704L6.72812 14.3804L5.82812 16.7903C5.98812 16.9603 6.12812 17.1604 6.24812 17.3704C6.36812 17.5804 6.46813 17.8203 6.54813 18.0903C6.62813 18.3503 6.66812 18.6003 6.66812 18.8503C6.66812 19.0903 6.62813 19.3203 6.54813 19.5303C6.39813 19.9203 6.17812 20.1803 5.88812 20.3003C5.59812 20.4203 5.25812 20.4103 4.86812 20.2703C4.68812 20.2003 4.49812 20.1002 4.30812 19.9602C4.11812 19.8202 3.91812 19.6602 3.72812 19.4602C3.50812 19.2402 3.33812 19.0403 3.22812 18.8503C3.10812 18.6603 3.03813 18.4803 3.01813 18.3103C3.07813 18.3303 3.15812 18.3802 3.24812 18.4602C3.29812 18.5002 3.34813 18.5503 3.40813 18.6003C3.46813 18.6503 3.53812 18.7203 3.61812 18.8103C3.87812 19.0703 4.11812 19.2503 4.35812 19.3403C4.65812 19.4503 4.92813 19.4303 5.18813 19.2703C5.29813 19.1903 5.38812 19.1002 5.46812 18.9902C5.54812 18.8802 5.62813 18.7403 5.68813 18.5803C5.75813 18.4003 5.82813 18.0402 5.89813 17.5002L5.86812 17.4802C5.65812 17.4002 5.43813 17.5003 5.23813 17.7803L5.07812 18.0403C5.00812 18.1703 4.93813 18.3102 4.87813 18.4702C4.73813 18.3902 4.59812 18.2801 4.44812 18.1501C4.36812 18.0801 4.28813 18.0102 4.20813 17.9202C4.12813 17.8402 4.03812 17.7404 3.94812 17.6404L4.99812 14.8303C4.78812 14.8103 4.56812 14.8103 4.35812 14.8203C4.15812 14.8203 3.94812 14.8404 3.71812 14.8704L2.91812 14.1003C3.72812 14.0003 4.34813 14.0302 4.79813 14.1902V14.2102ZM7.27812 18.9602C7.45812 19.1402 7.56813 19.2902 7.62813 19.4102C7.60813 19.4502 7.45813 19.5602 7.18813 19.7302C7.21813 19.8302 7.28813 19.9303 7.37813 20.0603C7.27813 20.2103 7.12813 20.3104 6.90813 20.3704L6.58812 19.9202C6.58812 19.9202 6.60812 19.9101 6.61812 19.9001C6.65812 19.8701 6.71813 19.8403 6.79813 19.7903C6.92813 19.7303 6.99813 19.6804 7.01813 19.6304C7.01813 19.6304 7.01813 19.6304 7.01813 19.6204C7.01813 19.5904 6.99812 19.5603 6.97812 19.5303L6.82812 19.2603L7.04813 19.1104L7.30812 18.9602H7.27812Z" fill="white"/>
<path d="M6.27875 12.1995L7.74875 13.3496L6.52875 15.2295L5.28876 14.4194L6.28876 12.8796C5.94876 12.7596 5.53875 12.6796 5.07875 12.6296L4.46875 11.7295C4.53875 11.7295 4.60875 11.7295 4.66875 11.7295C4.72875 11.7295 4.80875 11.7395 4.91875 11.7495C4.99875 11.7495 5.05875 11.7695 5.09875 11.7795C5.22875 11.7995 5.33875 11.8096 5.41875 11.8296C5.57875 11.8696 5.73875 11.9195 5.87875 11.9895C6.02875 12.0495 6.15876 12.1295 6.28876 12.2095L6.27875 12.1995ZM8.61874 14.2195C8.76874 14.4395 8.88876 14.6696 8.95876 14.8896C8.90876 14.9296 8.80875 14.9795 8.65875 15.0295L8.32875 15.1296L8.39876 15.3096L8.50874 15.5696C8.33874 15.6996 8.10875 15.7796 7.83875 15.7896L7.52875 15.1196C7.71875 15.0996 7.91875 15.0495 8.12875 14.9495C8.12875 14.8895 8.09875 14.7995 8.05875 14.6895C7.99875 14.5695 7.96876 14.4794 7.95876 14.4294L8.62875 14.2095L8.61874 14.2195Z" fill="white"/>
<path d="M9.69558 10.9594L9.43559 11.2695L9.67559 11.7195L9.92559 12.1794C10.1056 12.6094 10.1056 12.9296 9.93559 13.1196C9.78559 13.2896 9.57559 13.4794 9.29559 13.6894C8.98559 13.8994 8.73559 14.0295 8.54559 14.0595C9.07559 13.4295 9.25559 12.6394 9.07559 11.6794C8.76559 11.9694 8.55559 12.1394 8.42559 12.1894C8.17559 12.3094 7.91559 12.2495 7.65559 12.0295C7.51559 11.9095 7.36558 11.7496 7.22558 11.5696C7.08558 11.3796 6.93559 11.1596 6.78559 10.8896C6.43559 10.2696 6.35559 9.84961 6.54559 9.62961C6.67559 9.47961 6.97559 9.49943 7.45559 9.68943C7.49559 9.70943 7.56558 9.73953 7.66558 9.78953C7.73558 9.82953 7.80559 9.85939 7.88559 9.89939C7.91559 9.91939 7.98559 9.95952 8.09559 10.0295C8.20559 10.0995 8.30559 10.1594 8.37559 10.1994L8.55558 9.98948L9.68559 10.9494L9.69558 10.9594ZM7.90559 10.6694C7.90559 10.6694 7.83559 10.6196 7.78559 10.5996C7.73559 10.5796 7.67559 10.5695 7.59559 10.5595C7.45559 10.5295 7.35558 10.5596 7.30558 10.6096C7.29558 10.6196 7.28559 10.6494 7.28559 10.6794V10.7695C7.28559 10.8495 7.28558 10.8994 7.30558 10.9294C7.37558 10.9894 7.46558 11.0095 7.58558 10.9795C7.67558 10.9495 7.76558 10.9096 7.83558 10.8396C7.90558 10.7496 7.93559 10.6894 7.90559 10.6594V10.6694Z" fill="white"/>
<path d="M11.6588 9.21973L11.1987 9.62988L10.2188 9.37988L10.4787 10.2798L9.39876 11.2498L8.40875 10.1497L9.45876 9.19971L7.45876 8.98975L6.71875 7.59985L7.97874 5.42969L8.18875 5.80981C8.28875 5.98981 8.38874 6.17987 8.47874 6.36987L7.59875 8.09985L8.96875 8.27979C9.53875 8.35979 9.99875 8.38988 10.3587 8.37988L10.6588 8.10986L11.6488 9.20972L11.6588 9.21973Z" fill="white"/>
<path d="M10.6959 5.29956L10.7859 6.44946L11.7059 7.56958C11.7559 7.63958 11.8659 7.82941 12.0259 8.14941C12.1859 8.46941 12.2759 8.6695 12.2759 8.7395L12.1659 8.90942L11.3759 9.47949L10.5159 8.27954L11.1859 7.79956V7.76953L11.1659 7.7395C10.9359 7.4195 10.6759 7.10957 10.3859 6.80957C10.0259 6.44957 9.70588 6.23944 9.43588 6.17944L9.32588 5.78955C9.32588 5.78955 9.30588 5.69941 9.29588 5.64941C9.28588 5.59941 9.27588 5.55952 9.26588 5.50952C9.18588 5.17952 9.17587 4.95961 9.22587 4.84961L9.34588 4.99951C9.43588 5.11951 9.63588 5.20951 9.96588 5.24951C10.0859 5.26951 10.2059 5.27954 10.3259 5.27954C10.4259 5.27954 10.5359 5.27952 10.6759 5.25952L10.7059 5.30957L10.6959 5.29956Z" fill="white"/>
<path d="M13.18 6.2395C13.56 6.8895 13.74 7.48954 13.71 8.02954L11.72 5.25952C11.67 5.18952 11.6 4.70957 11.5 3.80957C12.34 4.94957 12.91 5.75949 13.18 6.22949V6.2395Z" fill="white"/>
<path d="M19.195 4.17969L19.225 5.66968L16.705 6.46973C16.195 6.62973 15.805 6.27967 15.535 5.40967C15.445 5.12967 15.385 4.8097 15.365 4.4397C15.325 3.9697 15.375 3.6798 15.505 3.5498C15.535 3.6398 15.565 3.75968 15.595 3.91968C15.625 4.07968 15.655 4.20981 15.695 4.30981C15.755 4.48981 15.865 4.6498 16.035 4.7998C16.225 4.9598 16.405 5.00971 16.585 4.94971L18.645 4.2998V4.26978C18.605 4.13978 18.425 3.88979 18.085 3.52979L18.185 2.36987C18.625 2.79987 18.875 3.12985 18.945 3.34985L19.215 4.1897L19.195 4.17969ZM17.475 1.96973C17.445 2.09973 17.415 2.22986 17.375 2.35986C17.335 2.48986 17.295 2.62978 17.235 2.76978C17.135 2.76978 17.005 2.7397 16.845 2.6897L16.455 2.55981C16.385 2.68981 16.315 2.85983 16.245 3.07983L16.095 3.0498L15.825 2.95972C15.595 2.88972 15.475 2.8398 15.455 2.7998C15.455 2.7698 15.525 2.49976 15.715 1.99976C16.125 2.17976 16.355 2.25975 16.415 2.23975L16.435 2.20972L16.545 1.98975L16.675 1.67969L17.465 1.94971L17.475 1.96973Z" fill="white"/>
<path d="M21.3675 5.30981L20.3575 5.47974L19.4375 1.57983C19.4375 1.51983 19.4775 1.34981 19.5975 1.05981L19.8275 0.509766L20.6675 3.92969L21.1275 3.84985L21.3775 5.30981H21.3675Z" fill="white"/>
<path d="M23.12 3.31982L23.09 5.1897L20.86 5.34985L20.75 3.87988L22.59 3.74976V3.72974C22.47 3.39974 22.29 3.02987 22.05 2.61987L22.4 1.58984C22.44 1.64984 22.48 1.69977 22.52 1.75977C22.55 1.80977 22.6 1.87973 22.65 1.96973C22.69 2.03973 22.72 2.08988 22.74 2.12988C22.81 2.24988 22.86 2.33968 22.89 2.41968C22.96 2.56968 23.01 2.72988 23.05 2.87988C23.09 3.03988 23.11 3.18984 23.12 3.33984V3.31982ZM22.92 6.40967C22.83 6.66967 22.72 6.88984 22.59 7.08984C22.53 7.07984 22.43 7.02969 22.3 6.92969L22.02 6.71973L21.92 6.87988L21.78 7.11987C21.57 7.05987 21.38 6.92973 21.2 6.71973L21.55 6.06982C21.68 6.20982 21.84 6.33971 22.05 6.44971C22.09 6.40971 22.15 6.33975 22.21 6.23975C22.27 6.11975 22.32 6.03976 22.35 5.99976L22.93 6.39966L22.92 6.40967Z" fill="white"/>
<path d="M26.1294 3.72006C26.1094 4.03006 26.0694 4.33022 26.0094 4.63022C25.9794 4.80022 25.9394 4.95018 25.8994 5.09018C25.8594 5.23018 25.7994 5.39015 25.7294 5.56015C25.4194 6.39015 25.0394 6.80012 24.5794 6.78012C24.1294 6.76012 23.6394 6.64001 23.1194 6.42001L22.9094 6.33017L22.8894 6.31015L22.8594 6.25009L23.5594 6.19003C24.2594 5.89003 24.7894 5.57009 25.1394 5.25009C25.4894 4.92009 25.6694 4.59008 25.6894 4.24008L25.6694 4.21005C25.5094 4.55005 25.4194 4.72007 25.4094 4.73007C25.2894 4.88007 25.1294 4.95003 24.8994 4.94003C24.4594 4.92003 24.2594 4.62015 24.2794 4.06015C24.2794 3.88015 24.3194 3.69007 24.3794 3.48007C24.4394 3.27007 24.5294 3.03008 24.6594 2.74008C24.7894 2.45008 24.9194 2.2402 25.0494 2.1102C25.1794 1.9702 25.3194 1.91001 25.4594 1.92001H25.5294C25.9594 2.31001 26.1494 2.91008 26.1094 3.74008L26.1294 3.72006ZM25.4994 3.62021C25.4994 3.56021 25.4994 3.50003 25.4894 3.44003L25.4394 3.32016C25.3994 3.20016 25.3294 3.14021 25.2394 3.12021C25.1794 3.12021 25.1094 3.16007 25.0194 3.23007C24.9294 3.31007 24.8894 3.38004 24.8894 3.45004C24.8894 3.50004 24.9294 3.56022 25.0194 3.63022C25.0994 3.67022 25.1794 3.70006 25.2494 3.72006C25.2994 3.72006 25.3794 3.70023 25.5094 3.64023V3.6102L25.4994 3.62021Z" fill="white"/>
<path d="M27.8716 5.55981L26.8516 5.39966L27.2116 1.39966C27.2116 1.33966 27.3216 1.18972 27.5216 0.959717L27.9216 0.509766L27.6416 4.01978L28.1016 4.08984L27.8716 5.5498V5.55981Z" fill="white"/>
<path d="M30.4266 6.21936L29.7866 6.04944C29.7866 6.04944 29.7366 6.08929 29.6966 6.14929L29.6266 6.2594C29.5766 6.3694 29.5166 6.43935 29.4366 6.45935L28.3366 4.87952C28.3366 4.87952 28.2666 4.96944 28.2166 5.04944L28.0766 5.30945C28.0266 5.44945 27.9266 5.51943 27.7966 5.53943L27.4766 5.45935L27.8566 4.02942L28.4066 4.17932C28.4066 4.17932 28.5466 4.04946 28.7466 3.81946C28.8566 3.69946 28.9566 3.5894 29.0466 3.5094C29.1366 3.4294 29.2266 3.35942 29.3366 3.27942C29.6066 3.10942 29.8766 3.04951 30.1466 3.11951C30.2566 3.14951 30.3166 3.18939 30.3266 3.24939C30.3266 3.26939 30.3266 3.29947 30.3266 3.32947C30.3266 3.35947 30.3066 3.39936 30.2966 3.46936C30.2566 3.62936 30.2466 3.85953 30.2966 4.13953C30.3366 4.42953 30.4066 4.61937 30.5066 4.72937L30.7966 4.80945L30.4166 6.23938L30.4266 6.21936ZM29.6166 4.45935L29.6466 4.33948V4.2594C29.6466 4.2594 29.6566 4.18929 29.6466 4.14929C29.6466 4.06929 29.6466 4.0294 29.6166 4.0094L29.5366 3.96936C29.5366 3.96936 29.4366 3.95936 29.3566 3.96936C29.2766 3.96936 29.2266 3.96938 29.1966 3.98938C29.2566 4.10938 29.3866 4.26935 29.6066 4.45935H29.6166Z" fill="white"/>
<path d="M31.509 7.70972C31.409 7.81972 31.3091 7.90974 31.2091 7.97974C31.1591 8.01974 31.1191 8.04983 31.0691 8.07983C31.0191 8.10983 30.9691 8.13968 30.9191 8.16968C30.8591 8.12968 30.7991 8.03989 30.7191 7.88989C30.6691 7.80989 30.6091 7.70984 30.5491 7.58984L30.4391 7.65967L30.1591 7.84985C29.9991 7.70985 29.8791 7.50975 29.7891 7.23975L30.3891 6.7998C30.4391 6.9798 30.5391 7.16985 30.6791 7.34985C30.7391 7.34985 30.8291 7.29973 30.9391 7.21973C31.0391 7.14973 31.1091 7.09983 31.1491 7.07983L31.509 7.69971V7.70972ZM32.2091 6.95972L31.6291 6.72974C31.4991 6.67974 31.4291 6.54983 31.4191 6.32983V5.96973L30.9491 6.45972L30.0391 6.09985L30.5791 4.71973L31.5891 5.11987C31.7391 4.89987 31.8591 4.68976 31.9291 4.49976L32.009 4.31982C32.009 4.31982 32.0391 4.26977 32.0491 4.25977C32.0591 4.24977 32.0791 4.22972 32.1091 4.20972C32.2191 4.11972 32.4691 3.96977 32.8491 3.75977L32.6591 4.24976L32.5691 4.44971L32.4891 4.60986L32.3191 4.96973C32.2191 5.22973 32.279 5.40975 32.509 5.48975L32.759 5.58984L32.2191 6.96973L32.2091 6.95972Z" fill="white"/>
<path d="M34.555 8.21973L34.015 7.92969L33.915 6.91968L33.155 7.46973L31.875 6.78979L32.575 5.48975L33.825 6.15967L33.345 4.20972L34.405 3.0498L36.875 3.49976L36.585 3.82983C36.455 3.97983 36.305 4.1398 36.155 4.2998L34.225 4.05981L34.515 5.40967C34.635 5.96967 34.765 6.40976 34.895 6.74976L35.245 6.9397L34.545 8.23975L34.555 8.21973Z" fill="white"/>
<path d="M37.9444 6.00002L36.8944 6.46999L36.1444 7.70998C36.0944 7.77998 35.9544 7.94998 35.7044 8.20998C35.4544 8.46998 35.3044 8.62016 35.2344 8.64016L35.0344 8.60012L34.2344 8.05007L35.0744 6.8301L35.7544 7.30007H35.7844L35.8044 7.26003C36.0244 6.93003 36.2344 6.57998 36.4144 6.20998C36.6344 5.74998 36.7244 5.38012 36.6844 5.10012L37.0144 4.86013C37.0144 4.86013 37.0944 4.81005 37.1344 4.78005C37.1744 4.75005 37.2144 4.72998 37.2544 4.70998C37.5344 4.52998 37.7444 4.43997 37.8644 4.44997L37.7644 4.61013C37.6744 4.74013 37.6644 4.96004 37.7344 5.27004C37.7644 5.39004 37.7944 5.51014 37.8344 5.62014C37.8644 5.71014 37.9144 5.81996 37.9744 5.93996L37.9444 5.99001V6.00002Z" fill="white"/>
<path d="M37.885 8.64038C37.395 9.22038 36.895 9.59023 36.375 9.74023L38.305 6.93018C38.355 6.86018 38.785 6.63023 39.595 6.24023C38.805 7.42023 38.235 8.22038 37.885 8.64038Z" fill="white"/>
<path d="M41.0152 14.9098L40.6852 14.4698C40.6252 14.3898 40.6352 14.2599 40.6952 14.0699C40.7252 13.9799 40.7652 13.91 40.7952 13.85C40.8352 13.79 40.8752 13.7498 40.9352 13.7098L40.2252 13.88L38.8952 12.0799C38.5752 11.6499 38.7852 11.16 39.5152 10.62C39.6052 10.55 39.6652 10.5098 39.7052 10.4798C39.7452 10.4598 39.8252 10.4099 39.9452 10.3399C40.0652 10.2699 40.2252 10.2 40.4252 10.11C40.9052 9.88997 41.2152 9.82977 41.3552 9.90977L41.2952 9.95982C41.2152 10.0198 41.0952 10.0898 40.9152 10.1798C40.7352 10.2698 40.6152 10.3498 40.5352 10.3998C40.3852 10.5098 40.2652 10.67 40.1952 10.87C40.1152 11.07 40.1352 11.2498 40.2552 11.3998L41.4852 13.0599C41.4852 13.0599 41.6152 13.0098 41.7452 12.9298C41.8752 12.8498 42.0452 12.74 42.2252 12.6L43.2852 12.5799L42.7652 12.9598L42.0552 13.39C41.9452 13.47 41.9152 13.5598 41.9452 13.6798L42.1952 14.0199L41.0052 14.8998L41.0152 14.9098ZM43.5152 11.7899C43.4452 11.8099 43.2952 11.83 43.0552 11.85C42.8152 11.87 42.6752 11.8499 42.6352 11.8199C42.6152 11.7899 42.6052 11.5199 42.6152 11.0099H42.3852L42.0352 10.9798C42.0152 10.8998 41.9952 10.7499 41.9952 10.5399C41.9752 10.2899 41.9952 10.16 42.0252 10.13C42.0752 10.09 42.3652 10.09 42.9052 10.13C42.8852 10.18 42.8652 10.3099 42.8552 10.5199C42.8552 10.7199 42.8552 10.84 42.8852 10.88C42.8852 10.88 42.8952 10.88 42.9052 10.88C42.9052 10.88 42.9252 10.88 42.9552 10.88L43.1752 10.8998L43.5252 10.9298V11.7799L43.5152 11.7899Z" fill="white"/>
<path d="M40.6844 16.6995C40.5344 16.7095 40.4044 16.7095 40.2844 16.6995C40.2244 16.6995 40.1745 16.6995 40.1145 16.6895C40.0545 16.6895 39.9944 16.6694 39.9344 16.6594C39.9144 16.5894 39.9344 16.4796 39.9744 16.3196C39.9844 16.2196 40.0145 16.1095 40.0545 15.9795L39.9245 15.9595L39.5944 15.9094C39.5644 15.6994 39.6145 15.4695 39.7345 15.2095L40.4744 15.2795C40.3844 15.4495 40.3345 15.6496 40.3245 15.8796C40.3745 15.9096 40.4745 15.9395 40.6045 15.9495C40.7245 15.9595 40.8045 15.9795 40.8545 15.9895L40.7045 16.6895L40.6844 16.6995ZM41.7045 16.6096L41.4245 16.0496C41.3645 15.9296 41.3944 15.7796 41.5344 15.6096L41.7844 15.3496L41.0944 15.3896L40.6544 14.5095L41.9744 13.8496L42.4645 14.8196C42.7245 14.7596 42.9444 14.6796 43.1344 14.5896L43.3144 14.5095C43.3144 14.5095 43.3744 14.4895 43.3844 14.4895C43.4044 14.4895 43.4245 14.4895 43.4645 14.4895C43.6045 14.4895 43.8844 14.5494 44.3144 14.6494L43.8444 14.8896L43.6445 14.9795L43.4845 15.0396L43.1244 15.1895C42.8744 15.3195 42.8044 15.4895 42.9144 15.6995L43.0344 15.9395L41.7145 16.5996L41.7045 16.6096Z" fill="white"/>
<path d="M40.9444 18.0396C40.9444 18.0396 40.7944 17.9996 40.5744 17.8896C40.5244 17.8596 40.4744 17.8396 40.4444 17.8196C40.4044 17.7996 40.3744 17.7795 40.3444 17.7595C40.2944 17.7295 40.2544 17.6894 40.2344 17.6594C40.2344 17.6394 40.2344 17.5996 40.2444 17.5396C40.2644 17.4796 40.2844 17.3896 40.3344 17.2896C40.3744 17.1796 40.4144 17.0996 40.4444 17.0396C40.4744 16.9796 40.5044 16.9394 40.5244 16.9294C40.5644 16.9094 40.7044 16.9496 40.9444 17.0496C41.1844 17.1396 41.3044 17.2095 41.3244 17.2495C41.3244 17.2595 41.2744 17.3994 41.1544 17.6494C41.0344 17.9094 40.9644 18.0396 40.9444 18.0496V18.0396ZM44.0744 17.4395C43.8144 17.5395 43.4944 17.6195 43.1244 17.6895L42.6644 17.7896C42.5844 17.8096 42.5044 17.8296 42.4244 17.8396C42.3544 17.8496 42.2644 17.8696 42.1544 17.8796L41.5444 16.2495L42.9344 15.7295L43.4144 17.0295H43.4644C43.5844 16.9695 43.7544 16.8494 43.9644 16.6494C44.1644 16.4694 44.2944 16.3194 44.3744 16.1794L45.5344 16.2295C45.1044 16.8195 44.6144 17.2194 44.0644 17.4194L44.0744 17.4395Z" fill="white"/>
</svg>
