<svg width="130" height="135" viewBox="0 0 130 135" fill="none" xmlns="http://www.w3.org/2000/svg">
<path d="M65.03 134.62C100.857 134.62 129.9 104.601 129.9 67.57C129.9 30.5393 100.857 0.52002 65.03 0.52002C29.2033 0.52002 0.160034 30.5393 0.160034 67.57C0.160034 104.601 29.2033 134.62 65.03 134.62Z" fill="white"/>
<path d="M35.3901 66.6499H14.6901V69.4799H35.3901V66.6499Z" fill="#231F20"/>
<path d="M120.3 66.6499H99.6001V69.4799H120.3V66.6499Z" fill="#231F20"/>
<path d="M44.3501 96.4299H34.0701V45.1899H44.3501V96.4299ZM36.7101 93.7099H41.7201V47.9199H36.7101V93.7099Z" fill="#231F20"/>
<path d="M66.3701 99.51C66.1701 99.51 46.7801 98.61 41.7601 78.11L41.7201 77.78V61.31L41.8301 61.05C42.1901 60.22 50.8301 40.85 68.2201 41.66L68.1001 44.36C53.4801 43.61 45.3801 59.7 44.3301 61.91V77.61C48.9201 95.95 65.7301 96.78 66.4501 96.81L66.3601 99.51H66.3701Z" fill="#231F20"/>
<path d="M66.4201 82.35V90.16L64.6601 89.61L61.8301 90.77L59.7201 88.45L56.0301 88.59V85.52L52.7301 85.45V82.72L49.7001 80.2L50.5601 77.2L47.7301 74.54L49.1801 71.95L46.9401 68.82L49.1801 66.23L48.1901 63.3L50.6301 61.12L49.5801 58.53L52.9401 57.17L52.6801 54.31L56.3101 53.42L56.6901 50.76H60.3901L62.3701 48.72L63.2901 49.54C63.2901 49.54 65.6901 49.06 66.4301 49.27V55.68C66.4301 55.68 56.8301 57.93 57.0201 70.19C57.0201 70.19 55.9901 79.5 66.4301 82.34L66.4201 82.35Z" fill="#231F20"/>
<path d="M78.2801 49V94.25C78.2801 94.25 82.4101 98.61 79.1601 99.88C79.1601 99.88 73.6201 100.61 73.3601 98.43V44.64C73.3601 44.64 77.7801 40.07 81.1401 42.8C81.1401 42.8 82.5501 44.91 78.2801 49Z" fill="#2E3190"/>
<path d="M92.4401 43.7299V97.9699C92.4401 97.9699 90.3301 101.42 85.5801 98.9699C85.5801 98.9699 85.0501 96.6099 88.3901 93.5199V49.5399C88.3901 49.5399 84.7901 42.9399 88.1301 41.9299C88.1301 41.9299 90.3301 41.1899 92.4401 43.7299Z" fill="#2E3190"/>
<path d="M94.06 100V43.9601C94.06 43.9601 97.8 41.1901 100.34 43.2801C100.34 43.2801 101.92 45.3701 98.58 48.4601V93.6401C98.58 93.6401 100.65 96.3001 99.59 98.8901C99.59 98.8901 98.21 101.33 94.05 100.01L94.06 100Z" fill="#2E3190"/>
<path d="M71.7801 44.0999V98.3399C71.7801 98.3399 68.6201 100.79 65.9801 98.3399C65.9801 98.3399 64.1301 96.2499 67.5601 91.6199V41.1899L72.7501 43.4599C72.7501 43.4599 71.9801 43.6899 71.7801 44.0999Z" fill="#2E3190"/>
<path d="M67.5601 42.8H65.4801V49.55H67.5601V42.8Z" fill="#231F20"/>
<path d="M89.5901 66.0701H76.7301V72.7101H89.5901V66.0701Z" fill="#2E3190"/>
<path d="M13.54 81.5599L23.73 78.6599L24.11 80.0899L19.59 81.3799L24.88 82.9699L25.39 84.8899L20.71 83.3599L15.24 87.9299L14.75 86.0899L19.02 82.7899L17.01 82.1199L13.93 82.9999L13.55 81.5799L13.54 81.5599Z" fill="#231F20"/>
<path d="M25.52 85.1399L26.1 86.4899L20.87 88.8899C20.04 89.2699 19.51 89.5299 19.28 89.6799C18.91 89.9199 18.65 90.1999 18.51 90.5299C18.36 90.8599 18.37 91.2099 18.53 91.5899C18.69 91.9699 18.93 92.2099 19.24 92.2999C19.55 92.3899 19.88 92.3799 20.22 92.2699C20.56 92.1599 21.12 91.9299 21.89 91.5799L27.23 89.1299L27.81 90.4799L22.74 92.8099C21.58 93.3399 20.74 93.6799 20.23 93.8299C19.72 93.9799 19.26 94.0299 18.84 93.9799C18.42 93.9299 18.05 93.7899 17.72 93.5499C17.38 93.3099 17.1 92.9299 16.87 92.3999C16.6 91.7599 16.49 91.2299 16.57 90.7999C16.64 90.3699 16.8 89.9799 17.06 89.6399C17.32 89.2899 17.62 88.9999 17.97 88.7699C18.49 88.4299 19.28 88.0099 20.36 87.5099L25.51 85.1399H25.52Z" fill="#231F20"/>
<path d="M19.87 98.1799L27.73 90.6599L28.54 91.9199L23.09 96.9999L29.85 93.9499L30.79 95.4099L25.34 100.71L32.08 97.4099L32.88 98.6499L23.13 103.23L22.29 101.92L28.08 96.1799L20.73 99.4999L19.87 98.1699V98.1799Z" fill="#231F20"/>
<path d="M29.32 110.49L28.26 109.31L29.6 107.15L27.68 105L25.52 106.24L24.49 105.09L34.12 99.76L35.15 100.91L29.32 110.49ZM30.6 105.55L32.81 102.06L29.28 104.09L30.59 105.56L30.6 105.55Z" fill="#231F20"/>
<path d="M30.38 111.35L37.37 103.16L38.44 104.14L31.45 112.33L30.38 111.35Z" fill="#231F20"/>
<path d="M34.2201 114.63L39.4101 107.31L37.7101 106.03L38.7701 104.54L43.3101 107.98L42.2501 109.47L40.5601 108.19L35.3701 115.51L34.2201 114.64V114.63Z" fill="#231F20"/>
<path d="M47.08 117.75L48.06 118.97C47.38 119.96 46.69 120.6 46.01 120.91C45.32 121.22 44.64 121.2 43.95 120.87C43.1 120.46 42.6 119.67 42.46 118.51C42.32 117.35 42.6 115.99 43.31 114.43C44.06 112.78 44.91 111.64 45.88 111C46.85 110.36 47.78 110.25 48.68 110.69C49.46 111.07 49.94 111.74 50.1 112.69C50.2 113.25 50.14 113.97 49.93 114.83L48.43 114.68C48.59 114.13 48.61 113.65 48.51 113.24C48.4 112.83 48.18 112.54 47.84 112.37C47.36 112.14 46.86 112.22 46.32 112.6C45.79 112.98 45.25 113.76 44.72 114.94C44.15 116.19 43.89 117.15 43.95 117.82C44.01 118.49 44.26 118.94 44.73 119.17C45.07 119.34 45.44 119.31 45.85 119.09C46.26 118.87 46.67 118.43 47.11 117.76L47.08 117.75Z" fill="#231F20"/>
<path d="M48.73 122.78L51.75 112.31L53.12 112.73L51.93 116.85L54.61 117.68L55.8 113.56L57.17 113.98L54.15 124.45L52.78 124.03L54.1 119.45L51.42 118.62L50.1 123.2L48.73 122.78Z" fill="#231F20"/>
<path d="M56.51 124.98L58.06 114.17L63.25 114.97L62.99 116.8L59.21 116.22L58.87 118.62L62.39 119.16L62.13 120.98L58.61 120.44L58.19 123.38L62.1 123.98L61.84 125.8L56.51 124.98Z" fill="#231F20"/>
<path d="M64.05 126.03L63.9 115.1L66.04 115.07L67.43 122.5L68.6 115.03L70.74 115L70.89 125.93L69.56 125.95L69.44 117.35L68.15 125.97L66.77 125.99L65.25 117.41L65.37 126.01L64.04 126.03H64.05Z" fill="#231F20"/>
<path d="M72.9301 125.68L71.7001 114.83L73.1201 114.66L74.3501 125.51L72.9301 125.68Z" fill="#231F20"/>
<path d="M79.9501 120.33L81.4501 120.68C81.5001 121.89 81.3401 122.84 80.9801 123.51C80.6201 124.19 80.0701 124.61 79.3301 124.78C78.4101 124.99 77.5501 124.68 76.7501 123.85C75.9501 123.02 75.3701 121.76 75.0101 120.09C74.6301 118.32 74.6301 116.87 75.0101 115.75C75.3901 114.63 76.0701 113.96 77.0401 113.74C77.8801 113.55 78.6601 113.77 79.3501 114.42C79.7601 114.8 80.1401 115.4 80.4801 116.22L79.2101 117.05C79.0101 116.52 78.7401 116.12 78.4201 115.86C78.0901 115.6 77.7401 115.51 77.3701 115.6C76.8601 115.72 76.5001 116.1 76.3101 116.74C76.1101 117.38 76.1501 118.34 76.4301 119.61C76.7201 120.96 77.0901 121.88 77.5201 122.38C77.9601 122.88 78.4301 123.07 78.9301 122.95C79.3001 122.86 79.5801 122.61 79.7701 122.18C79.9601 121.75 80.0301 121.14 79.9701 120.33H79.9501Z" fill="#231F20"/>
<path d="M90.2201 120.88L88.7701 121.46L87.3301 119.38L84.6901 120.43L85.0101 122.96L83.5901 123.53L82.3501 112.31L83.7601 111.75L90.2101 120.89L90.2201 120.88ZM86.2501 117.83L83.9301 114.41L84.4501 118.55L86.2501 117.83Z" fill="#231F20"/>
<path d="M91.69 120.07L86.61 110.59L87.86 109.87L92.07 117.74L95.18 115.96L96.04 117.57L91.68 120.07H91.69Z" fill="#231F20"/>
<path d="M100.03 114.78L93.27 106.38L94.37 105.43L97.03 108.74L99.18 106.89L96.52 103.58L97.62 102.63L104.38 111.03L103.28 111.98L100.32 108.31L98.17 110.16L101.13 113.83L100.03 114.78Z" fill="#231F20"/>
<path d="M102.11 105.89C101.3 105.15 100.7 104.45 100.29 103.78C99.9901 103.29 99.7701 102.79 99.6401 102.28C99.5101 101.77 99.4701 101.32 99.5301 100.92C99.6101 100.39 99.8501 99.8999 100.23 99.4499C100.92 98.6399 101.83 98.3299 102.97 98.4999C104.11 98.6799 105.32 99.3499 106.61 100.53C107.89 101.7 108.68 102.85 109 103.99C109.32 105.13 109.12 106.1 108.43 106.91C107.73 107.73 106.82 108.05 105.69 107.87C104.56 107.69 103.36 107.03 102.1 105.88L102.11 105.89ZM103.03 104.7C103.93 105.52 104.73 106 105.44 106.13C106.15 106.27 106.69 106.11 107.07 105.67C107.45 105.23 107.53 104.66 107.31 103.95C107.09 103.25 106.53 102.48 105.61 101.64C104.7 100.81 103.91 100.33 103.22 100.2C102.54 100.07 102 100.23 101.61 100.69C101.22 101.15 101.13 101.72 101.34 102.41C101.55 103.1 102.12 103.86 103.03 104.7Z" fill="#231F20"/>
<path d="M102.9 96.4798L103.67 95.2398L108.49 98.4398C109.25 98.9498 109.76 99.2598 110 99.3798C110.4 99.5698 110.77 99.6398 111.11 99.5798C111.46 99.5298 111.74 99.3298 111.95 98.9798C112.17 98.6298 112.23 98.2898 112.14 97.9698C112.05 97.6498 111.85 97.3698 111.57 97.1398C111.29 96.8998 110.8 96.5498 110.09 96.0798L105.17 92.8098L105.94 91.5698L110.61 94.6698C111.68 95.3798 112.41 95.9098 112.81 96.2698C113.21 96.6298 113.5 96.9998 113.7 97.3798C113.9 97.7598 113.98 98.1598 113.97 98.5898C113.96 99.0198 113.81 99.4698 113.5 99.9498C113.13 100.54 112.76 100.92 112.37 101.09C111.99 101.26 111.58 101.33 111.16 101.3C110.74 101.27 110.34 101.17 109.96 100.99C109.4 100.73 108.62 100.27 107.63 99.6098L102.89 96.4598L102.9 96.4798Z" fill="#231F20"/>
<path d="M112.72 94.1098L113.11 92.7198C113.78 92.9398 114.32 92.9998 114.72 92.8998C115.12 92.7998 115.42 92.5498 115.6 92.1398C115.79 91.7098 115.8 91.3198 115.64 90.9698C115.47 90.6298 115.21 90.3698 114.86 90.1998C114.63 90.0898 114.42 90.0498 114.22 90.0598C114.02 90.0798 113.81 90.1698 113.59 90.3498C113.44 90.4698 113.14 90.7598 112.69 91.2298C112.11 91.8298 111.57 92.1798 111.07 92.2998C110.36 92.4598 109.63 92.3598 108.86 91.9998C108.37 91.7698 107.96 91.4598 107.61 91.0598C107.27 90.6698 107.07 90.2398 107 89.7698C106.94 89.2998 107.02 88.8098 107.25 88.2998C107.62 87.4598 108.16 86.9598 108.88 86.7898C109.6 86.6198 110.4 86.7298 111.29 87.1198L110.78 88.5098C110.26 88.3298 109.85 88.2898 109.55 88.3798C109.25 88.4698 109.02 88.6998 108.85 89.0798C108.68 89.4698 108.66 89.8298 108.79 90.1598C108.87 90.3698 109.04 90.5398 109.29 90.6598C109.52 90.7698 109.74 90.7898 109.96 90.7398C110.24 90.6698 110.64 90.3598 111.15 89.8098C111.66 89.2598 112.11 88.8898 112.48 88.6898C112.85 88.4898 113.29 88.3998 113.78 88.4198C114.27 88.4398 114.82 88.5898 115.43 88.8798C115.98 89.1398 116.45 89.4898 116.84 89.9298C117.23 90.3698 117.45 90.8398 117.51 91.3398C117.57 91.8398 117.48 92.3798 117.22 92.9498C116.85 93.7898 116.28 94.3098 115.52 94.4898C114.76 94.6798 113.82 94.5598 112.71 94.1398L112.72 94.1098Z" fill="#231F20"/>
<path d="M118.97 88.1198L108.84 84.9898L110.35 79.7898L112.06 80.3198L110.96 84.1098L113.21 84.7998L114.23 81.2798L115.94 81.8098L114.92 85.3298L117.68 86.1798L118.81 82.2598L120.52 82.7898L118.97 88.1198Z" fill="#231F20"/>
<path d="M10.6201 43.6299C10.9001 43.9599 11.3201 44.5699 11.8901 45.4699L10.2001 46.6499L10.5501 47.2899L10.9201 47.9199C10.7601 48.1899 10.1701 48.6199 9.17008 49.1999C8.97008 48.9299 8.76008 48.6299 8.55008 48.2999C8.36008 47.9999 8.16008 47.6699 7.96008 47.3099C8.04008 47.2899 8.16008 47.2399 8.30008 47.1599L8.84008 46.8499C9.26008 46.5799 9.49008 46.3999 9.55008 46.2999L9.51008 46.2099L9.24009 45.6299L8.85008 44.8599L10.6201 43.6499V43.6299ZM17.9701 44.8199L18.1801 44.8999L18.5201 45.0299L18.9001 45.2199L19.4001 43.9499L22.8001 45.2799L20.5401 51.5399C20.9501 51.9899 21.3001 52.4899 21.6001 53.0499C21.9001 53.6099 22.1501 54.2299 22.3501 54.9099C22.5501 55.5899 22.6501 56.2499 22.6401 56.8799C22.6401 57.5099 22.5301 58.0999 22.3301 58.6499C21.9601 59.6599 21.4101 60.3299 20.6701 60.6499C19.9301 60.9699 19.0801 60.9499 18.1001 60.5699C17.6501 60.3899 17.1701 60.1299 16.6901 59.7799C16.2001 59.4199 15.7201 58.9899 15.2401 58.4899C14.6901 57.9299 14.2701 57.4099 13.9701 56.9099C13.6801 56.4199 13.5001 55.9499 13.4401 55.4999C13.6001 55.5599 13.7901 55.6899 14.0301 55.8999C14.1601 56.0099 14.2901 56.1299 14.4301 56.2699C14.5701 56.4099 14.7501 56.5899 14.9701 56.8199C15.6201 57.4999 16.2401 57.9599 16.8301 58.1899C17.5801 58.4799 18.2701 58.4199 18.9001 58.0099C19.1601 57.8099 19.4001 57.5599 19.6101 57.2699C19.8201 56.9799 20.0001 56.6299 20.1501 56.2199C20.3201 55.7599 20.4901 54.8199 20.6801 53.4099L20.6101 53.3599C20.0701 53.1499 19.5401 53.4099 19.0201 54.1499L18.6101 54.8199C18.4201 55.1599 18.2601 55.5299 18.1201 55.9199C17.7701 55.7099 17.4101 55.4399 17.0501 55.0899C16.8601 54.9099 16.6601 54.7199 16.4501 54.4999C16.2401 54.2799 16.0301 54.0399 15.8001 53.7699L18.4301 46.4699C17.9001 46.4199 17.3601 46.4099 16.8201 46.4299C16.3201 46.4299 15.7801 46.4799 15.2201 46.5599L13.2201 44.5599C15.2501 44.2899 16.8201 44.3699 17.9501 44.7999L17.9701 44.8199ZM24.2101 57.1599C24.6501 57.6199 24.9501 58.0099 25.0901 58.3299C25.0301 58.4399 24.6601 58.7099 23.9701 59.1499C24.0501 59.3999 24.2101 59.6799 24.4401 59.9999C24.2001 60.3899 23.8001 60.6599 23.2501 60.8199L22.4301 59.6599C22.4301 59.6599 22.4701 59.6199 22.4901 59.6099C22.5801 59.5399 22.7301 59.4399 22.9301 59.3199C23.2501 59.1599 23.4301 59.0199 23.4701 58.9099C23.4701 58.8999 23.4701 58.8899 23.4701 58.8799C23.4501 58.8099 23.4201 58.7299 23.3801 58.6499L23.0001 57.9499L23.5401 57.5699L24.1901 57.1799L24.2101 57.1599Z" fill="#EB1C24"/>
<path d="M21.6801 39.5999L25.3801 42.5799L22.3201 47.4499L19.2001 45.3599L21.7201 41.3499L21.7001 41.3099C20.8401 41.0499 19.8201 40.8399 18.6501 40.6999L17.1101 38.3499C17.2901 38.3499 17.4601 38.3499 17.6201 38.3699C17.7801 38.3799 17.9801 38.3999 18.2401 38.4299C18.4401 38.4599 18.5901 38.4799 18.6901 38.4999C19.0301 38.5499 19.3001 38.5899 19.5001 38.6299C19.9101 38.7299 20.3001 38.8699 20.6601 39.0399C21.0301 39.2099 21.3701 39.3899 21.6901 39.6099L21.6801 39.5999ZM27.5701 44.8599C27.9601 45.4399 28.2401 46.0199 28.4301 46.5999C28.3101 46.7099 28.0501 46.8399 27.6701 46.9599L26.8301 47.2099L27.0001 47.6799L27.2701 48.3599C26.8301 48.6999 26.2701 48.8899 25.5801 48.9399L24.8101 47.1999C25.2801 47.1599 25.7801 47.0099 26.3201 46.7699C26.3001 46.6099 26.2401 46.3899 26.1401 46.0999C25.9901 45.7799 25.9101 45.5599 25.8801 45.4299L27.5701 44.8499V44.8599Z" fill="#EB1C24"/>
<path d="M30.2801 36.3901L29.6301 37.1801L30.2301 38.3501L30.8601 39.5501C31.3101 40.6701 31.3201 41.4901 30.8901 42.0001C30.5201 42.4501 29.9901 42.9401 29.2901 43.4701C28.5101 44.0301 27.8801 44.3501 27.4001 44.4301C28.7401 42.8001 29.1801 40.7401 28.7301 38.2501C27.9501 39.0001 27.4101 39.4401 27.1101 39.5701C26.4801 39.8701 25.8301 39.7301 25.1801 39.1501C24.8201 38.8401 24.4601 38.4401 24.1001 37.9501C23.7401 37.4701 23.3701 36.8801 22.9901 36.1901C22.1101 34.5901 21.9101 33.5001 22.3901 32.9201C22.7201 32.5201 23.4801 32.5701 24.6901 33.0801C24.8001 33.1301 24.9801 33.2201 25.2301 33.3501C25.4101 33.4401 25.5901 33.5401 25.7801 33.6501C25.8501 33.6901 26.0201 33.8001 26.3101 33.9801C26.5901 34.1601 26.8301 34.3101 27.0101 34.4301L27.4501 33.8901L30.2801 36.3801V36.3901ZM25.8001 35.6201C25.7201 35.5501 25.6201 35.4901 25.5001 35.4401C25.3801 35.3901 25.2201 35.3501 25.0201 35.3301C24.6701 35.2601 24.4201 35.3101 24.2901 35.4701C24.2601 35.5101 24.2401 35.5701 24.2301 35.6601V35.9001C24.2201 36.1001 24.2301 36.2401 24.2901 36.3201C24.4601 36.4701 24.7001 36.5201 24.9901 36.4601C25.2301 36.3901 25.4401 36.2701 25.6201 36.1101C25.8001 35.8901 25.8601 35.7301 25.8001 35.6401V35.6201Z" fill="#EB1C24"/>
<path d="M35.2001 31.87L34.0501 32.94L31.5801 32.29L32.2401 34.63L29.5401 37.15L27.0501 34.3L29.7001 31.84L24.6601 31.3L22.8101 27.68L25.9901 22.03L26.5201 23.02C26.7701 23.48 27.0101 23.97 27.2601 24.48L25.0401 28.99L28.4901 29.46C29.9101 29.66 31.0701 29.74 31.9801 29.71L32.7301 29.01L35.2201 31.87H35.2001Z" fill="#EB1C24"/>
<path d="M32.8001 21.67L33.0301 24.65L35.3401 27.57C35.4601 27.75 35.7301 28.26 36.1501 29.09C36.5601 29.92 36.7701 30.43 36.7801 30.61L36.5201 31.06L34.5301 32.53L32.3701 29.4L34.0601 28.15V28.08L34.0001 28C33.4201 27.16 32.7701 26.36 32.0401 25.59C31.1301 24.65 30.3301 24.11 29.6401 23.96L29.3601 22.94C29.3301 22.82 29.3101 22.7 29.2801 22.58C29.2501 22.46 29.2301 22.34 29.2101 22.22C29.0201 21.37 28.9801 20.79 29.1101 20.49L29.4101 20.89C29.6401 21.21 30.1501 21.43 30.9601 21.55C31.2701 21.59 31.5701 21.62 31.8601 21.62C32.1101 21.62 32.4001 21.61 32.7301 21.56L32.8201 21.69L32.8001 21.67Z" fill="#EB1C24"/>
<path d="M39.0401 24.1C40.0001 25.8 40.4401 27.35 40.3701 28.75L35.3701 21.5601C35.2401 21.3701 35.0601 20.12 34.8201 17.8C36.9401 20.77 38.3501 22.87 39.0501 24.1H39.0401Z" fill="#EB1C24"/>
<path d="M54.1801 18.7501L54.2501 22.6101L47.9101 24.6801C46.6301 25.1001 45.6501 24.1801 44.9601 21.9301C44.7401 21.2001 44.5901 20.3601 44.5201 19.4201C44.4301 18.2101 44.5501 17.4401 44.8801 17.1201C44.9501 17.3401 45.0201 17.6601 45.1101 18.0801C45.1901 18.5001 45.2701 18.8301 45.3501 19.0901C45.4901 19.5601 45.7801 19.9801 46.2001 20.3601C46.6701 20.7701 47.1301 20.9001 47.5901 20.7501L52.7701 19.0601L52.7901 18.9901C52.6801 18.6401 52.2101 18.0001 51.3601 17.0701L51.6101 14.0501C52.7001 15.1801 53.3401 16.0201 53.5101 16.5801L54.1801 18.7601V18.7501ZM49.8401 13.0201C49.7701 13.3601 49.6901 13.7001 49.5901 14.0401C49.4901 14.3801 49.3801 14.7401 49.2501 15.1101C49.0101 15.1101 48.6801 15.0401 48.2801 14.9001L47.3101 14.5601C47.1301 14.8901 46.9501 15.3501 46.7701 15.9201L46.3801 15.8501L45.7001 15.6301C45.1301 15.4501 44.8201 15.3101 44.7701 15.2201C44.7501 15.1401 44.9601 14.4501 45.4101 13.1501C46.4401 13.6101 47.0301 13.8201 47.1801 13.7701L47.2301 13.6901L47.5101 13.1101L47.8501 12.3101L49.8401 13.0101V13.0201Z" fill="#EB1C24"/>
<path d="M59.6201 21.7L57.0701 22.14L54.7501 12C54.7301 11.85 54.8501 11.4 55.1401 10.65L55.7301 9.21997L57.8501 18.12L59.0101 17.92L59.6301 21.71L59.6201 21.7Z" fill="#EB1C24"/>
<path d="M64.0201 16.51L63.9601 21.36L58.3501 21.78L58.0801 17.95L62.7001 17.6L62.7201 17.56C62.4001 16.69 61.9401 15.73 61.3501 14.68L62.2301 11.99C62.3401 12.14 62.4401 12.28 62.5201 12.42C62.6001 12.56 62.7101 12.74 62.8501 12.96C62.9501 13.14 63.0201 13.27 63.0701 13.37C63.2401 13.67 63.3701 13.92 63.4601 14.12C63.6201 14.52 63.7601 14.92 63.8501 15.32C63.9401 15.72 64.0001 16.12 64.0301 16.51H64.0201ZM63.5201 24.54C63.3001 25.21 63.0301 25.8 62.6901 26.3C62.5301 26.27 62.2801 26.13 61.9501 25.89L61.2501 25.35L60.9901 25.77L60.6301 26.41C60.1101 26.26 59.6201 25.91 59.1601 25.37L60.0301 23.68C60.3501 24.04 60.7601 24.37 61.2801 24.66C61.3901 24.55 61.5301 24.36 61.6901 24.1C61.8501 23.79 61.9701 23.58 62.0501 23.48L63.5201 24.53V24.54Z" fill="#EB1C24"/>
<path d="M71.5801 17.57C71.5401 18.37 71.4401 19.16 71.2801 19.95C71.1901 20.39 71.1001 20.79 71.0001 21.15C70.9001 21.52 70.7601 21.93 70.5801 22.38C69.8001 24.55 68.8401 25.6 67.6901 25.54C66.5601 25.48 65.3401 25.17 64.0201 24.6L63.5001 24.36L63.4501 24.31L63.3701 24.15L65.1401 23.98C66.9101 23.19 68.2301 22.37 69.1201 21.53C70.0001 20.69 70.4601 19.81 70.5101 18.92L70.4601 18.83C70.0501 19.7 69.8301 20.15 69.8101 20.17C69.5201 20.56 69.0901 20.74 68.5301 20.71C67.4301 20.65 66.9101 19.89 66.9801 18.41C67.0001 17.94 67.0801 17.44 67.2301 16.91C67.3701 16.38 67.6101 15.74 67.9301 14.99C68.2501 14.25 68.5801 13.7 68.9101 13.34C69.2401 12.99 69.5901 12.82 69.9501 12.84L70.1401 12.87C71.2101 13.85 71.7001 15.41 71.5901 17.57H71.5801ZM70.0201 17.3C70.0201 17.14 70.0201 16.98 69.9801 16.84L69.8501 16.53C69.7401 16.23 69.5701 16.06 69.3501 16.02C69.2001 16.02 69.0201 16.11 68.8001 16.32C68.5801 16.53 68.4701 16.71 68.4601 16.89C68.4601 17.01 68.5601 17.17 68.7801 17.35C68.9901 17.47 69.1801 17.54 69.3501 17.59C69.4701 17.59 69.6901 17.53 70.0101 17.38V17.31L70.0201 17.3Z" fill="#EB1C24"/>
<path d="M75.97 22.35L73.42 21.94L74.31 11.56C74.33 11.41 74.59 11.02 75.09 10.4L76.08 9.23999L75.38 18.37L76.54 18.56L75.97 22.36V22.35Z" fill="#EB1C24"/>
<path d="M82.41 24.07L80.81 23.63C80.81 23.63 80.69 23.74 80.58 23.88L80.4 24.17C80.27 24.45 80.11 24.63 79.93 24.7L77.17 20.58C77.09 20.66 76.99 20.81 76.88 21.01L76.54 21.67C76.41 22.02 76.17 22.22 75.83 22.26L75.03 22.04L75.98 18.32L77.37 18.7C77.43 18.68 77.72 18.37 78.23 17.76C78.5 17.44 78.75 17.16 78.99 16.94C79.2 16.74 79.45 16.55 79.72 16.35C80.4 15.9 81.08 15.76 81.76 15.95C82.03 16.02 82.18 16.13 82.22 16.29C82.22 16.35 82.22 16.41 82.2 16.49C82.19 16.57 82.16 16.68 82.12 16.85C82.01 17.27 82.01 17.86 82.1 18.6C82.2 19.34 82.37 19.85 82.63 20.13L83.37 20.33L82.42 24.05L82.41 24.07ZM80.36 19.49L80.44 19.18L80.46 18.97C80.46 18.87 80.46 18.78 80.46 18.68C80.47 18.48 80.44 18.36 80.38 18.32L80.18 18.21C80.07 18.18 79.92 18.18 79.72 18.21C79.51 18.2 79.38 18.21 79.33 18.27C79.47 18.59 79.81 19 80.36 19.49Z" fill="#EB1C24"/>
<path d="M85.1201 27.9299C84.8601 28.2099 84.6101 28.4399 84.3701 28.6199C84.2601 28.7099 84.1401 28.8099 84.0201 28.8899C83.9101 28.9699 83.7801 29.0599 83.6401 29.1299C83.5001 29.0299 83.3301 28.7899 83.1501 28.4099C83.0101 28.1999 82.8701 27.9399 82.7201 27.6299L82.4301 27.8199L81.7301 28.3099C81.3301 27.9499 81.0201 27.4199 80.8101 26.7199L82.3101 25.5799C82.4401 26.0599 82.6801 26.5299 83.0301 26.9999C83.1901 26.9799 83.4101 26.8599 83.6801 26.6499C83.9301 26.4599 84.1001 26.3499 84.2001 26.2999L85.1001 27.9199L85.1201 27.9299ZM86.8701 25.9899L85.4001 25.3999C85.0801 25.2699 84.9001 24.9299 84.8601 24.3599L84.9001 23.4199L83.6801 24.6899L81.3801 23.7599L82.7401 20.1799L85.2801 21.2099C85.6601 20.6399 85.9501 20.0999 86.1501 19.5899L86.3601 19.1299C86.4001 19.0499 86.4401 18.9999 86.4601 18.9599C86.4901 18.9299 86.5401 18.8799 86.6201 18.8199C86.9001 18.5899 87.5101 18.1999 88.4701 17.6499L87.9901 18.9199L87.7601 19.4499L87.5501 19.8499L87.1301 20.7699C86.8701 21.4499 87.0301 21.8999 87.6001 22.1299L88.2401 22.3899L86.8801 25.9699L86.8701 25.9899Z" fill="#EB1C24"/>
<path d="M92.79 29.26L91.42 28.5L91.17 25.87L89.26 27.3L86.05 25.52L87.8 22.13L90.94 23.87L89.72 18.79L92.3801 15.76L98.6001 16.93L97.8801 17.78C97.5401 18.18 97.18 18.58 96.8 18.99L91.95 18.36L92.69 21.88C92.99 23.33 93.31 24.49 93.65 25.35L94.54 25.84L92.79 29.23V29.26Z" fill="#EB1C24"/>
<path d="M101.3 23.48L98.6601 24.71L96.7901 27.94C96.6701 28.12 96.3001 28.55 95.6801 29.24C95.0601 29.92 94.6701 30.3 94.5101 30.37L94.0201 30.27L92.0101 28.83L94.1201 25.67L95.8301 26.89L95.9001 26.86L95.9601 26.78C96.5201 25.93 97.0401 25.03 97.4901 24.06C98.0301 22.85 98.2601 21.89 98.1601 21.17L98.9901 20.55C99.0901 20.48 99.1901 20.41 99.2901 20.35C99.3901 20.28 99.4901 20.22 99.6001 20.16C100.31 19.68 100.82 19.46 101.14 19.48L100.88 19.91C100.66 20.24 100.64 20.81 100.81 21.63C100.88 21.95 100.96 22.24 101.05 22.53C101.13 22.77 101.24 23.04 101.4 23.35L101.32 23.48H101.3Z" fill="#EB1C24"/>
<path d="M101.16 30.3499C99.9401 31.8499 98.6801 32.8099 97.3801 33.2099L102.23 25.9099C102.35 25.7199 103.43 25.1199 105.46 24.1099C103.48 27.1799 102.05 29.2599 101.16 30.3499Z" fill="#EB1C24"/>
<path d="M109.01 46.65L108.18 45.49C108.03 45.28 108.04 44.93 108.22 44.45C108.3 44.23 108.39 44.03 108.48 43.87C108.57 43.72 108.69 43.6 108.82 43.5L107.03 43.95L103.68 39.27C102.88 38.15 103.4 36.89 105.24 35.48C105.46 35.31 105.63 35.19 105.72 35.13C105.82 35.07 106.02 34.95 106.32 34.77C106.62 34.59 107.03 34.39 107.54 34.16C108.75 33.59 109.52 33.42 109.88 33.64L109.72 33.76C109.53 33.91 109.21 34.1 108.77 34.34C108.32 34.58 108 34.77 107.81 34.92C107.43 35.21 107.14 35.62 106.95 36.15C106.76 36.67 106.81 37.14 107.09 37.54L110.18 41.86C110.28 41.85 110.5 41.74 110.84 41.53C111.18 41.32 111.58 41.04 112.05 40.68L114.72 40.62L113.42 41.61L111.62 42.72C111.35 42.92 111.26 43.17 111.35 43.47L111.99 44.36L109 46.64L109.01 46.65ZM115.31 38.52C115.14 38.58 114.75 38.63 114.14 38.67C113.53 38.71 113.18 38.69 113.09 38.6C113.04 38.53 113.02 37.82 113.04 36.48L112.46 36.44L111.58 36.4C111.53 36.19 111.49 35.81 111.47 35.26C111.42 34.62 111.45 34.26 111.54 34.19C111.66 34.1 112.4 34.09 113.74 34.19C113.69 34.31 113.65 34.65 113.62 35.21C113.6 35.72 113.62 36.04 113.71 36.15C113.73 36.16 113.74 36.17 113.76 36.18C113.77 36.18 113.81 36.19 113.88 36.2L114.44 36.25L115.31 36.32V38.52Z" fill="#EB1C24"/>
<path d="M108.18 51.2899C107.81 51.3199 107.47 51.3199 107.18 51.2899C107.04 51.2899 106.89 51.2699 106.75 51.2499C106.61 51.2299 106.46 51.2099 106.31 51.1699C106.27 50.9899 106.31 50.6999 106.41 50.2999C106.44 50.0499 106.51 49.7599 106.6 49.4299L106.26 49.3799L105.42 49.2599C105.36 48.7099 105.47 48.1099 105.76 47.4399L107.61 47.6299C107.4 48.0799 107.27 48.5899 107.23 49.1899C107.36 49.2799 107.6 49.3399 107.94 49.3799C108.24 49.4099 108.45 49.4499 108.56 49.4799L108.19 51.2999L108.18 51.2899ZM110.74 51.0599L110.03 49.5999C109.88 49.2899 109.97 48.8999 110.3 48.4599L110.93 47.7899L109.19 47.8899L108.08 45.6099L111.4 43.8899L112.63 46.4099C113.28 46.2499 113.84 46.0499 114.32 45.8099L114.77 45.6099C114.85 45.5799 114.91 45.5599 114.96 45.5599C115 45.5599 115.07 45.5599 115.16 45.5599C115.51 45.5799 116.23 45.7199 117.3 45.9699L116.12 46.5799L115.61 46.8099L115.2 46.9699L114.29 47.3599C113.66 47.6899 113.48 48.1299 113.76 48.6999L114.07 49.3299L110.75 51.0599H110.74Z" fill="#EB1C24"/>
<path d="M108.85 54.77C108.78 54.8 108.47 54.67 107.93 54.39C107.8 54.32 107.69 54.25 107.59 54.2C107.5 54.14 107.42 54.09 107.35 54.04C107.23 53.95 107.13 53.87 107.08 53.79C107.06 53.74 107.08 53.63 107.11 53.47C107.15 53.31 107.22 53.09 107.33 52.82C107.43 52.55 107.53 52.34 107.61 52.18C107.69 52.03 107.76 51.93 107.81 51.89C107.92 51.85 108.27 51.95 108.86 52.2C109.46 52.45 109.77 52.62 109.8 52.71C109.81 52.74 109.67 53.09 109.38 53.75C109.09 54.41 108.91 54.76 108.85 54.78V54.77ZM116.7 53.21C116.05 53.46 115.25 53.68 114.32 53.86L113.15 54.11C112.94 54.16 112.74 54.21 112.56 54.24C112.38 54.28 112.15 54.31 111.88 54.35L110.36 50.13L113.84 48.79L115.06 52.17L115.2 52.14C115.5 52.02 115.92 51.71 116.45 51.19C116.95 50.73 117.29 50.33 117.47 49.98L120.39 50.12C119.32 51.65 118.09 52.68 116.7 53.22V53.21Z" fill="#EB1C24"/>
</svg>
