<svg width="120" height="123" viewBox="0 0 120 123" fill="none" xmlns="http://www.w3.org/2000/svg">
<path d="M32.35 28.6848C32.9592 30.1632 34.4005 31.1215 35.9978 31.1215H62.5132V44.0784L43.8209 69.2192L48.5906 76.0469L66.3913 52.1094L80.9751 72.7705L86.4728 66.8642L70.418 44.1228V27.1915C70.418 27.1915 70.418 27.1766 70.418 27.1692V8.95984C70.418 8.95984 70.418 8.94496 70.418 8.93753V3.95247C70.418 1.76824 68.6498 0 66.4656 0C64.2814 0 62.5132 1.76824 62.5132 3.95247V5.01481H35.9978C34.4005 5.01481 32.9592 5.98065 32.35 7.45166C31.7408 8.9301 32.0751 10.624 33.2044 11.7607L39.5193 18.0682L33.2044 24.3832C32.0751 25.5124 31.7408 27.2138 32.35 28.6922V28.6848ZM47.8996 15.2674L45.5371 12.9049H62.5057V23.2167H45.5297L47.8922 20.8542C48.6351 20.1113 49.0512 19.1083 49.0512 18.0608C49.0512 17.0133 48.6351 16.0103 47.8922 15.2674H47.8996Z" fill="#EB801B"/>
<path d="M119.311 88.8403L101.599 62.9563C100.923 61.9682 99.8309 61.3367 98.6348 61.2475C97.4387 61.1584 96.2648 61.6191 95.4476 62.4958L60.7525 99.7539L32.4021 59.1228C31.6889 58.105 30.5448 57.4809 29.2967 57.4364C28.0634 57.3918 26.8673 57.9341 26.0872 58.8999L0.87939 90.0883C-0.49504 91.7896 -0.227577 94.2785 1.46632 95.6455C3.16021 97.0199 5.64903 96.7524 7.02346 95.0585L28.9252 67.9563L65.7673 120.757C66.5326 121.856 67.7584 122.451 69.0066 122.451C69.7866 122.451 70.5741 122.22 71.2651 121.737C73.0555 120.489 73.4939 118.023 72.2457 116.232L65.3736 106.381L97.8622 71.4926L112.788 93.2979C113.553 94.4197 114.794 95.0213 116.049 95.0213C116.814 95.0213 117.594 94.7985 118.278 94.3305C120.076 93.0972 120.544 90.6382 119.311 88.8403Z" fill="#2E3190"/>
</svg>
