<svg width="120" height="119" viewBox="0 0 120 119" fill="none" xmlns="http://www.w3.org/2000/svg">
<path d="M25.7947 18.6778C25.7947 18.6778 25.7947 18.7089 25.7947 18.7167C25.8025 18.7944 25.8103 18.8643 25.8259 18.942C25.8259 18.9809 25.8413 19.0121 25.8491 19.0509C25.8646 19.0975 25.8724 19.1519 25.888 19.1985C25.9035 19.2373 25.9113 19.2761 25.9269 19.315C25.9424 19.3616 25.9579 19.4006 25.9734 19.4472C25.989 19.486 26.0046 19.5248 26.0201 19.5636C26.0356 19.6025 26.0589 19.649 26.0822 19.6879C26.0978 19.7267 26.121 19.7579 26.1443 19.7968C26.1676 19.8356 26.191 19.8744 26.2143 19.921C26.2376 19.9521 26.2609 19.991 26.2842 20.0221C26.3075 20.061 26.3386 20.0997 26.3697 20.1308C26.393 20.1619 26.4241 20.2006 26.4474 20.2317C26.4629 20.2473 26.4707 20.2628 26.4862 20.2784L60.2215 57.9064C60.2215 57.9064 60.2526 57.9373 60.2682 57.9529C60.2915 57.9762 60.3148 57.9995 60.3303 58.0151C60.4158 58.1005 60.5013 58.1783 60.5945 58.2482C60.6101 58.256 60.6256 58.2715 60.6333 58.2793C60.7421 58.357 60.8509 58.4269 60.9675 58.4891C60.9908 58.5046 61.0218 58.52 61.0451 58.5278C61.1539 58.5822 61.2627 58.6289 61.3715 58.6678C61.387 58.6678 61.4025 58.6833 61.4181 58.6833C61.5424 58.7222 61.6744 58.7532 61.7988 58.7765C61.8298 58.7765 61.8609 58.7843 61.892 58.792C62.0241 58.8153 62.1639 58.8231 62.3038 58.8231C62.4436 58.8231 62.5757 58.8076 62.7156 58.792C62.7467 58.792 62.7778 58.7842 62.8088 58.7765C62.9409 58.7532 63.0652 58.7222 63.1895 58.6833C63.2051 58.6833 63.2206 58.6678 63.2361 58.6678C63.3449 58.6289 63.4537 58.5822 63.5625 58.5278C63.5935 58.5123 63.6168 58.4969 63.6479 58.4813C63.7645 58.4192 63.8733 58.3492 63.9743 58.2715C63.9898 58.256 64.0053 58.2482 64.0208 58.2326C64.1141 58.1627 64.1996 58.085 64.2773 58.0073C64.3006 57.984 64.3239 57.9606 64.3472 57.9373C64.3627 57.9218 64.3783 57.9064 64.3938 57.8908L98.1291 20.2628C98.1291 20.2628 98.1525 20.2319 98.168 20.2164C98.1991 20.1853 98.2224 20.1463 98.2535 20.1152C98.2845 20.0842 98.3078 20.0454 98.3311 20.0066C98.3544 19.9677 98.3777 19.9365 98.401 19.8977C98.4243 19.8588 98.4477 19.8201 98.471 19.7812C98.4943 19.7424 98.5098 19.7034 98.5331 19.6646C98.5565 19.6257 98.572 19.5869 98.5875 19.5403C98.603 19.5015 98.6264 19.4627 98.6419 19.4238C98.6575 19.385 98.673 19.3383 98.6885 19.2994C98.704 19.2606 98.7196 19.2218 98.7274 19.1752C98.7429 19.1285 98.7507 19.082 98.7663 19.0354C98.774 18.9965 98.7895 18.9576 98.7973 18.9187C98.8128 18.8488 98.8206 18.7788 98.8284 18.7167C98.8284 18.6934 98.8284 18.6702 98.8362 18.6469C98.8439 18.5614 98.8517 18.4759 98.8517 18.3982V18.3827C98.8517 18.3593 98.8517 18.336 98.8517 18.3127C98.8517 18.2505 98.8517 18.1961 98.8439 18.134C98.8439 18.0951 98.8362 18.0564 98.8284 18.0175C98.8284 17.9709 98.8128 17.9166 98.8051 17.8699C98.8051 17.8311 98.7895 17.7843 98.7817 17.7455C98.774 17.6989 98.7585 17.6601 98.7507 17.6135C98.7352 17.5746 98.7274 17.5281 98.7118 17.4892C98.6963 17.4504 98.6808 17.4036 98.6653 17.3648C98.6497 17.326 98.6341 17.2794 98.6186 17.2406C98.6031 17.2017 98.5798 17.1627 98.5643 17.1239C98.5409 17.0851 98.5253 17.0463 98.502 17.0074C98.4787 16.9686 98.4554 16.9298 98.4321 16.8987C98.4088 16.8599 98.3856 16.8209 98.3622 16.7899C98.3389 16.7588 98.3079 16.72 98.2846 16.6889C98.2535 16.6501 98.2301 16.6111 98.199 16.5801C98.199 16.5801 98.1991 16.5723 98.1913 16.5645L84.9753 0.994523C84.4392 0.365191 83.6545 0 82.8309 0H41.7922C40.9686 0 40.1761 0.365191 39.6478 0.994523L26.4318 16.5645C26.4318 16.5645 26.4241 16.5723 26.4163 16.5801C26.393 16.6111 26.3619 16.6423 26.3386 16.6812C26.3075 16.72 26.2764 16.7588 26.2531 16.7976C26.2298 16.8287 26.2065 16.8677 26.191 16.8987C26.1677 16.9376 26.1366 16.9764 26.1133 17.023C26.09 17.0618 26.0744 17.0928 26.0589 17.1317C26.0356 17.1705 26.0201 17.2173 25.9968 17.2561C25.9812 17.295 25.9656 17.3337 25.9501 17.3726C25.9346 17.4192 25.9191 17.4582 25.9035 17.5048C25.888 17.5436 25.8802 17.5824 25.8646 17.6213C25.8491 17.6679 25.8414 17.7144 25.8259 17.7611C25.8181 17.7999 25.8103 17.8389 25.8025 17.8777C25.7948 17.9321 25.787 17.9787 25.7792 18.0331C25.7792 18.0719 25.7714 18.1029 25.7636 18.1418C25.7636 18.2039 25.7559 18.2661 25.7559 18.3282C25.7559 18.3515 25.7559 18.3749 25.7559 18.3982C25.7559 18.3982 25.7559 18.406 25.7559 18.4138C25.7559 18.4992 25.7559 18.5923 25.7714 18.6778H25.7947ZM34.9084 21.2107H49.2432L56.1581 44.9078L34.9084 21.2107ZM62.3349 45.9645L55.1092 21.2107H69.5527L62.3271 45.9645H62.3349ZM68.5116 44.9078L75.4266 21.2107H89.7613L68.5116 44.9078ZM81.549 5.64069L89.9789 15.5778H74.7739L67.7658 5.64069H81.549ZM67.8824 15.5778H56.7874L62.3349 7.7151L67.8824 15.5778ZM43.1208 5.64069H56.904L49.8959 15.5778H34.6908L43.1208 5.64069Z" fill="#EB801B"/>
<path d="M119.348 57.4634C118.012 54.2313 114.888 52.1412 111.384 52.1412C109.597 52.1412 107.88 52.6851 106.419 53.7185C106.326 53.7884 106.233 53.8583 106.14 53.936L87.2674 69.8092C85.4805 65.8467 81.4869 63.073 76.8562 63.073H30.5109C29.4154 63.073 28.3665 63.5082 27.5896 64.2851L1.21205 90.6627C-0.404016 92.2787 -0.404016 94.8893 1.21205 96.5054L22.0655 117.359C22.8735 118.167 23.9302 118.571 24.9868 118.571C26.0435 118.571 27.1001 118.167 27.9082 117.359L43.4706 101.796H84.7967C85.9854 101.796 87.1121 101.284 87.8968 100.398L117.576 66.7558C119.962 64.2851 120.661 60.6567 119.34 57.4712L119.348 57.4634ZM111.64 61.0142C111.578 61.0763 111.524 61.1385 111.462 61.2006L82.9399 93.5296H41.769C40.6735 93.5296 39.6247 93.9647 38.8477 94.7417L24.9946 108.595L9.97611 93.5762L32.2203 71.332H76.8562C78.5966 71.332 80.0107 72.7461 80.0107 74.4864C80.0107 75.2867 79.7155 76.017 79.2182 76.5686L78.4956 77.1747C78.0139 77.4699 77.4545 77.6409 76.8485 77.6409H39.9898C37.7056 77.6409 35.8564 79.4901 35.8564 81.7744C35.8564 84.0586 37.7056 85.9076 39.9898 85.9076H76.8485C79.1871 85.9076 81.3626 85.2006 83.1729 83.9886C83.2661 83.9342 83.3516 83.872 83.4448 83.8021C83.9343 83.4602 84.3927 83.0718 84.8122 82.66L111.236 60.439C111.275 60.4235 111.322 60.4159 111.369 60.4159C111.477 60.4159 111.602 60.4157 111.695 60.6333C111.788 60.8508 111.695 60.9441 111.617 61.0218L111.64 61.0142Z" fill="#2E3190"/>
</svg>
