<svg width="120" height="106" viewBox="0 0 120 106" fill="none" xmlns="http://www.w3.org/2000/svg">
<path d="M60 22.5068C46.3936 22.5068 31.7894 28.8341 17.776 40.8062C7.35294 49.7065 0.927116 58.5084 0.66457 58.876C-0.221523 60.0968 -0.221523 61.7508 0.66457 62.9717C0.93368 63.3392 7.35294 72.1411 17.776 81.0414C31.796 93.0135 46.4001 99.3408 60 99.3408C66.9509 99.3408 74.1644 97.6868 81.4303 94.4706L79.9141 92.9544C78.9887 92.0289 78.4833 90.8015 78.4833 89.4953C78.4833 89.0096 78.5555 88.5371 78.6867 88.0842C72.8451 90.6834 66.544 92.3637 60 92.3637C35.2157 92.3637 13.7919 68.2028 7.91083 60.9237C13.7984 53.6446 35.2157 29.4839 60 29.4839C84.7844 29.4839 106.208 53.6512 112.089 60.9303C108.991 64.77 101.587 73.2963 91.6368 80.4966C91.7746 80.6016 91.9059 80.7198 92.0241 80.8445L96.658 85.4785C98.5221 84.1001 100.373 82.6233 102.224 81.048C112.647 72.1477 119.066 63.3458 119.335 62.9782C120.222 61.7574 120.222 60.1034 119.335 58.8825C119.066 58.5084 112.647 49.7131 102.224 40.8128C88.204 28.8407 73.5999 22.5134 60 22.5134V22.5068Z" fill="#2E3190"/>
<path d="M59.9931 69.7389C55.648 69.7389 51.992 66.6343 51.3029 62.3548C51.0928 61.0552 49.872 60.1757 48.5724 60.3857C47.2728 60.5957 46.3932 61.8165 46.6033 63.1161C47.6666 69.7126 53.2982 74.5041 59.9931 74.5041C61.3059 74.5041 62.3757 73.4407 62.3757 72.1214C62.3757 70.8021 61.3124 69.7389 59.9931 69.7389Z" fill="#2E3168"/>
<path d="M48.7104 59.0466C48.9992 59.1582 49.2945 59.2107 49.5833 59.2107C50.5351 59.2107 51.4278 58.6396 51.7953 57.701L51.8544 57.5566C52.3532 56.3423 51.7756 54.9509 50.5614 54.452C49.3471 53.9532 47.9556 54.5308 47.4567 55.745C47.4305 55.8172 47.3976 55.8895 47.3714 55.9617C46.8922 57.1825 47.4896 58.5674 48.7104 59.0466Z" fill="#2E3168"/>
<path d="M59.9936 65.9582C62.7704 65.9582 65.0213 63.707 65.0213 60.9303C65.0213 58.1535 62.7704 55.9026 59.9936 55.9026C57.2168 55.9026 54.9658 58.1535 54.9658 60.9303C54.9658 63.707 57.2168 65.9582 59.9936 65.9582Z" fill="#EB801B"/>
<path d="M89.7859 83.0958C89.1164 82.4263 88.0268 82.4263 87.3508 83.0958L86.6616 83.785L78.923 76.0464C82.2442 71.8982 84.233 66.6407 84.233 60.9303C84.233 47.5667 73.3571 36.6908 59.9935 36.6908C46.6299 36.6908 35.7539 47.5667 35.7539 60.9303C35.7539 74.2939 46.6299 85.17 59.9935 85.17C65.7039 85.17 70.9613 83.1811 75.1096 79.8599L82.8481 87.5985L82.1589 88.2877C81.4894 88.9572 81.4894 90.0468 82.1589 90.7228L96.7237 105.288C97.3932 105.957 98.4827 105.957 99.1588 105.288L104.351 100.096C105.02 99.4262 105.02 98.3367 104.351 97.6606L89.7859 83.0958ZM59.9935 79.7747C49.6032 79.7747 41.1492 71.3206 41.1492 60.9303C41.1492 50.54 49.6032 42.0861 59.9935 42.0861C70.3837 42.0861 78.8377 50.54 78.8377 60.9303C78.8377 71.3206 70.3837 79.7747 59.9935 79.7747Z" fill="#2E3190"/>
<path d="M60.1442 17.8465C62.0739 17.8465 63.6361 16.2843 63.6361 14.3546V3.49175C63.6361 1.56203 62.0739 0 60.1442 0C58.2145 0 56.6523 1.56203 56.6523 3.49175V14.3546C56.6523 16.2843 58.2145 17.8465 60.1442 17.8465Z" fill="#EB801B"/>
<path d="M34.8216 19.3628C35.4583 20.5049 36.6464 21.1481 37.8672 21.1481C38.4448 21.1481 39.029 21.0038 39.5672 20.7019C41.2475 19.7633 41.8513 17.6366 40.9062 15.9498L37.0205 9.01195C36.0819 7.33165 33.9553 6.72777 32.2684 7.67293C30.5881 8.61154 29.9842 10.7382 30.9294 12.425L34.8151 19.3628H34.8216Z" fill="#EB801B"/>
<path d="M80.669 20.7805C81.2072 21.0824 81.7914 21.2268 82.369 21.2268C83.5898 21.2268 84.7778 20.5836 85.4145 19.4415L89.3396 12.4316C90.2782 10.7513 89.6809 8.62465 88.0006 7.67948C86.3203 6.74088 84.1937 7.3382 83.2485 9.01849L79.3235 16.0284C78.3849 17.7087 78.9821 19.8353 80.6624 20.7805H80.669Z" fill="#EB801B"/>
</svg>
