<svg width="251" height="85" viewBox="0 0 251 85" fill="none" xmlns="http://www.w3.org/2000/svg">
<path d="M247.76 35.0259C249.18 35.0059 250.32 33.8653 250.34 32.4444C250.34 31.0236 249.19 29.8627 247.77 29.8627C246.35 29.8627 245.19 31.0135 245.19 32.4344C245.21 33.8653 246.35 35.0059 247.77 35.0259M245.56 59.6714H249.87V38.9084H245.56V59.6714ZM238.54 60.1016C239.66 60.1117 240.76 59.9016 241.79 59.4714V55.3687C241.06 55.7589 240.25 55.979 239.42 55.999C237.48 55.999 236.38 54.8983 236.38 52.7469V43.0209H241.16V38.9185H236.38V31.9839H232.49V36.5068C232.49 38.2379 231.86 38.8784 230.55 38.8784H228.18V42.9811H232.07V53.1674C232.07 57.7302 234.44 60.1016 238.54 60.1016ZM213.52 59.6714H217.83V49.0547C217.83 45.3724 220.41 42.8008 223.45 42.8008C224.03 42.8108 224.61 42.8808 225.18 43.0109V38.4482H224.09C221.61 38.4982 219.3 39.699 217.84 41.7002V38.8684H213.53V59.6714H213.52ZM194.13 47.1135C194.97 44.2818 196.96 42.3305 200.17 42.3305C203.21 42.3305 205.16 44.2718 205.79 47.1135H194.13ZM200.42 60.0916C206.46 60.0916 209.29 56.1993 209.29 56.1993L206.71 53.1574C205.16 54.8784 202.98 55.8992 200.67 55.9892C197.52 56.0893 194.76 53.8877 194.16 50.7858H210.18C210.33 50.0753 210.4 49.3549 210.39 48.6245C210.55 43.1511 206.24 38.5883 200.77 38.4382C200.58 38.4382 200.39 38.4382 200.2 38.4382C194.23 38.5282 189.46 43.4513 189.55 49.4351C189.64 55.3688 194.48 60.1116 200.41 60.0916M176.85 55.9892C173.38 55.9892 170.6 53.1572 170.6 49.2648C170.6 45.3723 173.43 42.5406 176.85 42.5406C180.27 42.5406 183.1 45.3723 183.1 49.2648C183.1 53.1572 180.31 55.9892 176.85 55.9892ZM177.69 60.0916C182.89 60.0916 187.41 55.5687 187.41 49.2648C187.41 42.9608 182.89 38.4382 177.69 38.4382C174.88 38.3381 172.21 39.6389 170.55 41.9103V29.3524H166.24V59.6314H170.55V56.6295C172.22 58.8809 174.89 60.1817 177.69 60.1016M131.08 59.6714H135.39V48.2143C135.39 44.7421 137.55 42.5907 140.38 42.5907C142.75 42.5907 144.69 44.3218 144.69 47.3737V59.7215H149V48.2642C149 44.792 151.16 42.6408 153.99 42.6408C156.36 42.6408 158.3 44.3719 158.3 47.4238V59.7714H162.61V47.3437C162.61 41.9303 159.14 38.4682 155.05 38.4682C149.85 38.4682 147.91 41.9404 147.91 41.9404C146.49 39.739 144.02 38.4282 141.4 38.4682C138.91 38.4382 136.59 39.769 135.36 41.9404V38.8984H131.09V59.7015L131.08 59.6714ZM117.47 56.4194C115.32 56.4194 114 55.1085 114 53.5876C114 52.2767 115.1 51.176 117.25 50.7557L123.29 49.6552V50.2854C123.29 53.8377 120.71 56.4194 117.46 56.4194M116.58 60.0916C119.25 60.0916 121.75 58.8009 123.3 56.6195V59.6614H127.61V46.4732C127.61 41.9504 124.14 38.4782 118.95 38.4782C115.77 38.4682 112.76 39.899 110.75 42.3706L113.58 45.2024C113.58 45.2024 115.74 42.3706 118.99 42.3706C121.57 42.3706 123.3 44.1016 123.3 46.2629L115.74 47.5738C112.06 48.2042 109.7 50.6157 109.7 54.0879C109.7 57.2999 112.49 60.0916 116.59 60.0916M87.72 59.6714H107.2V55.1486H92.49V29.3925H87.71V59.6714H87.72Z" fill="#F27042"/>
<path d="M54.25 60.1017H19.01V52.5369H23.7C26.87 52.5369 26.45 49.365 26.45 49.365V35.7864C26.45 32.6145 23.28 32.6145 23.28 32.6145H18.8V24.9198H45.25V32.7047H42.33C37.77 32.7047 37.94 35.8766 37.94 35.8766V52.6171H40.94C47.62 52.6171 47.19 45.1324 47.19 45.1324V39.2987H54.33V60.1017H54.24H54.25ZM73.02 62.293V22.7583C73.02 21.9378 72.58 21.1873 71.88 20.7771L37.65 0.984631C36.95 0.564368 36.07 0.564368 35.37 0.984631L1.14 20.7771C0.429999 21.1873 0 21.9478 0 22.7583V62.293C0 63.1135 0.439999 63.864 1.14 64.2743L35.37 84.0667C36.07 84.4869 36.95 84.4869 37.65 84.0667L71.88 64.2743C72.59 63.864 73.02 63.1035 73.02 62.293Z" fill="#F27042"/>
</svg>
