<svg width="820" height="1505" viewBox="0 0 820 1505" fill="none" xmlns="http://www.w3.org/2000/svg">
<g opacity="0.27">
<mask id="mask0_200_10934" style="mask-type:luminance" maskUnits="userSpaceOnUse" x="0" y="0" width="820" height="1505">
<path d="M0.370117 0.959961L0.370117 1504.9H819.79L819.79 0.959961H0.370117Z" fill="white"/>
</mask>
<g mask="url(#mask0_200_10934)">
<path d="M52.49 1163.02H19.46V1412.95H52.49V1163.02Z" fill="#D5D6D7"/>
<path d="M52.49 137.83H19.46V387.76H52.49V137.83Z" fill="#D5D6D7"/>
<path d="M367.3 1054.77V1178.94H-231.27V1054.77H367.3ZM335.46 1147.1V1086.61H-199.43V1147.1H335.46Z" fill="#D5D6D7"/>
<path d="M403.25 788.91C403.18 791.28 392.78 1025.43 153.29 1086.01L149.41 1086.49H-42.9603L-46.0503 1085.11C-55.7003 1080.77 -282.05 976.49 -272.53 766.43L-240.95 767.89C-249.68 944.44 -61.8203 1042.23 -36.0003 1054.89H147.42C361.64 999.52 371.36 796.5 371.67 787.86L403.25 788.91Z" fill="#D5D6D7"/>
<path d="M202.8 788.39H294.07L287.7 809.62L301.23 843.85L274.17 869.32L275.76 913.89H239.94L239.14 953.69H207.3L177.85 990.3L142.83 979.95L111.79 1014.18L81.5403 996.67L44.9304 1023.73L14.6804 996.67L-19.5497 1008.61L-45.0197 979.16L-75.2696 991.9L-91.1897 951.31L-124.62 954.49L-134.97 910.71L-166.01 906.07V861.36L-189.89 837.48L-180.34 826.34C-180.34 826.34 -185.91 797.42 -183.52 788.4H-108.7C-108.7 788.4 -82.4297 904.34 60.8403 901.96C60.8403 901.96 169.62 914.43 202.79 788.4L202.8 788.39Z" fill="#D5D6D7"/>
<path d="M-186.69 645.12H341.82C341.82 645.12 392.76 595.24 407.62 634.51C407.62 634.51 416.11 701.37 390.64 704.55H-237.63C-237.63 704.55 -290.96 651.22 -259.12 610.63C-259.12 610.63 -234.45 593.65 -186.69 645.12Z" fill="#D5D6D7"/>
<path d="M-248.24 474.26H385.34C385.34 474.26 425.67 499.73 397.01 557.04C397.01 557.04 369.42 563.41 333.33 523.08H-180.32C-180.32 523.08 -257.37 566.59 -269.26 526.26C-269.26 526.26 -277.96 499.73 -248.24 474.26Z" fill="#D5D6D7"/>
<path d="M408.98 454.62H-245.59C-245.59 454.62 -277.96 409.52 -253.55 378.74C-253.55 378.74 -229.14 359.64 -193.06 399.97H334.66C334.66 399.97 365.7 375.03 395.95 387.77C395.95 387.77 424.4 404.49 408.98 454.63V454.62Z" fill="#D5D6D7"/>
<path d="M-244 723.66H389.58C389.58 723.66 418.23 761.87 389.58 793.7C389.58 793.7 365.17 816.07 311.05 774.64H-277.96L-251.43 711.99C-251.43 711.99 -248.78 721.28 -244 723.66Z" fill="#D5D6D7"/>
<path d="M90.3102 508.61H12.7002V663.9H90.3102V508.61Z" fill="#D5D6D7"/>
<path d="M193.62 1426.86L159.7 1303.81L176.35 1299.23L191.4 1353.85L209.98 1289.95L232.35 1283.78L214.52 1340.27L267.95 1406.36L246.41 1412.3L207.84 1360.79L200 1385.07L210.25 1422.26L193.61 1426.86H193.62Z" fill="#D5D6D7"/>
<path d="M235.37 1282.22L251.15 1275.21L279.21 1338.39C283.66 1348.41 286.73 1354.83 288.45 1357.62C291.25 1362.1 294.56 1365.21 298.37 1366.97C302.2 1368.74 306.32 1368.64 310.72 1366.67C315.2 1364.68 317.97 1361.82 319.03 1358.09C320.1 1354.33 319.98 1350.38 318.67 1346.2C317.36 1342.02 314.67 1335.31 310.56 1326.08L281.91 1261.56L297.69 1254.55L324.9 1315.81C331.12 1329.81 335.09 1339.91 336.79 1346.06C338.51 1352.23 339.1 1357.8 338.58 1362.8C338.06 1367.8 336.39 1372.33 333.61 1376.38C330.82 1380.46 326.33 1383.87 320.15 1386.6C312.68 1389.91 306.44 1391.15 301.46 1390.28C296.46 1389.43 291.92 1387.44 287.85 1384.31C283.8 1381.2 280.4 1377.54 277.69 1373.34C273.7 1367.12 268.8 1357.5 263 1344.44L235.37 1282.23V1282.22Z" fill="#D5D6D7"/>
<path d="M387.67 1350.35L299.88 1255.48L314.58 1245.68L373.94 1311.47L338.31 1229.86L355.4 1218.47L417.32 1284.31L378.79 1202.87L393.24 1193.22L446.78 1310.92L431.53 1321.07L364.43 1251.15L403.25 1339.95L387.67 1350.35Z" fill="#D5D6D7"/>
<path d="M531.46 1236.25L517.68 1249.01L492.51 1232.82L467.44 1256.05L481.95 1282.12L468.52 1294.56L406.22 1178.3L419.61 1165.89L531.45 1236.26L531.46 1236.25ZM473.83 1220.81L433.01 1194.07L456.71 1236.68L473.82 1220.81H473.83Z" fill="#D5D6D7"/>
<path d="M541.5 1223.52L445.8 1139.07L457.22 1126.14L552.93 1210.56L541.5 1223.52Z" fill="#D5D6D7"/>
<path d="M579.801 1177.13L494.261 1114.45L479.271 1134.92L461.851 1122.16L502.021 1067.34L519.431 1080.1L504.471 1100.52L590.001 1163.2L579.801 1177.13Z" fill="#D5D6D7"/>
<path d="M616.27 1021.92L630.56 1010.13C642.08 1018.36 649.63 1026.62 653.22 1034.9C656.8 1043.18 656.65 1051.47 652.75 1059.77C647.92 1070.04 638.72 1076.04 625.14 1077.75C611.55 1079.44 595.66 1076.03 577.48 1067.5C558.25 1058.47 544.88 1048.15 537.36 1036.51C529.84 1024.84 528.63 1013.6 533.72 1002.76C538.16 993.31 545.95 987.56 557.08 985.57C563.67 984.38 571.99 985.05 582.07 987.63L580.33 1005.69C573.91 1003.8 568.29 1003.48 563.47 1004.77C558.63 1006.04 555.25 1008.75 553.3 1012.9C550.61 1018.65 551.5 1024.74 555.97 1031.21C560.43 1037.65 569.55 1044.12 583.32 1050.59C597.93 1057.43 609.16 1060.56 617.01 1059.94C624.86 1059.32 630.11 1056.21 632.76 1050.56C634.7 1046.41 634.41 1041.93 631.88 1037.08C629.34 1032.23 624.14 1027.18 616.3 1021.91L616.27 1021.92Z" fill="#D5D6D7"/>
<path d="M675.111 1001.89L552.811 965.4L557.751 948.86L605.891 963.21L615.551 930.8L567.421 916.45L572.361 899.88L694.651 936.37L689.731 952.91L636.251 936.97L626.571 969.38L680.051 985.35L675.111 1001.89Z" fill="#D5D6D7"/>
<path d="M700.73 908.04L574.48 889.34L583.781 826.63L605.13 829.79L598.36 875.43L626.36 879.58L632.651 837.1L653.92 840.26L647.63 882.72L681.99 887.82L688.99 840.56L710.26 843.72L700.72 908.04H700.73Z" fill="#D5D6D7"/>
<path d="M713.06 816.93L585.45 818.75L585.09 792.91L671.91 776.17L584.64 762.07L584.28 736.18L711.89 734.36L712.11 750.4L611.66 751.82L712.35 767.37L712.6 783.99L612.38 802.35L712.83 800.91L713.05 816.95L713.06 816.93Z" fill="#D5D6D7"/>
<path d="M708.93 709.8L582.16 724.65L580.16 707.51L706.92 692.66L708.93 709.8Z" fill="#D5D6D7"/>
<path d="M646.4 625.01L650.48 606.95C664.63 606.4 675.66 608.32 683.56 612.67C691.46 617.02 696.41 623.69 698.41 632.64C700.88 643.73 697.27 654.08 687.55 663.76C677.84 673.41 663.19 680.43 643.59 684.8C622.86 689.4 605.96 689.43 592.89 684.8C579.82 680.2 571.98 672.04 569.37 660.35C567.09 650.15 569.74 640.85 577.33 632.47C581.81 627.47 588.82 622.92 598.37 618.81L608.03 634.16C601.79 636.57 597.15 639.78 594.11 643.74C591.06 647.72 590.04 651.92 591.05 656.43C592.43 662.6 596.86 666.88 604.34 669.26C611.83 671.62 623 671.15 637.83 667.84C653.58 664.33 664.37 659.93 670.22 654.66C676.05 649.36 678.29 643.69 676.94 637.62C675.95 633.14 672.96 629.76 668 627.47C663.03 625.21 655.82 624.36 646.4 625.01Z" fill="#D5D6D7"/>
<path d="M652.861 501.04L659.631 518.58L635.281 535.99L647.591 567.85L677.181 563.99L683.781 581.08L552.721 596L546.141 578.96L652.861 501.03V501.04ZM617.211 548.89L577.281 576.95L625.621 570.66L617.211 548.9V548.89Z" fill="#D5D6D7"/>
<path d="M643.37 483.2L532.61 544.49L524.25 529.37L616.2 478.5L595.41 440.94L614.23 430.52L643.38 483.2H643.37Z" fill="#D5D6D7"/>
<path d="M581.57 382.54L483.47 464.18L472.43 450.9L511.05 418.76L489.41 392.77L450.79 424.91L439.75 411.63L537.85 329.99L548.89 343.27L506 378.96L527.64 404.95L570.53 369.26L581.57 382.54Z" fill="#D5D6D7"/>
<path d="M477.73 357.49C469.12 367.24 460.93 374.55 453.13 379.43C447.37 383.01 441.53 385.65 435.58 387.29C429.64 388.93 424.34 389.35 419.69 388.58C413.47 387.56 407.75 384.77 402.53 380.15C393.09 371.82 389.4 360.77 391.45 347.02C393.51 333.26 401.41 318.61 415.17 303.04C428.81 287.59 442.29 277.99 455.63 274.24C468.97 270.49 480.33 272.77 489.74 281.08C499.27 289.51 503.01 300.53 500.97 314.19C498.93 327.85 491.18 342.27 477.74 357.49H477.73ZM463.83 346.37C473.39 335.53 478.97 325.85 480.56 317.29C482.14 308.73 480.36 302.19 475.2 297.64C470.04 293.06 463.36 292.12 455.15 294.73C446.94 297.37 437.94 304.21 428.14 315.3C418.46 326.27 412.86 335.87 411.3 344.1C409.76 352.33 411.66 358.83 416.98 363.53C422.32 368.23 429.03 369.3 437.12 366.74C445.2 364.15 454.11 357.36 463.83 346.37Z" fill="#D5D6D7"/>
<path d="M367.83 347.94L353.3 338.61L390.66 280.43C396.58 271.2 400.25 265.11 401.64 262.15C403.84 257.35 404.62 252.87 404 248.72C403.37 244.54 401.03 241.16 396.96 238.57C392.84 235.91 388.93 235.16 385.22 236.33C381.51 237.5 378.27 239.79 375.48 243.17C372.71 246.58 368.59 252.52 363.13 261L324.97 320.4L310.44 311.07L346.67 254.68C354.95 241.77 361.2 232.92 365.4 228.11C369.6 223.28 373.93 219.73 378.4 217.41C382.86 215.1 387.57 214 392.49 214.1C397.41 214.2 402.73 216.07 408.42 219.72C415.29 224.15 419.74 228.67 421.76 233.33C423.79 237.96 424.62 242.86 424.25 247.96C423.89 253.06 422.7 257.91 420.68 262.49C417.68 269.26 412.32 278.63 404.6 290.65L367.81 347.93L367.83 347.94Z" fill="#D5D6D7"/>
<path d="M340.23 229.32L323.94 224.57C326.53 216.49 327.22 210.02 326.05 205.14C324.88 200.26 321.91 196.73 317.13 194.54C312.07 192.23 307.53 192.1 303.51 194.12C299.48 196.13 296.5 199.29 294.54 203.57C293.28 206.31 292.76 208.89 292.95 211.31C293.15 213.72 294.27 216.26 296.31 218.92C297.72 220.71 301.14 224.32 306.57 229.74C313.56 236.7 317.71 243.22 319.03 249.32C320.9 257.88 319.73 266.76 315.52 275.96C312.82 281.86 309.16 286.88 304.58 291.01C299.98 295.11 294.95 297.55 289.49 298.32C284.03 299.07 278.31 298.1 272.34 295.36C262.58 290.91 256.69 284.34 254.68 275.71C252.67 267.05 253.97 257.35 258.59 246.58L274.77 252.72C272.72 258.99 272.2 263.94 273.22 267.57C274.23 271.18 276.95 274.01 281.38 276.03C285.93 278.12 290.15 278.34 294 276.73C296.49 275.71 298.42 273.67 299.8 270.66C301.06 267.92 301.34 265.21 300.68 262.55C299.83 259.17 296.2 254.39 289.8 248.2C283.38 242.01 279.02 236.66 276.67 232.11C274.32 227.56 273.25 222.31 273.46 216.39C273.67 210.45 275.46 203.8 278.81 196.47C281.86 189.83 285.94 184.16 291.07 179.48C296.19 174.8 301.67 172.09 307.49 171.35C313.31 170.58 319.59 171.75 326.34 174.83C336.18 179.33 342.17 186.17 344.35 195.38C346.51 204.56 345.15 215.88 340.23 229.33V229.32Z" fill="#D5D6D7"/>
<path d="M270.24 153.83L233.65 276.11L172.91 257.93L179.09 237.24L223.3 250.47L231.41 223.36L190.28 211.05L196.44 190.45L237.57 202.76L247.53 169.48L201.76 155.8L207.93 135.18L270.24 153.84V153.83Z" fill="#D5D6D7"/>
</g>
</g>
</svg>
