<svg width="46" height="42" viewBox="0 0 46 42" fill="none" xmlns="http://www.w3.org/2000/svg">
<path d="M12.78 41.1399H1.18005C0.770054 41.1399 0.439941 40.8099 0.439941 40.3999V26.1399C0.439941 25.7299 0.770054 25.3999 1.18005 25.3999C1.59005 25.3999 1.92004 25.7299 1.92004 26.1399V39.6699H12.05V20.02H1.92004V22.9199C1.92004 23.3299 1.59005 23.6599 1.18005 23.6599C0.770054 23.6599 0.439941 23.3299 0.439941 22.9199V19.28C0.439941 18.87 0.770054 18.54 1.18005 18.54H12.78C13.19 18.54 13.52 18.87 13.52 19.28V40.3999C13.52 40.8099 13.19 41.1399 12.78 41.1399Z" fill="#2E3190"/>
<path d="M5.34009 37.5701C4.93009 37.5701 4.6001 37.2401 4.6001 36.8301V34.72C4.6001 34.31 4.93009 33.98 5.34009 33.98C5.75009 33.98 6.08008 34.31 6.08008 34.72V36.8301C6.08008 37.2401 5.75009 37.5701 5.34009 37.5701Z" fill="#2E3190"/>
<path d="M38.88 40.51H38.38C37.97 40.51 37.64 40.18 37.64 39.77C37.64 39.36 37.97 39.03 38.38 39.03H38.88C39.76 39.03 40.48 38.21 40.48 37.21C40.48 36.39 39.99 35.67 39.3 35.45L38.99 35.3501C38.64 35.2401 38.42 34.9 38.48 34.53C38.53 34.17 38.85 33.8999 39.21 33.8999H39.8C40.84 33.8999 41.6899 33.0801 41.6899 32.0801C41.6899 31.0801 40.84 30.26 39.8 30.26H39.65C39.24 30.26 38.91 29.93 38.91 29.52C38.91 29.11 39.24 28.78 39.65 28.78C39.68 28.78 41.22 28.78 41.3 28.78C42.3 28.75 43.1 27.95 43.1 26.96C43.1 26.16 42.57 25.46 41.78 25.22L41.4 25.1101C41.05 25.0001 40.83 24.66 40.88 24.29C40.93 23.93 41.25 23.6599 41.61 23.6599H41.98C43.02 23.6599 43.87 22.8401 43.87 21.8401C43.87 20.8401 43.02 20.02 41.98 20.02H28.3199C28.0899 20.02 27.87 19.91 27.73 19.73C27.59 19.54 27.55 19.3001 27.61 19.0801L27.76 18.55C28.86 14.88 31.29 4.83005 29.4 2.30005C29.16 1.98005 28.87 1.83008 28.47 1.83008C27.05 1.96008 26.45 2.2201 26.59 4.3501V4.56006C26.59 12.7801 18.32 25.01 12.77 25.01C12.36 25.01 12.03 24.68 12.03 24.27C12.03 23.86 12.36 23.53 12.77 23.53C17.13 23.53 25.11 12.3701 25.11 4.56006V4.38989C24.94 1.74989 25.89 0.560088 28.41 0.340088H28.42C29.35 0.340088 30.07 0.709902 30.59 1.3999C33.08 4.7499 30.0601 15.92 29.3101 18.53H41.98C43.84 18.53 45.35 20.0101 45.35 21.8301C45.35 23.0501 44.67 24.1199 43.67 24.6899C44.24 25.2899 44.58 26.09 44.58 26.96C44.58 28.36 43.6999 29.56 42.4399 30.04C42.8899 30.6 43.17 31.3101 43.17 32.0901C43.17 33.4101 42.38 34.5501 41.23 35.0801C41.69 35.6601 41.97 36.42 41.97 37.21C41.97 39.03 40.59 40.51 38.89 40.51H38.88Z" fill="#2E3190"/>
<path d="M41.2198 30.26H40.6599C40.2499 30.26 39.9199 29.93 39.9199 29.52C39.9199 29.11 40.2499 28.78 40.6599 28.78H41.2198C41.6298 28.78 41.9598 29.11 41.9598 29.52C41.9598 29.93 41.6298 30.26 41.2198 30.26Z" fill="#2E3190"/>
<path d="M16.6401 40.51H15.8401C15.4301 40.51 15.1001 40.18 15.1001 39.77C15.1001 39.36 15.4301 39.03 15.8401 39.03H16.6401C17.0501 39.03 17.3801 39.36 17.3801 39.77C17.3801 40.18 17.0501 40.51 16.6401 40.51Z" fill="#2E3190"/>
<path d="M38.3899 40.51H19.5798C19.1698 40.51 18.8398 40.18 18.8398 39.77C18.8398 39.36 19.1698 39.03 19.5798 39.03H38.3899C38.7999 39.03 39.1299 39.36 39.1299 39.77C39.1299 40.18 38.7999 40.51 38.3899 40.51Z" fill="#2E3190"/>
</svg>
