<svg width="53" height="52" viewBox="0 0 53 52" fill="none" xmlns="http://www.w3.org/2000/svg">
<path d="M9.12882 15.1899C8.22882 14.3599 7.34882 13.6299 6.55882 12.8099C5.26882 11.4799 5.25877 10.2 6.50877 8.89002C7.63877 7.71002 8.79881 6.53993 9.98881 5.41993C11.1988 4.26993 12.6888 4.11993 13.6488 5.41993C15.5588 7.99993 17.6088 8.37996 20.3688 6.82996C21.2088 6.35996 21.6588 6.12997 21.6488 5.08997C21.6288 0.109969 21.7088 0.0599399 26.7488 0.0599399C27.6388 0.0599399 28.5388 0.0299594 29.4288 0.0799595C30.9288 0.169959 32.0788 1.08002 31.8288 2.52002C31.2488 5.89002 32.7088 7.58998 35.7688 8.47998C36.5188 8.69998 36.9888 8.89997 37.5488 8.21997C38.1188 7.53997 38.7788 6.91995 39.4388 6.31995C40.6188 5.24995 41.8888 5.17999 43.0388 6.23999C44.3488 7.44999 45.6188 8.71991 46.8288 10.0299C47.8288 11.1199 47.7888 12.39 46.7888 13.52C46.0588 14.33 45.1888 15.02 44.5188 15.88C44.2388 16.24 44.1888 16.9 44.2688 17.38C44.3588 17.95 44.7088 18.4799 44.9188 19.0299C45.5321 20.6832 46.7555 21.5134 48.5888 21.52C51.3688 21.52 52.0688 22.25 52.0788 25.07C52.0788 26.41 52.1088 27.75 52.0788 29.09C52.0288 30.81 51.0788 31.95 49.3888 31.72C46.4688 31.32 44.5788 32.1299 43.9388 35.1699C43.8288 35.6799 43.4488 36.1299 43.0888 36.7999C43.9188 37.5599 44.7988 38.3 45.5988 39.11C46.9888 40.51 46.9688 41.8 45.5688 43.24C44.5988 44.24 43.6088 45.2199 42.6188 46.1899C40.9988 47.7899 39.7288 47.81 38.1588 46.22C37.3188 45.38 36.5588 44.4699 35.8488 43.6899C33.9688 44.3999 32.3488 45.0099 30.6188 45.6599C30.6188 46.7799 30.6388 47.96 30.6188 49.15C30.5788 50.94 29.6388 51.8899 27.8388 51.9399C26.2488 51.9799 24.6588 51.9799 23.0688 51.9399C21.3488 51.8899 20.1188 50.9299 20.3588 49.2799C20.8088 46.1599 19.6988 44.36 16.6788 43.64C16.3088 43.55 15.9788 43.2699 15.2188 42.6799C14.4788 43.5999 13.8088 44.5799 12.9788 45.4199C11.6488 46.7799 10.2988 46.78 8.94877 45.49C7.79877 44.39 6.66877 43.27 5.57877 42.12C4.36877 40.84 4.20878 39.38 5.58878 38.35C8.04878 36.52 8.49881 34.59 7.04881 31.88C6.48881 30.84 6.09882 30.44 4.93882 30.46C0.448821 30.52 0.178811 30.21 0.178811 25.65C0.178811 24.71 0.158811 23.76 0.178811 22.82C0.228811 21.1999 1.18882 19.98 2.74882 20.2C5.87882 20.64 7.7888 19.6 8.4788 16.47C8.5588 16.1 8.82879 15.7799 9.15879 15.1699L9.12882 15.1899ZM25.9388 36.33C31.6788 36.43 36.4088 31.82 36.4788 26.07C36.5388 20.49 31.9588 15.75 26.3988 15.65C20.5988 15.54 15.8588 20.03 15.7188 25.76C15.5888 31.48 20.1788 36.23 25.9388 36.33Z" fill="#F0801B"/>
</svg>
