<svg width="143" height="119" viewBox="0 0 143 119" fill="none" xmlns="http://www.w3.org/2000/svg">
<path d="M79.7701 49.4401C77.2701 50.9601 74.8101 52.5401 72.2701 53.9801C69.8701 55.3301 67.5001 56.8501 64.9201 57.7301C60.4001 59.2801 56.8801 55.9301 58.0301 51.3401C58.5901 49.1301 59.29 46.8902 60.35 44.8802C63.01 39.8202 65.9901 34.9302 68.7001 29.8902C71.5001 24.6902 74.3201 19.4702 76.7801 14.1102C78.0401 11.3702 78.5601 8.29015 79.3701 5.36015C79.5101 4.85015 79.3901 4.28018 79.3901 3.39018C78.2901 3.82018 77.3701 4.09019 76.5301 4.53019C71.4201 7.2102 67.01 10.8801 62.72 14.6801C51.68 24.4801 41.5001 35.1202 32.0901 46.4902C24.6301 55.4902 18.5501 65.3701 13.3601 75.8501C9.76005 83.1201 6.95008 90.6602 4.95008 98.5002C3.90008 102.59 2.99007 106.73 3.63007 111.02C3.64007 111.11 3.6501 111.21 3.6601 111.3C4.3601 115.59 6.66007 116.8 10.5701 114.94C15.3101 112.69 19.2101 109.29 22.8001 105.58C27.7401 100.46 32.6201 95.2601 37.1901 89.8201C43.3001 82.5501 48.6901 74.7401 52.2301 65.8501C53.2701 63.2301 53.7601 60.3402 54.1801 57.5302C54.3301 56.5402 53.8301 55.0301 53.0901 54.4301C52.0301 53.5801 50.6901 54.3302 49.6301 55.1302C46.0601 57.8102 43.1301 61.1101 40.7101 64.8201C39.0801 67.3201 37.7501 70.0301 36.4201 72.7101C35.5801 74.4101 35.2301 76.2401 35.5901 78.1901C35.7601 79.1201 35.9001 80.2801 34.3501 80.3301C33.1201 80.3701 32.6901 79.7901 32.6901 78.3001C32.6901 73.9101 34.4901 70.1102 36.5301 66.3802C38.8501 62.1302 42.0101 58.5402 45.3701 55.1302C46.6701 53.8102 48.2501 52.7101 49.8701 51.8001C52.6701 50.2201 55.5001 51.5101 56.4101 54.5701C57.3701 57.8001 56.6201 60.9201 55.6301 63.9601C52.5701 73.2801 47.3201 81.3601 41.2201 88.9301C38.4901 92.3201 35.8601 95.8202 32.8901 98.9902C27.0301 105.23 21.5701 111.98 13.9401 116.25C12.0301 117.32 9.80007 118.1 7.63007 118.38C4.51007 118.79 2.93009 117.45 1.78009 114.48C0.460095 111.04 0.860092 107.53 1.34009 104.04C2.21009 97.6801 4.07006 91.5601 6.56006 85.6701C9.00006 79.8901 11.4901 74.0901 14.4701 68.5801C17.3601 63.2401 20.6401 58.0502 24.2401 53.1602C28.9501 46.7502 33.9701 40.5402 39.1701 34.5202C43.1101 29.9502 47.4901 25.7501 51.7801 21.4801C55.0401 18.2401 58.3701 15.0702 61.8201 12.0302C66.1101 8.2502 70.4901 4.55018 75.6101 1.89018C76.6401 1.36018 77.7701 0.980127 78.9001 0.710127C81.2001 0.160127 82.3301 1.09014 82.2501 3.47014C82.1201 7.23014 80.95 10.7701 79.6 14.2201C76.71 21.5901 72.6601 28.3601 68.7901 35.2301C66.3301 39.6001 64.01 44.0602 61.71 48.5202C61.23 49.4602 61.1001 50.5802 60.7801 51.6101C60.4201 52.7701 60.3701 54.0901 61.4301 54.6701C62.2201 55.1001 63.5801 55.0901 64.4201 54.7001C67.4601 53.2801 70.41 51.6602 73.35 50.0302C75.4 48.9002 77.3601 47.6201 79.3801 46.4301C79.7401 46.2201 80.1801 46.0002 80.5701 46.0302C81.5601 46.1002 82.72 46.0501 83.46 46.5601C83.83 46.8101 83.73 48.3302 83.35 49.0102C81.5 52.3602 79.6701 55.7602 77.48 58.8802C74.0601 63.7402 70.3501 68.4002 66.7701 73.1502C66.4101 73.6302 66.07 74.1101 65.72 74.6001C65.81 74.7401 65.9 74.8902 65.98 75.0302C67.41 74.3002 68.9401 73.7301 70.2401 72.8101C73.9101 70.2101 77.47 67.4702 81.08 64.7802C87.17 60.2502 93.2501 55.7001 99.3601 51.1801C105.54 46.6101 111.72 42.0202 117.96 37.5202C124.5 32.8002 131.11 28.1802 137.68 23.5002C138.21 23.1202 138.68 22.6502 139.2 22.2502C140.21 21.4602 141.57 21.4901 142.09 22.2901C142.57 23.0301 141.93 24.8702 141.08 25.3902C138.14 27.2002 135.16 28.9402 132.31 30.8802C127.19 34.3602 122.13 37.9202 117.1 41.5102C111.73 45.3502 106.39 49.2501 101.08 53.1801C94.49 58.0601 87.9401 63.0101 81.3601 67.9201C77.3901 70.8801 73.4501 73.8801 69.3801 76.6901C67.6801 77.8601 65.73 78.9301 63.46 77.9701C62.04 77.3701 61.6801 76.7702 62.2601 75.3602C62.7401 74.2001 63.35 73.0501 64.1 72.0501C67.75 67.1701 71.5001 62.3601 75.1501 57.4801C76.6401 55.4901 79.8801 50.2902 80.1401 49.7702C80.0301 49.6602 79.9201 49.5501 79.8101 49.4501L79.7701 49.4401Z" fill="white"/>
</svg>
