<svg width="36" height="36" viewBox="0 0 36 36" fill="none" xmlns="http://www.w3.org/2000/svg">
<path d="M0.579201 8.71991C0.579201 7.13991 0.569201 5.54991 0.579201 3.96991C0.599201 2.11991 1.77922 0.909965 3.59922 0.899965C6.79922 0.889965 10.0092 0.849853 13.2092 0.909853C15.1892 0.949853 16.9092 1.74996 18.3092 3.13996C23.7092 8.48995 29.0892 13.8699 34.4592 19.2499C35.8992 20.6899 35.8792 22.3599 34.4492 23.8099C30.8292 27.4499 27.1892 31.0899 23.5492 34.7199C22.0492 36.2199 20.4292 36.2199 18.9292 34.7199C13.5292 29.3199 8.12924 23.9099 2.73924 18.4899C1.31924 17.0599 0.599201 15.29 0.579201 13.27C0.559201 11.76 0.579201 10.2399 0.579201 8.72992V8.71991ZM4.98924 8.24994C4.98924 9.84994 6.33924 11.2099 7.92924 11.2199C9.50924 11.2299 10.8992 9.85985 10.9192 8.27985C10.9392 6.63985 9.55921 5.26985 7.89921 5.27985C6.26921 5.28985 4.97924 6.59993 4.98924 8.23993V8.24994Z" fill="#F0801B"/>
</svg>
