<svg width="36" height="39" viewBox="0 0 36 39" fill="none" xmlns="http://www.w3.org/2000/svg">
<path d="M17.9084 38.7099C14.9984 38.7899 12.2184 38.2099 9.45839 37.3399C7.45839 36.7199 5.41844 36.2099 3.37844 35.7299C1.48844 35.2899 0.558439 34.54 0.568439 33.13C0.568439 32.47 0.718434 31.7899 0.938434 31.1699C2.08843 27.8199 3.95838 24.93 6.69838 22.64C8.34838 21.26 10.1484 20.9099 12.1284 21.8699C15.9484 23.7299 19.7684 23.6999 23.5684 21.8599C25.4184 20.9599 27.1384 21.1799 28.6984 22.4299C31.9484 25.0599 34.1484 28.4 35.0784 32.51C35.3784 33.84 34.7784 35.04 33.4584 35.39C29.2884 36.5 25.1084 37.5399 20.9084 38.5299C19.9484 38.7599 18.9084 38.6599 17.8984 38.7199L17.9084 38.7099Z" fill="#F0801B"/>
<path d="M25.6382 10.8901C25.5982 12.9601 24.8882 15.33 23.1482 17.34C20.1382 20.81 15.4582 20.8 12.4782 17.3C9.22824 13.49 9.21821 7.15001 12.4482 3.34001C15.5282 -0.289994 20.5483 -0.150028 23.4883 3.67997C24.9983 5.63997 25.6382 7.89005 25.6382 10.8901Z" fill="#F0801B"/>
</svg>
