<svg width="50" height="50" viewBox="0 0 50 50" fill="none" xmlns="http://www.w3.org/2000/svg">
<path d="M49.533 24.6199C49.353 39.2499 37.4629 49.1899 24.9529 49.1599C11.8729 49.1299 0.42294 38.5299 0.45294 24.5699C0.49294 10.5199 12.0629 0.0398657 25.0729 0.0998657C37.7729 0.149866 49.373 10.2599 49.533 24.6299V24.6199Z" fill="#F1801B"/>
<path d="M25.1592 40.1103C22.8092 40.1603 20.6692 39.6903 18.6492 38.7203C17.8292 38.3203 17.0892 38.3203 16.2592 38.6003C14.3292 39.2503 12.3791 39.8503 10.4391 40.4703C10.1191 40.5703 9.80913 40.6703 9.47913 40.7503C9.18913 40.8203 9.00912 40.6103 9.08912 40.3003C9.21912 39.8603 9.35916 39.4303 9.50916 38.9903C10.0792 37.3403 10.6491 35.6903 11.2091 34.0403C11.2491 33.9203 11.2891 33.8003 11.3391 33.6903C11.6591 33.0003 11.6091 32.3703 11.2091 31.6803C10.5691 30.6003 10.1792 29.4103 9.90918 28.1903C8.61918 22.3403 10.1592 17.3003 14.3892 13.1403C17.0192 10.5603 20.2591 9.17029 23.9791 8.84029C31.3591 8.17029 38.0892 13.0103 40.1292 19.6103C42.8892 28.5403 37.6591 37.4703 28.8691 39.7003C27.6191 40.0203 26.3392 40.1903 25.1392 40.1203L25.1592 40.1103Z" fill="white"/>
<path d="M25.2874 11.3004C31.4974 11.2004 37.0873 15.9704 38.1973 22.1904C39.4173 29.0304 34.8174 36.4904 26.8674 37.5504C24.1174 37.9204 21.4774 37.4704 19.0174 36.1304C18.9074 36.0704 18.7873 36.0204 18.6873 35.9504C18.1673 35.5804 17.6374 35.5604 17.0374 35.7704C16.0174 36.1304 14.9773 36.4304 13.9473 36.7604C13.7473 36.8204 13.5474 36.8804 13.3474 36.9204C13.1774 36.9604 13.0075 36.7804 13.0575 36.6204C13.1375 36.3004 13.2374 35.9804 13.3374 35.6604C13.6274 34.7904 13.9074 33.9204 14.2274 33.0704C14.4374 32.5204 14.4073 32.0504 14.0673 31.5404C13.5373 30.7404 13.1273 29.8704 12.8173 28.9704C10.0273 20.9904 15.1174 12.8204 23.1674 11.4604C23.8574 11.3404 24.5774 11.3604 25.2774 11.3104L25.2874 11.3004Z" fill="#F1801B"/>
<path d="M29.7463 32.9849C29.5188 32.9395 29.1913 32.9244 28.8911 32.8337C26.016 32.0019 23.3684 30.7317 21.2758 28.3726C19.8837 26.7999 18.6463 25.1062 17.7092 23.1857C17.0814 21.8852 16.8084 20.5242 17.1451 19.0724C17.3452 18.1953 17.7547 17.4392 18.3188 16.7738C18.7373 16.2748 19.265 16.0329 19.8928 16.0026C20.6116 15.9724 21.1483 16.1992 21.4213 16.9553C21.7852 17.9534 22.1673 18.9515 22.5585 19.9495C22.7769 20.509 22.6677 21.0081 22.3402 21.4617C22.1491 21.7339 21.949 22.0061 21.7398 22.2632C21.3486 22.732 21.3122 23.2008 21.6215 23.7301C22.9135 25.9682 24.6512 27.6316 26.9349 28.6599C27.6264 28.9624 27.8447 28.9019 28.3815 28.2819C28.7181 27.8887 29.0184 27.4501 29.346 27.0418C29.6462 26.6638 30.0374 26.5579 30.456 26.7696C31.4477 27.2687 32.4394 27.798 33.422 28.3121C33.8951 28.5692 34.0498 28.9926 33.9861 29.537C33.886 30.4443 33.5858 31.2307 32.8853 31.8205C31.9845 32.5615 30.9745 32.9698 29.7463 33V32.9849Z" fill="white"/>
</svg>
