<svg width="106" height="106" viewBox="0 0 106 106" fill="none" xmlns="http://www.w3.org/2000/svg">
<path d="M0.660237 52.78C0.660237 24.18 23.5502 1.01995 51.8502 0.369955C81.3902 -0.320045 105.46 23.3199 105.59 52.5699C105.72 82.1799 81.4902 105.81 52.1602 105.29C23.7302 104.78 0.610237 81.56 0.660237 52.78ZM84.4202 18.03C84.0803 18.01 83.8702 17.99 83.6602 17.99C82.2702 17.99 80.8702 18.0199 79.4802 17.9699C78.8602 17.9499 78.4703 18.16 78.0703 18.62C71.1203 26.72 64.1603 34.8 57.2003 42.88C57.0403 43.07 56.8603 43.2499 56.6503 43.4699C56.3703 43.0699 56.1402 42.74 55.9202 42.42C50.5102 34.56 45.1003 26.7099 39.7103 18.8399C39.4503 18.4499 39.1803 18.28 38.6903 18.28C32.4503 18.3 26.2003 18.28 19.9603 18.29C19.7503 18.29 19.5403 18.3199 19.2103 18.3399C27.9503 31.1899 36.6303 43.9299 45.3103 56.6899C36.6103 66.7899 27.9502 76.84 19.1702 87.03C19.5902 87.03 19.8303 87.03 20.0703 87.03C21.5803 87.03 23.0803 87.01 24.5903 87.03C25.0503 87.03 25.3602 86.9 25.6602 86.54C32.8602 78.13 40.0603 69.7399 47.2703 61.3399C47.4803 61.0999 47.7003 60.8699 47.9503 60.5899C48.1703 60.9099 48.3403 61.14 48.5003 61.37C54.3403 69.95 60.1903 78.53 66.0103 87.12C66.3003 87.55 66.6202 87.66 67.1002 87.66C73.4802 87.65 79.8503 87.66 86.2302 87.66H87.0303C86.8503 87.36 86.7603 87.19 86.6503 87.03C85.3503 85.13 84.0402 83.2399 82.7302 81.3399C75.0602 70.1999 67.4002 59.06 59.7202 47.93C59.4002 47.47 59.3903 47.2 59.7703 46.76C67.6803 37.57 75.5802 28.36 83.4702 19.16C83.7702 18.82 84.0502 18.46 84.4202 18.02V18.03Z" fill="url(#paint0_linear_458_157)"/>
<defs>
<linearGradient id="paint0_linear_458_157" x1="0.660237" y1="52.83" x2="105.59" y2="52.83" gradientUnits="userSpaceOnUse">
<stop stop-color="#ED801B"/>
<stop offset="0.38" stop-color="#E57114"/>
<stop offset="1" stop-color="#D45107"/>
</linearGradient>
</defs>
</svg>
